<?xml version="1.0" encoding="UTF-8"?>
<svg id="Layer_1" data-name="Layer 1" xmlns="http://www.w3.org/2000/svg" viewBox="0 0 180 180">
  <defs>
    <style>
      .cls-1 {
        fill: #1e6de0;
      }
    </style>
  </defs>
  <path class="cls-1" d="M15.3,109.29l2.2,1.99c.48,1.89,2.53,2.35,4.18,3,2.9,1.13,4.9,2.96,8.09,3.14l-.12,1.08,8.39,4.52.94-.56c1.27,2.38,7.06,6.22,9.77,5.98l.15.67,1.42.04-3.02-2.52,3.32.69c.29,4.87,6.9,5.94,10.44,7.89,1.67.92,2.38,2.28,4.48,2.26l-.78-1.95,3.84,3.04-.34.07-.22-1.01-1.35.29-.12,1.08,2.58.5.22,1.01.04-1.42c3.38.15,3.72,2.24,5.89,4.01,3.18,2.59,7.53,5.66,11.2,7.5,1.23.62,5.1,3.42,6,2.15l.34-.07.34-.07.15.67,5.3,1.66-.12,1.08c1.39.2,1.9.67,2.53,1.92l-3.69-2.37-.34.07c2.14,3.14,4.87,2.88,3.71,7.3l1.31,1.13,2.28-.85-.38,1.49.41.26,2.85-3.09-.04,1.42.34-.07c1.38-2.9,3.31-5.9,1.73-9.2-.95-1.99-3.11-2.97-3.47-5.24l-.86.89-6.37-4.96,1.49.38c-1.75-2.15-4.95-3.87-7.69-2.91l-.29-1.35-1.64-1.05,1.49.38-4.03-2.3.48.6-.34.07c-2.94-2.05-5.31-5.7-9.1-6.13l.07.34.82.53-1.68.37-.41-.26.12-1.08-1.68.37.53-.82-1.08-.12-.03-1.76-5.15-.99,3.7-.81c.58,1.44.99.53,2.24.57,3.24.1,6.82-.41,9.91-1.46,6.29-2.12,14.19-5.26,19.41-11.29,2.87-3.32,5.55-9.52,5.66-12.87.03-1.13.9-2.06,1.32-2.05l-.56-.94.75.19-.07-.34,1.46-9.49-.74-3.37.34-.07.15.67.34-.07-.63-1.27c1.01-.4.22-1.63-.18-2.43l.67-.15-3.5-14.4.34-.07.48.6,1.01-.22-1.19-2.21,9.02,5.79,8.77,3.02c2.3,2.71,13.17,2.91,15.62.47l.56.94,1.2-.97h3.18s-1.08-.11-1.08-.11l-.07-.34,1.83.31.34-.07,5.43-2.6.07.34-.53.82,1.35-.29,4.01-2.64-.07-.34-1.35.29-.07-.34,1.95-.78.15.67,5.66-4.76.23-2.17-.12,1.08.34-.07c1.36-2.47,2.3-7.2,5.41-7.53-.06-5.94,4.99-14.48-2.86-16.31l-.98,1.98-.71-1.61c-2.75,3.32-4.46,12.41-3.09,16.55l-3.07,2.08-.88,4.07-1.16-.45,1.23.79-.91,2.31c.36-2.21-2.18-1.77-1.76.03l-1.76.03.07.34.75.19-2.13,1.52c-1.63-1.56-2.81.69-2.33,2.27l-1.04-1.54-.79,1.23-2.5-.16c-2.27,6.53-9.79-.03-13.54,2.6l-.29-1.35-2.65-.83c-1.65.24-4.29-.96-5.11-2.41l-4.44-2.56-3.47-1.36c-1.23-2.11-3.85-5.41-6.26-6.04l-2.49-3.34-4.35-5.4-4.42-8.91-2.08-3.07-.18-2.43-2.38-4.42-3.02-2.52-3.61-5.21-.67.15.37,1.68-.38,1.49-1.35.29-1.26-2.55-1.61.7-.34.07.85,2.28-1.16-.45-1.54,1.04.56.94c-2.5.45-1.04,3.36-2.82,4.85l2.44,7.93-1.16-.45,3.96,10.07.94-.56.25,2.77c1.2-.26,1.52,2.13,1.74,3.15l-.34.07-.37-1.68-.34.07,2.22,6.92.34-.07-.37-1.68.34-.07,1.92,5.58-.34.07-.97-1.2,3.07,9.21,1.01-.22-.86.89,1.88,7,.6-.48c1.13,4.67,2.7,15.39-.33,19.47,1.08,4.61-4.51,12.41-9.17,12.94.18.82-.15.6-.94.56l-1.32,2.05.04-1.42-1.76.03.49.6-.34.07c-1.3-.38-2.72-.67-3.37.74l1.01-.22.07.34-3.1.32-2.31-.91.56.94-3.51.06-.07-.34,2.09-.1-.07-.34-.07-.34-5.68-.17-2.43.18-4.33-.46.12-1.08-1.27.63c-.3-.78-7.23-2.12-8.07-1.41l-.22-1.01-2.5-.16-.97-1.2-1.83-.31.63,1.27-1.49-.38.31-1.83-1.16-.45c-1.92.2-3.66.28-5.15-.99l-1.42-.04-.34.07.22,1.01-.34.07-1.93-2.4-.86.89-.34.07-1.19-2.21c-4.7.58-10.25-5.47-14.59-7.04-.49,1.33-1.35,1.13-2.62.93l1.52,2.14c-1.47-.41-2.62-.58-2.55,1.26l-.34.07-.56-.94-.34.07.03,1.76-1.08-.12.62,4.45M19.78,103.36c-.06-.26.15-.1.14.09l-.14-.09ZM70.24,126.21l2.09-.1.15.67-2.09.1-.15-.67ZM72.03,127.94l1.42.04.07.34-1.35.29-.15-.67M75.38,141.67l12.91,7.41-.53.82,1.23.79c-3.72-1.09-11.72-5.62-13.61-9.02ZM73.48,129.74l1.23.79-.19.75-.34.07-.71-1.61M83.53,135.3l1.23.79-1.08-.12-.15-.67M102.85,160.71l.34-.07.22,1.01-.56-.94ZM104.26,155.82l.34-.07.22,1.01-.56-.94ZM84.09,43.47l.09-.14c.1.15-.03.4-.09.14ZM85.39,46.71l.34-.07,1.07,3.29-1.41-3.22M86.87,50.27l.34-.07.22,1.01-.56-.94ZM89.99,58.05l.34-.07.78,1.95-1.11-1.87M94.37,70.15l.34-.07.22,1.01-.56-.94ZM124.83,73.73l.67-.15.15.67-.82-.53ZM131.23,76.56c-.06-.26.15-.1.14.09l-.14-.09ZM151.37,72.17l1.01-.22.07.34-1.08-.12ZM164.62,61.52l1.2-.97c0,.93-.29,1.25-1.2.97Z"/>
  <path d="M5.96,99.97l2.2,1.99c.48,1.89,2.53,2.35,4.18,3,2.9,1.13,4.9,2.96,8.09,3.14l-.12,1.08,8.39,4.52.94-.56c1.27,2.38,7.06,6.22,9.77,5.98l.15.67,1.42.04-3.02-2.52,3.32.69c.29,4.87,6.9,5.94,10.44,7.89,1.67.92,2.38,2.28,4.48,2.26l-.78-1.95,3.84,3.04-.34.07-.22-1.01-1.35.29-.12,1.08,2.58.5.22,1.01.04-1.42c3.38.15,3.72,2.24,5.89,4.01,3.18,2.59,7.53,5.66,11.2,7.5,1.23.62,5.1,3.42,6,2.15l.34-.07.34-.07.15.67,5.3,1.66-.12,1.08c1.39.2,1.9.67,2.53,1.92l-3.69-2.37-.34.07c2.14,3.14,4.87,2.88,3.71,7.3l1.31,1.13,2.28-.85-.38,1.49.41.26,2.85-3.09-.04,1.42.34-.07c1.38-2.9,3.31-5.9,1.73-9.2-.95-1.99-3.11-2.97-3.47-5.24l-.86.89-6.37-4.96,1.49.38c-1.75-2.15-4.95-3.87-7.69-2.91l-.29-1.35-1.64-1.05,1.49.38-4.03-2.3.48.6-.34.07c-2.94-2.05-5.31-5.7-9.1-6.13l.07.34.82.53-1.68.37-.41-.26.12-1.08-1.68.37.53-.82-1.08-.12-.03-1.76-5.15-.99,3.7-.81c.58,1.44.99.53,2.24.57,3.24.1,6.82-.41,9.91-1.46,6.29-2.12,14.19-5.26,19.41-11.29,2.87-3.32,5.55-9.52,5.66-12.87.03-1.13.9-2.06,1.32-2.05l-.56-.94.75.19-.07-.34,1.46-9.49-.74-3.37.34-.07.15.67.34-.07-.63-1.27c1.01-.4.22-1.63-.18-2.43l.67-.15-3.5-14.4.34-.07.48.6,1.01-.22-1.19-2.21,9.02,5.79,8.77,3.02c2.3,2.71,13.17,2.91,15.62.47l.56.94,1.2-.97h3.18s-1.08-.11-1.08-.11l-.07-.34,1.83.31.34-.07,5.43-2.6.07.34-.53.82,1.35-.29,4.01-2.64-.07-.34-1.35.29-.07-.34,1.95-.78.15.67,5.66-4.76.23-2.17-.12,1.08.34-.07c1.36-2.47,2.3-7.2,5.41-7.53-.06-5.94,4.99-14.48-2.86-16.31l-.98,1.98-.71-1.61c-2.75,3.32-4.46,12.41-3.09,16.55l-3.07,2.08-.88,4.07-1.16-.45,1.23.79-.91,2.31c.36-2.21-2.18-1.77-1.76.03l-1.76.03.07.34.75.19-2.13,1.52c-1.63-1.56-2.81.69-2.33,2.27l-1.04-1.54-.79,1.23-2.5-.16c-2.27,6.53-9.79-.03-13.54,2.6l-.29-1.35-2.65-.83c-1.65.24-4.29-.96-5.11-2.41l-4.44-2.56-3.47-1.36c-1.23-2.11-3.85-5.41-6.26-6.04l-2.49-3.34-4.35-5.4-4.42-8.91-2.08-3.07-.18-2.43-2.38-4.42-3.02-2.52-3.61-5.21-.67.15.37,1.68-.38,1.49-1.35.29-1.26-2.55-1.61.7-.34.07.85,2.28-1.16-.45-1.54,1.04.56.94c-2.5.45-1.04,3.36-2.82,4.85l2.44,7.93-1.16-.45,3.96,10.07.94-.56.25,2.77c1.2-.26,1.52,2.13,1.74,3.15l-.34.07-.37-1.68-.34.07,2.22,6.92.34-.07-.37-1.68.34-.07,1.92,5.58-.34.07-.97-1.2,3.07,9.21,1.01-.22-.86.89,1.88,7,.6-.48c1.13,4.67,2.7,15.39-.33,19.47,1.08,4.61-4.51,12.41-9.17,12.94.18.82-.15.6-.94.56l-1.32,2.05.04-1.42-1.76.03.49.6-.34.07c-1.3-.38-2.72-.67-3.37.74l1.01-.22.07.34-3.1.32-2.31-.91.56.94-3.51.06-.07-.34,2.09-.1-.07-.34-.07-.34-5.68-.17-2.43.18-4.33-.46.12-1.08-1.27.63c-.3-.78-7.23-2.12-8.07-1.41l-.22-1.01-2.5-.16-.97-1.2-1.83-.31.63,1.27-1.49-.38.31-1.83-1.16-.45c-1.92.2-3.66.28-5.15-.99l-1.42-.04-.34.07.22,1.01-.34.07-1.93-2.4-.86.89-.34.07-1.19-2.21c-4.7.58-10.25-5.47-14.59-7.04-.49,1.33-1.35,1.13-2.62.93l1.52,2.14c-1.47-.41-2.62-.58-2.55,1.26l-.34.07-.56-.94-.34.07.03,1.76-1.08-.12.62,4.45M10.44,94.03c-.06-.26.15-.1.14.09l-.14-.09ZM60.9,116.88l2.09-.1.15.67-2.09.1-.15-.67ZM62.68,118.61l1.42.04.07.34-1.35.29-.15-.67M66.04,132.34l12.91,7.41-.53.82,1.23.79c-3.72-1.09-11.72-5.62-13.61-9.02ZM64.14,120.41l1.23.79-.19.75-.34.07-.71-1.61M74.19,125.98l1.23.79-1.08-.12-.15-.67M93.51,151.39l.34-.07.22,1.01-.56-.94ZM94.91,146.5l.34-.07.22,1.01-.56-.94ZM74.75,34.14l.09-.14c.1.15-.03.4-.09.14ZM76.04,37.39l.34-.07,1.07,3.29-1.41-3.22M77.53,40.94l.34-.07.22,1.01-.56-.94ZM80.64,48.73l.34-.07.78,1.95-1.11-1.87M85.03,60.82l.34-.07.22,1.01-.56-.94ZM115.49,64.4l.67-.15.15.67-.82-.53ZM121.88,67.24c-.06-.26.15-.1.14.09l-.14-.09ZM142.03,62.84l1.01-.22.07.34-1.08-.12ZM155.28,52.19l1.2-.97c0,.93-.29,1.25-1.2.97Z"/>
</svg>