<?xml version="1.0" encoding="UTF-8"?>
<svg id="Layer_1" data-name="Layer 1" xmlns="http://www.w3.org/2000/svg" viewBox="0 0 180 180">
  <defs>
    <style>
      .cls-1 {
        fill: #1e6de0;
      }
    </style>
  </defs>
  <path class="cls-1" d="M22.95,25.41l2.27,4.05-1.5-1.61-.43.88.57.39c-1.34,2.68,1.2,5.55,2.35,7.85.64,1.27.76,2.36,2.13,3.06-.98,1.14.7,1.41,1.12,2.17.28.5.07,1.21.23,1.76l.17-.13-.09-.48.71.56-.7.53.13.17c1.47.52,1.01,1.94,1.3,3.14l.52-.4.22.66-.44-.22-.17.13,1.11,1.08c-.36.88-.05,1.41.68,1.96l1.21,2.66,2.74,7.55.92.12-.04.31-.66.22,1.48,4.1.66-.22.49,1c-.58,1.25,1.4,3.58,2.02,4.8l.52-.4-.22-.65.17-.13c.4.74,1.06,1.64.46,2.4l.36.83-.17.13-.36-.83-.7.53.49,1,.57.39.62,1.18-.16,1.23c.53-.4.51.07.4.52l1.29,2.05-.52.4,1.01.6-.39.57,2.34,2.34-.17.13-.44-.21-.03,1.4c1.59.6,2.35,3.43,2.94,4.92l.61.08.15-.12.47,1.29-.4-.52.63,2.27.43-.88.49,1-.96.18-.3,1.05,1.71.07-.08.61.84.74.98-2.68-.7.53.43-.88-.13-.17-.52.4-.22-.66.79-.05-.71-.56-.14-1.27v1.09s-.34.27-.34.27l-.58-1.48,1.27-.14-.57-.39-1.22-3.75-.61-.08.16-1.23-.71-.56.35-.27-1.5-1.61.35-.27-1.91-3.22-.92-.12,1.04-.8-1.65-2.87.66-.22-2.42-1.73,1.31-.45-1.47-3.01-.31-.04-1.04.8.86-1.76-.13-.17-.52.4c.1-1.22.58-2.79-1.21-2.66l.94-2.37-1.01-.6.56-.71-.57-.39v-1.09s-.84.36-.84.36l-.13-.17v-1.09s.17-.13.17-.13l.61.08-.36-.83c-.78-.34-.68-1.02-.54-1.79l-1.5-1.61.17-.13.84.74.21-.44c.65.75,1.76,1.47,1.38,2.53l3.48,4.18,1.92,2.16c-.06.99,2.45,4.23,3.23,3.87l-.26.75.67.87,3.68,5.18.17-.13-.27-.35.17-.13.98,2.01.67.87c4.41,5.49,8.14,12.08,13.84,16.43,1.39,1.06,5.31,4.74,6.78,2.26,2.02,1.84,4.55.91,6.48-.54l-.13-.17c-1.02.66-2.02,1.07-3.23.82.9-.33,3.36-.88,3.53-1.87l.87-.66.4.52c.3-3.46,4.81-6.68,3.89-10.41l.99-1.59-.13-.17-.56.71.55-1.8.22.66.23-4.03-.71-.56c1.95-1.04,1.4-4.71,1.77-6.64.13-.66.55-1.11.61-1.8l-.25.75-.58-1.48,1.07-2.2-.13-.17c-1.44-.74-.3-4.09-.97-5.6l.68-1.63-1.06-1.39-.94,2.37.84.74-.79.05-.38,1.67.66-.22.13.17c-.29.22-1.05.94-.26.75l.86,2.93-1.53.89,1.01,5.29-1.03,1.89.84.74-1.26,2.25-.4-.19.09.48.25-.19-1.13,2.01.61.08.13.17-.19,2.63-.88-.43-.17.13-.43.88.57.39-.83.36.02,2.19-.36-.83-.17.13.22.65-.52.4.48-.09.13.17-.56.71-.09-.48-.17.13-2.12,3-.22-.66-.78,1.15c-.91-.29-1.84.02-2.58.59-6.92-3.72-10.54-10.75-14.86-17.02-7.75-11.23-15.54-22.52-23.33-33.7-3.52-5.05-7.02-11.83-12.2-15.2l-.17.13-.74.84-.8-1.04.05.79-.91.97-1.85-1.34-.17.13v1.09c.76-.34,1.19-.25,1.85.25l-1.66.72-.76-1.35v1.09s-.16.13-.16.13l-.76-1.35-.35.27ZM22.1,28.27c.08.69.26.95.97.91l-.97-.91ZM22.68,29.75l.61.08-.27-.35-.35.26ZM88.26,4.16l-.75,3.32-.47,1.19c.64-.49,1.97.17,1.26-1.24l1.14-.32-.57-.39.34-1.36-.83.36-.27-.35.16-1.21ZM88.23,5.91c.13-.1.1.06-.01.1v-.1ZM87.1,9.46l.87.42-.26.75-.17.13-.79.05.34,3.32-.22-.65.19,2.06.84.73c-1.53.93-.75,2.61.3,3.63l-.17.13-.61-.08c1.54,1.66.71,3.48.8,5.48.05,1.1.63,1.86.11,2.92l.13.17.21-.44.13.17.62,5.86-.3,1.05.49,1,.82-1.45.14,1.27,1.28.95c.12,1.35-.35,2.24.82,3.23-.45,1.02.12,1.98.39,3.01.59,2.21,1.25,4.45,1.7,6.69.16.81.49,2.65,1.4,2.79l.13.17c-.68.65-.12,2.97.77,2.45l.13.17-.87.66c.67,2,1.19,4.26,1.42,6.35.13,1.14,0,2.46,1.25,2.91l-.3,1.05c.83,1.02,1.64,2.35.78,3.54.78,1.69,1.98,2.78,1.4,4.72l.13.17.61.08c-.48,1.17.66,2.72,1.05,3.89,1.25,3.81,3.03,7.35,4.82,10.92.66,1.31,1.49,3.64,3.24,3.58.19,1.04,1.19,2.36,2.34,2.34l.13.17c-.35,1.95,3.91,2.29,5.14,2.39,5.11.41,8.71-1.44,11.83-5.44l-.13-.17-2.52,2.47-.13-.17,2.91-3.05.05.79,2.51-3.57-.13-.17-.48.09c2.17-2.6,3.26-5.17,4.7-8.28l-1.72-1.16.6-1.01c.22.49.25.5.75.25l.22.66.31.04c4.42-5.44,4.35-13.54,8.05-19.39l1.3,7.83.83-.36-.21.44c-.69.58-.66,1.07-.25,1.84l-.62-.08.63,2.27.65-.22c.18,2.52,2.05,5.52,3.92,7.2.44.39,3.11,2.09,3.07,1.23l.17-.13c1,.85,2.64.35,3.76-.12l-.88-.43,1.04-.8-.08.61.13.17,1.75-.23-1.01-.6.87-.67c.47,2.21,4.9-1.42,6.2-1.98.37-.79,1.54-1.23,2.28-1.74,1.97-1.45,2.77-2.35,5.22-2.87l-.92-.12c.41-1,1.43-1.99,1.44-2.89l-.34.26.33-.48c-.06-.29-.22-.57-.58-.83l1.62-.41.69-1.63.3-1.05-.13-.17-.83.36-.18-.96-1.04.8-.09-.48-1.44.28-1.83.85.4.52-.17.13-1.62.41-1.51,1.98.57.39-2.56,2.78-.36-.83c-1.02.92-1.74,2.37-3.26,2.22l-.6,1.01c-1.96-.41-3.12,2.82-5.41,1.93l-.17.13.09.48-3.08-1.5-.7.53-.53-.7.17-.13.79-.05-3.15-5.51-1.63-4.34c.92-.97.54-2.25.14-3.42l-.35.27c-.07-.55-.17-.85.43-.88l-.22-.65-.92-.12.69-1.63.22.66.1-3.11-.39.57c-.26-2.55.41-4.63,1.07-7.05.3-1.08,1.29-1.47.85-2.69l-.66.22,1.2-3.12-.13-.17-.95,1.28-.02-2.19-2.7,1.51-1.88,2.35-.12-.02-.03.2-.79.99c.52,1.4-.66,3.14-1.36,4.35l-.19-.96-.39.57.71.56-1.64,2.91-.14-1.27-4.41,7.56-3.97,9.59-2.89,5.64-.63,2.02c-.94.43-1.19,1.18-1.38,2.16l-.57-.39.39-.57-.13-.17-1.34,1.85.61.08-.84,1.71.04.05-.52.4.36-.53-.3-.39.73-.84-.13-.17c-2.11,2.11-4.83,7.47-8.28,4.68l.17-.13.27.35.17-.13c-5.07-4.51-7.21-11.95-9.37-18.19-3.96-11.48-7.44-23.06-11.41-34.54-1.62-4.69-2.82-9.84-5.07-14.24-.75-1.47-.12-3.42-1.65-4.33.86-.93.02-1.35-.85-1.83l1.18-.62-2.03-1.21,1.61-1.5-1.01-.6-.22.44-.64-.51-1.5.22ZM88.6,9.24l.72-.11-.79.05.07.05ZM125.42,83.02l.1.13v-.06s-.08-.12-.08-.12v.06ZM174.43,68.26c0,.08.02.14.02.22l.18-.14-.13-.17-.06.09ZM36.73,54.59l.32,1.14-.17.13-.14-1.27ZM38,54.45l.35-.27-.08.61-.27-.35ZM7.4,78.3c-.53.32.05,1.47.62,1.82l-.04.3-1.72-1.17c-.63,1.62.44,3.45,1.42,4.72.37.49.99,1.3,1.57.99l1.38,2.53c4.63,3.59,6.83,9.6,10.81,13.78l-.39.57,2.43,2.82-.48.09,3.94,4.43.52-.4-.53-.7.17-.13.73.31v-.1c.14-.1.11.05,0,.1l.89.37c.36,1.4,1.31,3.23,2.33,1.25l1.36.34-.83.36.67.87c.91-1.43-.46-1.65-1.06-2.77-.4-.75-.29-1.74-.26-2.56l.75.26.89,1.52c.58.1.76.12.53.7l3.52,1.72.93,1.22,1-.49-.57-.39,1.76.86-2.23.33,2.78,2.56h1.09s-1.18.61-1.18.61l2.13,2.78.65-.22.22.65c1.38.16,1.96,1.1,2.34,2.34l.88.43.13.17c1.23.48,3.57,3.53,4.76,2.98.68,1.32,4.2,3.86,5.77,3.58.8,1.14,3.77,2.14,5.09,1.62l-.08.61,1.35-.76-.83.36-.22-.66,1.62-.41c-.62-.81-.55-1.55.29-2.15l-.4-.52.33-2.45-.71-.56.66-.22-1.01-.61.65-.22-1.16-1.87-.7.53c.76,1.4.11,3.26,1.79,4.14-2.5,1.34-4.61-.08-6.75-1.72-3.08-2.36-6.03-4.61-8.87-7.27-.83-.78-4.08-4.24-4.63-3.08l-.57-.39c1.03-1.44-.81-2.27-2.08-2l-.13-.17c.73-1.34-.36-1.75-1.21-2.66l-.17.13-.47,1.19-.1-1.58-.74.84-.13-.17.91-.97c-.69-.83-1.15-1.51-2.29-1.56l-.13-.17-2.13-2.78-.56.71-.88-.43,1.35-.76c-1.27-1.66-5.26-7.03-7.46-6.15-.03-1.6.04-2.4-1.43-3.32l-1.57,1.2-.8-1.04.87-.66-.53-.7.17-.13.8,1.04c1.19-2.86-4.01-4.31-5.35-5.56l.66-.22c-.95-1.12-1.99-3.91-3.71-3.78-.77-1.61-3.18-3.78-4.9-4.25l-.13-.17-.05-.79-1.05-.3-1.74,1.33c-.25-.03-.44,0-.56.07h.01ZM87.57,18.02h.1c-.06.11-.24.1-.1,0ZM87.64,20.93l.32,1.13.17-.13-.49-1ZM38.31,60.58l.48-.09c.8.61.78,1.18.81,2.14l-.17.13-1.11-1.08.52-.4-.53-.7ZM40.11,65.83l.52-.4.18.96-.75-.26.04-.31ZM42.53,66.46l.35-.27.27.35-.61-.08ZM42.07,72.34l.27.35.35-.27-.27-.35-.35.27ZM89.82,36.39l-.38,1.67.87-.67-.49-1ZM89.75,38.1l.36.83-.65.22-.16,1.23c1.33-.23,1.13-1.52.81-2.55l-.35.27ZM43.66,73.34l.53.7c-.62.07-.72-.12-.53-.7ZM92.24,38.13l.27.35-.35.27.08-.61ZM45.59,74.07l.8,1.04-1.53-.21.74-.84ZM89.48,41.35c-.09,1.38-.15,3.86.75,4.94-.68,1.37-.4,3.18.17,4.55l-.96.18,1.21,2.66,1.27-.14.17-.13c-1.11-1.05-1.2-3.18-1.05-4.98.07-.83-.28-1.61.25-1.84l-1.45-5.5-.35.27ZM18.6,96.09l.65-.22.13.17-.83.36.04-.31ZM88.87,42.37l.18.96.17-.13-.36-.83ZM19.85,97.72c.13-.1.1.06-.01.1v-.1ZM90.47,56c-.37.34-.53.78.11.92l-.26-.35.91-.97c-.24.04-.54.2-.76.4h0ZM49.75,87.87l.17-.13.71,1.95-.61-1.2.13-.1-.4-.52ZM27.82,104.89h.1c-.06.11-.24.1-.1,0ZM27.61,109.66l.27.35.35-.27-.61-.08ZM27.84,110.31l.4.52.35-.27-.4-.52-.35.27ZM37.78,106.03l.26.35-.35.27.08-.61ZM30.62,111.78l.53.7.17-.13-.71-.56ZM31.14,111.39l.53.7.17-.13-.36-.83-.35.27ZM54.5,94.35l.4.52.21-.44-.13-.17-.48.09ZM37.63,108.35l.52-.4c-.03.43-.3,1.16-.52.4ZM54.51,95.45l-.59,2.11,1.14-.32.27.35-.7.53.8,1.04.47-1.19-.45-1.31-.87.67-.06-1.88ZM54.68,95.32l.53.7v-1.1s-.53.4-.53.4ZM31.64,113.49l.36.83.83-.36.13.17c-.41.58-.44.82-.03,1.4l-1.75.23.49,1,.92.12.08-.61.17-.13.93,1.22.95-1.28.57.39.17-.13-1.32-.65.56-.71-.57-.39.39-.57c-.94-.73-1.75-.87-2.89-.54h0ZM39.58,109.08l.13.17-.7.53.56-.71ZM53.67,98.3l.26.35.35-.27-.61-.08ZM56.23,99.12l-.78,1.14-.04.31.44.22c-.19.2-.32.39-.4.58l.18-.14,1.24,1.26-.05,3.9.3-1.05,1.64,2.87c-.53,1.57.98,1.29,1.67.38l-1.32-.65.66-.22-.13-.17c-.76-.28-.65-1.09-.54-1.79l-1.36-.34.91-.97-.13-.17-.61-.08.7-.53-.29-.31-.66.51-.14-1.27.61.54-1.7-1.93c.33-.73.45-1.49-.19-2.06h.01ZM58.11,103.11l.18.23.03-.03-.21-.21ZM55.45,101.37l-.16.12.08.1c.02-.07.04-.14.07-.22h.01ZM55.38,101.59c-.1.46.07.93.32,1.53l.17-.13-.22-.66.17-.13.4.52.17-.13-1.01-.99ZM39.58,112.67l.66-.22-.12.92-.53-.7ZM42.5,110.72l.36.83-.92-.12.56-.71ZM33.93,117.54l.62,1.18-1,.49,3.61,6.89.78-1.15.36.83-1,.49,1.12,2.18.31.04c.19-.51.19-.86.03-1.19l1.07,1.17-.17.13-.96.18,1.06,1.39.17-.13c-.04-.31.03-.52,0-.61,1.64.64,2.96,4.57,4.33,5.56l.17-.13-.32-1.14-.75-.26.39-.57.57.39-2.5-4.71-.39.57-.22-.66.66-.22-2.72-5.36-1.45-.82.83-.36-1.87-3.53-1.31.45c-.27-.84-.43-1.47-1.41-1.12h0ZM91.43,74.14l.27.35.08-.62-.35.27ZM100.17,68.29l.35-.27.14,1.27-.49-1ZM35.49,118.84l.35-.27.27.35-.62-.08ZM89.02,78.2l.35-.27.4.52-.17.13-.57-.39ZM36.25,119.1l.44.21-.35.26-.09-.48ZM35.08,120.82l.97.91-.17.13-.53-.7-.14.11-.12-.45ZM35.23,121.39l.33.44-.17.13-.16-.57ZM44.99,117.94l.27.35-.35.27.08-.62ZM18.56,138.15l1.29,2.04-.96.18.22.65-.79.05c2.4,5.61,9.19,10.16,13.74,14.03,1.61,1.37,3.61,3.69,5.7,4.19l1.8,1.61,6.04,3.97.21-.44c.95.71,2.94,1.95,4.11,2.13,1.53.23,3.05-.76,1.14-1.74l.04-.31c.97-.29,1-.71.69-1.63l.65-.22c-.8-1.49-3.47-4.93-5.3-4.77-1.56-3-5.27-5.65-7.87-7.76l.66-.22.22.66,1.18-.62,2.36-.15.08-.61c.93.56,1.8,1.77,2.85.85l-.92-.12,1.53-.89-.92-.12-.13-.17.43-.88,1.93.72.35-.27-.22-.66.66-.22-.57-.39-.43.88-.71-.56.83-.36c-2.22-1.95-6.51-2.32-9.3-3.09-4.67-1.3-7.93-2.8-11.38-6.18-1.2-1.18-2.79-2.67-4.2-.92l-1.15-.78-.17.13.45,1.31-.52.4-1.45-.82-2.18,1.12ZM36.78,124.5l.52-.4.13.17-.43.88-.23-.66ZM17.8,140.39l.4.52-.05-.79-.35.27ZM75.54,96.61h.1c-.06.11-.24.1-.1,0ZM46.41,119.07l.4.52-.17.13-.22-.65ZM58.82,110.42l.45,1.31.71.56.1,1.58.79-.05-.56.71.13.17.35-.27.13.17-.7.53.54,1.79.8,1.04.78-1.14c-.76-.71-.96-1.43-.77-2.44l-.28-1.44-.13-.17c-.46-.32-.28-.58.12-.92l-.22-.66-.52.4-1.72-1.17ZM48.52,119.67l.22.66-.43.88c-.33-.7-.44-1.06.2-1.53h0ZM87.2,92.04l.61.08-.27-.35-.35.27ZM142.82,49.8l.09.48.35-.27-.44-.21ZM39.38,129.36c.14-.01.29,0,.43.05-.07,0-.15.06-.3.12l-.13-.17ZM84.22,95.7l.13.17.7-.53-.83.36ZM149.49,47c.13-.1.1.06-.01.1v-.1ZM42.12,130.39l.35-.27.05.79-.4-.52ZM140.12,56.01l.31.04-.25.75-.05-.79ZM42.61,131.39l.35-.27.62,1.18-.17.13-.8-1.04ZM41.3,132.94l.4.52.17-.13-.57-.39ZM61.53,118.31l.93,1.22.17-.13-.58-1.49-.52.4ZM138.05,59.81l.35-.27-.08.61-.26-.35ZM138.14,60.29l-.26.75-.13-.17.39-.57ZM145.2,56.55l.13.17-1.07,2.2.94-2.37ZM135.57,65.57l.52-.4.13.17-.43.88-.23-.66ZM143.79,59.38c.13-.1.1.06-.01.1v-.1ZM148.01,56.61l-.43.88-.13-.17.56-.7ZM143.31,60.2l.53.7-1.04.8-.13-.17.65-1.32ZM135.36,67.11l-.26.75-.13-.17.39-.57ZM57.24,127.03c.92-.84,2.32,1.33,3.28.05l.63.83-4.09-.67c.05-.09.12-.15.18-.21h0ZM45.02,136.73l.53.7-.18-.96-.35.27ZM63.2,123.38l.35-.27.22.66-.17.13-.4-.52ZM145.77,60.54l.35-.27.05.79-.4-.52ZM45.69,137.6l.8,1.04.17-.13-.97-.91ZM132.44,72.66l.35-.26-.08.61-.27-.35ZM61.23,127.93c.53-.4.77-.37,1.18.19l-1.18-.19ZM46.75,139l.26.35.35-.27-.61-.08ZM146.49,63.29v1.09s-.3-.04-.3-.04l.3-1.05ZM62.89,128.03l.52-.4.09.48-.17.13-.44-.22ZM147.51,63.9l.83-.36-.47,1.19-.36-.83ZM138.96,71.81c0,1.32-.5,2.29-1.37,3.25l-.13-.17,1.51-3.08ZM128.87,79.52c.07,1.27-.9,2.27-1.68,3.21l-.13-.17,1.81-3.04ZM124.53,83.94l.13.17-.6,1.01.47-1.19ZM123.06,85.62l.13.17-1.26,1.24,1.12-1.41ZM41.63,148.16l.35-.27.27.35-.62-.08ZM136.94,76.39l.13.17-.64,1.32-.13-.17.64-1.32ZM42.08,149.47l.35-.27.27.35-.35.27-.27-.35ZM46.87,149.96l.36.83.65-.22-1.01-.61ZM48.53,149.24l-.56.71.88.43.17-.13.26-.75-.75-.26ZM133.18,84.8l.19.96-.5.17.32-1.13ZM131.62,87.09l.17-.13.79-.05.13-.46c-.07.86-.66,1.52-1.43,2l-.13-.17.47-1.19ZM130.59,88.98l.52-.4-.3,1.05-.13-.17-.09-.48ZM149.81,74.83l.71.56-.96.18.66-.22-.4-.52ZM130.29,90.03l-.99,1.59-.13-.17,1.13-1.41ZM127.91,92.69l.7-.53.36.83-.17.13-.88-.43ZM122.65,96.87c.54-.41,1.19-.47,1.96-.56l.13.17-2.62.9c.17-.21.34-.38.52-.51h0ZM126.49,95.15l.13.17-.87.67.74-.84ZM155.16,78.22l.71.56h-1.1s.39-.56.39-.56ZM156.48,78.14h.1c-.06.11-.24.1-.1,0ZM155.54,80.15l.79-.05.13.17-.92-.12ZM159.32,77.53l.4.52-.66.22.26-.75ZM173.54,66.93l.13.17-1.04.8.91-.97ZM177.43,64.79l-.74.84c.88.6,1.47-.05.74-.84ZM159.16,79.12c.13-.1.1.06-.01.1v-.1ZM160.77,78.34l.35-.27.26.35-.61-.08ZM165.04,75.63l.7-.53.22.66-.92-.12ZM173.08,69.58h.1c-.06.11-.24.1-.1,0ZM166.43,74.94c.13-.1.1.06-.01.1v-.1ZM167.13,74.4c.13-.1.1.06-.01.1v-.1ZM176.62,67.34l.27.35.35-.27-.27-.35-.35.27ZM161.19,79.96l.13.17,1-.49-.13-.17-1,.49ZM175.11,69.32l.27.35.7-.53-.27-.35-.7.53ZM170.68,73.26l-.64,1.32.13.17,1.22-.93-.71-.56h0ZM174.52,71.44l.13.17.91-.97-1.04.8Z"/>
</svg>