<?xml version="1.0" encoding="UTF-8"?>
<svg id="Layer_1" data-name="Layer 1" xmlns="http://www.w3.org/2000/svg" viewBox="0 0 180 180">
  <defs>
    <style>
      .cls-1 {
        fill: #1e6de0;
      }
    </style>
  </defs>
  <path class="cls-1" d="M55.57,108.52l3.02-.48c-1.02-.05-2.3-.33-3.02.48Z"/>
  <path class="cls-1" d="M58.97,108.56l2.29-.13c-.63-.44-1.87-.6-2.29.13Z"/>
  <path class="cls-1" d="M126.81,117.6l.35.73-.83,1.02.22.03-.16-.48.22.03,6.06,2,.22.03,4.41.83,10.43,3.11.64-1.27-8.79-3.53-3.01-1.11-9.77-1.4Z"/>
  <path class="cls-1" d="M160.89,118.62l-.7.13-.03.22.92-.09-.19-.26Z"/>
  <path class="cls-1" d="M136.68,115.15l-.03.22,2.06-.16-2.03-.07Z"/>
  <path class="cls-1" d="M147.88,116.08l-.03.22.67.1-.63-.32Z"/>
  <path class="cls-1" d="M144.55,115.6l-.03.22.67.1-.63-.32Z"/>
  <path class="cls-1" d="M141.18,115.35l-.03.22.92-.09-.89-.13Z"/>
  <path class="cls-1" d="M139.18,115.06l-.03.22,1.36-.03-1.33-.19Z"/>
  <path class="cls-1" d="M152.13,116.46l.1.92.7-.13.03-.22-.83-.57Z"/>
  <path class="cls-1" d="M144.29,114.2l-.03.22,5.81.6-5.77-.83Z"/>
  <path class="cls-1" d="M135.73,113.88l-.03.22,8.12.26c-1.73-1.58-5.98-.93-8.09-.48Z"/>
  <path class="cls-1" d="M133.76,111.81l-.06.44c1.9.97,3.97.61,6.02.68,2.43.09,4.93.66,7.34,1.01,1.38.2,3.8.37,4.79,1.37l-1.52-.45-.06.44,6.19,1.12-.03.22-.48.16.63.32-.16-.48.38.51.22.03c1.58-.84,6.75.91,7.07,2.83l.63.32c-1,2.03-1.07,3.49-3.9,3.52-.19.75-.57.59-1.17.28l-.38,1.08-.57-.76-.22-.03c-.7,1.32-2.21,1.55-3.59,1.3l-2.44,1.24-1.02-.83-.22-.03-.13.89-.22-.03.1-.67-1.87.41.13.7c-4.96-.6-10.81.88-15.82,1.22-1.8.12-3.7.65-5.45.04-1.03.58-2.3.29-3.45.32-2.73.09-5.44.15-8.17.09-9.62-.22-19.45-.38-28.92-2.26-2.78-.55-5.68-.27-8.47-.97-.75-.19-1.87-.12-2.39-.69-.82.21-1.37.33-2-.29l-.22-.03-.22-.03-.06.45c-1.51-.63-4.21-1.47-5.77-.83l-.79-.8c-.1.67-.42.31-.67-.1l-.22-.03c-1.11.33-2.6.18-3.55-.51l-.32.64-4.6-1.11-.22-.03.06-.44-.22-.03c-.44.55-.9.47-.67-.1l-4.89-.7.03-.22.48-.16-3.55-.51-.13-.7-.51.38c-.65-.57-1.59-.88-2.41-.57-.82-.88-3.4-2.01-4.54-1.56l-.22-.03-2.19-1.01-4.19-1.94-.19-1.84c1.3.07,5.62-1.21,6.44-2.25,1.34.19,4.24-.3,5.17-1.3l2.09-.38c1.72.54,4.95-.07,6.66-.63l.03-.22-1.84.19,4.03-1.24,3.55.51-.35-.73,1.11.16,1.02-.76-.13-.7-6.6-.99-1.9.21c-1.89-.75-8.16-.92-9.62.66-1.01-.52-4.22-.29-4.66.92l-.63-.32-.06.44c-.7-.29-1.85-.48-2.09.38-2.94-.36-8.97,1.57-9.29,5.02-.25,2.73,1.37,4.42,2.14,6.88l.48-.16.22.03-.32.63.86.35-.32.63c1.84,1.75,5.14,4.23,7.84,3.84.4,1.28,1.37,1.81,2.26,2.73,1.85,1.9,3.62,5.75,6.14,6.64.07,1,.85,1.52,1.81,1.62l.7,1.46c1.2.43,1.6,1.09,2.89.41.04,1.76,3.19,2.77,4.66,2.25.06.91.73.92,1.49.67,0,1.24,1.88,1.23,2.79,1.08l-.1.67.51-.38.22.03c.28,1.2,6.08,1.47,5.9,1.53l-.03.22,3.4.03,3.97.79.22.03c1.93-.68,5.48,1.97,7.17.57l.22.03.22.03,3.12.4,7.32,1.1,2.01.18,6.11.08-.29.41.22.03,1.87-.41c.46.57,2.4.43,2.95-.03l.22.03,4.22.6,4.33-.17,10.68-.17-.16-.48c2.4.19,5.21-.32,7.58-.69.83-.13,2.14-.17,2.42-1.05l.86.35,1.3-1.17c.83.19,1.34,0,1.9-.63l6.13-1.62,2.6-2.35.38.51,1.4-1.84,1.17-.28-.7.13.03-.22,2-1.3-.13-.7.7-.13c-.03-.61.02-.81.54-.6l.16-1.11.86-1.24.6.54.57-.82-.7.13.03-.22,1.71-.89-.1-.92,1.65-.44c1.42.2,4.15-1.14,5.08-2.22.79.07,1.08-.19,1.27-.95.76-.04,1.94-.49,1.3-1.17,2.4-.84,3.98-4.24,3.21-6.57l-.48.16c-.94-3.03-5.51-4.03-8.22-4.62-5.14-1.12-10.23-2.05-15.42-2.85-3.89-.6-7.9-1.35-11.61.38M154.07,115.6l-.03.22-1.97-.51c.77-.42,1.3-.18,2,.29ZM156.51,115.95l-.03.22-2-.29.06-.44,1.97.51ZM158.29,116.21l.16.48-.44-.06.29-.41ZM160.44,116.97l-.03.22-1.52-.44,1.56.22ZM167.52,118.21l-.06.45-.44-.06.06-.45.44.06ZM55.86,106.52l-.13.89-.22-.03.35-.86ZM52.97,107.7l-.06.44-.7.13-.13-.7.25-.19.63.32ZM50.72,107.6l.32.95-.22-.03-.1-.92ZM48.55,108.5c.17.02.02.11-.08.06l.08-.06ZM46.94,108.65l-.03.22-.92.09.95-.32ZM42.65,108.49l-.03.22-1.11-.16,1.14-.06ZM163.95,125.73l.06.08c-.12.03-.24-.11-.06-.08ZM45.48,109.35l-.67-.1.29-.41.38.51ZM34.84,107.68c.17.02.02.11-.08.06l.08-.06ZM40.81,108.69l-.06.44-.44-.06.06-.44.44.06ZM44.59,109.23l-.32.63-1.4.25-.22-.03-.35-.73.95-.32,1.33.19ZM162.75,126.16l-.03.22-.98.54c-.06-.7.39-.75,1.02-.76ZM38.01,109.27c.17.02.02.11-.08.06l.08-.06ZM41.57,109.71l-.1.67-1.27.95-.22-.03-.13-.7.03-.22.29-.41.67.1-.16-.48.89.13ZM158.5,127.37l.13.7-1.65.44c-.06-.88.79-1,1.52-1.14ZM160.69,127.91l-.35.86-.86-.35.03-.22,1.17-.28ZM159.23,128.61l-.1.67-.44-.06.1-.67.44.06ZM36.37,111.23l-.03.22-.03.22-.67-.1.73-.35ZM158.5,128.96l-.03.22-1.43.47.29-.41-.22-.03-.51.38-.19-.25,1.14-.06.32-.63.63.32ZM149.11,129.66l-.03.22-.51.38-.41-.29-.98.54.1-.67,1.84-.19ZM145.87,130.1c-.93,1.1-2.83,1.02-4.18,1.12-3.22.24-6.46.82-9.68.82-1.16,0-2.32.34-3.41-.11l5.07-.6,12.19-1.23ZM154.9,131.93c.17.02.02.11-.08.06l.08-.06ZM147.3,131.22l-1.71.89.03-.22,1.68-.66ZM144.06,131.66c-1.43,2.19-5.51,1.2-7.78,2.06l5.97-.51-3.84,3.08c-1.53-.02-3.55,1.39-5.04,1.91-3.21,1.12-6.94,1.92-10.31,2.39-1.18.17-4.36.99-5.21,0l-.22-.03-2.9.02-8.43-.06.06-.44-.63-.32-.22-.03-1.14.06-.73.35.29-.41-.76.57-.89-.13c-.23-.42-1.18-.88-1.11-.16l-5.52-1.02c-1.86.82-5.59-.39-7.61-.64l.1-.67-.32.63-3.05-.89-7.61-.64-2.43-.48-5.03-1.27.35.73-1.21-1.08c-1,.05-4.32-.34-4.31-1.52l-1.27-.63-.22-.03-2-.29-1.43-1.11-.22-.03-.51.38.1-.67-.86-.35-.03.22.38.51-2.06-1.43-.7.13.79-.79c.74.61,1.5,1.03,2.41.57l.89.13c-.11.79.77.17,1.33.19.9,1.06,3.61,1.13,4.89.7-.26.74.27.5.22.03l.35.73,1.11.16.32-.63.38.51c.66-.12,1.49.67,1.4-.25,1.35.34,3.46.94,4.73.22l-4.25-.38-2.45-.84-6.6-.84-2.4-.65-.95.32.22-1.55,2,.29.22.03c.31.66.63.65,1.3.41l2.67.38-.29.41.22.03.86.35-.09-.92,1.33.19.35.73.1-.67,1.97.51.6.54-.13-.7,1.11.16-.32.63,1.17-.28.03-.22,1.02.83.22.03.76-.57.22.03.16.48.22.03c1.56-.78,5.43.11,6.89.99,1.08-.92,5.18.07,6.22.89l.32-.63.38.51.22.03,3.65-.16.57.76c.38-1.21,3.12-.25,3.14.22,2.13-.75,4.62-.03,6.81.06,4.56.19,9.2.4,13.76.33,2.01-.03,5.27-.83,6.97.38.19-.63.71-.42,1.14-.07.91-1.05,3.93-.59,5.31-.66,4.92-.25,10-1.4,14.91-1.2ZM145.71,132.81l-.03.22-2.76,1.87-.22-.03,1.91-2.22,1.11.16ZM128.13,132.1l-.03.22-6.31-.23-2.31.34h-6.35s.06-.43.06-.43l9.76-.06,5.19.16ZM31.48,118.48l-.03.22-.7.13.73-.35ZM132.12,134.27l.63.32.22.03.98-.54-1.84.19ZM131.74,133.76l-3.97.79c.8.02,4.21.3,3.97-.79ZM32.43,119.75l.13.7-.67-.1.54-.6ZM36.42,121.92l-.35.86-1.68-.92.32-.63-2.03-.06c.84-1.6,2.61.57,3.74.76ZM127.43,133.83l-5.81.98c1.07.11,5.94.46,5.81-.98ZM112.96,131.98c-1.12,1.18-4.65.45-6.16.25l6.16-.25ZM32.52,120.68l-.1.67-.22-.03.32-.63ZM106.61,131.98l-3.43.18-8.31-.5c3.31-1.04,8.26.26,11.74.32ZM37.85,123.03l-.92.09.13-.89.79.79ZM105.82,134.36l-.03.22,1.71.7,1.21-.51.6.54.03-.22-.44-.06.03-.22,1.81.03-.06.45,10.5-.54-4.5-.26-10.86-.13ZM39.21,123l-.54.6.1-.67.44.06ZM89.79,130.7l-.03.22h-1.59s.03-.22.03-.22h1.59ZM87.98,130.67l-.03.22-1.11-.16,1.14-.07ZM65.29,127.72c.17.02.02.11-.08.06l.08-.06ZM70.62,128.49c.17.02.02.11-.08.06l.08-.06ZM72.4,128.67l-.03.22-.89-.13.92-.09ZM80.18,129.78l-.03.22-.67-.1.7-.13ZM80.61,129.92l.06.08c-.12.03-.24-.11-.06-.08ZM83.07,130.2l-.03.22-1.78-.25,1.81.03ZM52.89,127.23l.67.1,1.21-.51-.32.63,1.08.38.1-.67.7-.13,1.14,1.52-5.08-.96.06-.44-.48.16.13-.89-.7.13c.7-.59,1.19-.04,1.49.66ZM40.77,124.82l-.13.89-.63-.32.76-.57ZM41.43,124.91l1.59,1.59-.41,1.3-.22-.03-.95-2.86ZM95.22,133.98l-.03.22,7.4.43,2.57-.36-9.93-.29ZM87.82,133.38l1.78.25,2.82.86c.13-.93,1.35-.13,1.78.25l.79-.79-4.92-.48.29-.41-2.54.32ZM84.78,132.49l-.6,1.05c.9.04,1.41.04,1.71-.89l-1.11-.16ZM86.33,132.71c-.19.76-.01,1,.73,1.24l.32-.64-1.05-.6ZM76.08,131.47l-.1.67c.81.2,1.57.69,2.06-.16l-1.97-.51ZM78.46,132.26c.97.77,4.71,1.32,5.62.35l-5.62-.35ZM74.72,131.5l.13.7.98-.54-1.11-.16ZM140.84,141.43l-.03.22-.92.1.95-.32ZM44.98,128.61l-.6,1.05-.22-.03.38-1.08.44.06ZM60.25,131.25l-.06.45.44.06.06-.45-.44-.06ZM46.7,130.89l.16.48-.44-.06.29-.41ZM45.93,131.47l.06,1.14-.22-.03-.63-.32.79-.79ZM47.05,131.63l.38.51-.16-.48.22.03c.44.39,1.77,2.34,1.65,1.14.49.46.64.95.03,1.36l-.03.22.6.54.16-1.11.22.03-.22,1.55-.92.09.16-1.11-1.14-1.52-.48.16-.13-.7-.89-.13.54-.61ZM50.52,134.25c.17.02.02.11-.08.06l.08-.06ZM113.55,143.66l-.06.44-1.3-.41,1.36-.03ZM115.55,143.94l-.29.41-.22-.03-.16-.48.67.1ZM51.33,134.97l.13.7,1.21-.51-.22,1.55-.63-.32.35-.86-.22-.03-.57.82c-.4-.56-.47-.82-.03-1.36ZM112.15,143.91l-.03.22-6.03-.64.03-.22,1.81.03.22.03.16.48c1.11-.55,2.7-.31,3.84.1ZM55.8,136.97l.7-.13-.38,1.08.22.03.95-.32.03-.22-.38-.51c.97.31,3.76,1.81,3.9,2.83l.22.03c.59-.81,1.92-.38,2.73-.06l-.48.16-.03.22c1.48.02,5.27.07,6.16,1.34l.92-.1.13.7,1.11.16.32-.63.92-.09.28,1.17-2.51.09-.13-.7-5.16-.34-3.09-.62-2.16-.76.29-.41-.7.13-1.36-1.56c-.98.4-2.62-.32-2.98-1.33l-.22-.03-.51.38.29-.41-.22-.03c-.86.4-1.55-.13-1.9-.95l2.38.79c.09-.68.62-.59.67.1ZM102.73,143.24l-.32.63-1.3-.42,1.62-.22ZM106.72,143.89c.17.02.02.11-.09.06l.09-.06ZM116.28,145.18l-.03.22-2.57.54.13-.89,2.48.13ZM92.57,142.92l-3.49-.95c-2.27.49-4.72-.03-6.95-.54l.06-.44,4.16,1.05.32-.63c1.46.33,5.26.02,5.9,1.53ZM93.11,142.32l1.94.73.22.03,2.06-.16-.03.22c-.73.09-4.56.34-4.19-.83ZM98.64,143.34l-.95.32c.23-.61.38-.59.95-.32ZM113.45,145.92l-1.08-.38-.32.63-1.81-.03-.22-.03-.16-.48-.73.35.16-1.11c1.39.43,3.23-.26,4.16,1.05ZM67.98,138.95c-.93,1.06-2.94.16-4.03-.35l4.03.35ZM69.09,139.11l-.1.67-.35-.73.44.06ZM69.98,139.23l-.06.44-.38-.51.44.06ZM72.64,139.69l.06.09c-.12.03-.24-.11-.06-.09ZM79.09,140.54l-.98.54.32-.63.67.1ZM50.85,136.72l.41.29-.03.22-.86-.35.48-.16ZM108.82,145.03l.19.25c-.75,1-1.81.73-2.73.06l-.06.44-.54-.98.82.57.51-.38,1.81.03ZM102.28,144.77l.76,1.02-.92.1.16-1.11ZM101.68,145.82l-1.68-.92c.83-.11,1.55,0,1.68.92ZM90.38,143.98c.58-.78,4.85.21,5.33.76l1.78.25c-.77.85-2.35.34-3.42.14-2.72-.5-5.68-.71-8.48-.94l-.13-.7-.22-.03-.1.67-.6-.54-.32.63-1.71-.7.03-.22.32-.63,1.05.6.22.03.22.03.06-.44,5.97,1.08ZM99.87,145.79l-2.22-.32.1-.67c.94.09,1.77-.09,2.13.98ZM76.58,142.23l.22.03,2.06-.16-.19,1.33-4.44-.64c.62-.47,1.75-1.37,2.35-.57ZM80.2,142.29l2.13.98-.35.86-.38-.51c-.73.24-1.05.2-1.08-.38h-1.59s1.27-.95,1.27-.95ZM74.38,141.76l.06.09c-.12.03-.24-.11-.06-.09ZM64.36,140.48l-.1.67.22.03-.13-.7ZM73.92,141.85l-.35.86-.22-.03.57-.83ZM96.06,145.48l-.1.67-.22-.03.32-.63ZM60.23,140.88c.17.02.02.11-.08.06l.08-.06Z"/>
  <path class="cls-1" d="M143.45,91.62l.92-.09.76-.57-.28-1.17.7-.13c-.92-.71-1.55,1.29-2.1,1.97Z"/>
  <path class="cls-1" d="M147.87,81.37l.28,1.17.92-.09.03-.22-.89-.13.1-.67-.44-.06Z"/>
  <path class="cls-1" d="M138.64,42.96l.6.54.03-.22-.63-.32Z"/>
  <path class="cls-1" d="M114.43,39.5l-.32.64c-.91-.33-1.44-.41-2.09.38l4.51.19.03-.22-.38-.51-1.3-.41-.44-.06Z"/>
  <path class="cls-1" d="M137.78,42.61l-.1.67.67.1.1-.67-.67-.1Z"/>
  <path class="cls-1" d="M118.23,39.82l-1.62.22c.66.92,2.17,1.05,2.92.19l-1.3-.41Z"/>
  <path class="cls-1" d="M128.26,41.02l-.32.63.22.03.1-.67Z"/>
  <path class="cls-1" d="M132.93,41.69l1.24.86-.32-.95-.92.09Z"/>
  <path class="cls-1" d="M131.18,41.21l-.03.22,1.49.67-1.46-.89Z"/>
  <path class="cls-1" d="M123.88,39.94l-1.65.44-2.19-.54c.22,1.25,2.04,1.48,2.86.64l2.38.79-.16-.48.22.03,2.16.76-.09-.92-2.22-.32-1.3-.41Z"/>
  <path class="cls-1" d="M127.47,35.46c-3.62,1.25-8.53-1.45-12.38-.64l.29-.41c-2.19.4-7.43.2-8.79-.35l.16.48-.38-.51c-1.63-.11-4.35-.62-5.71.31l-.22-.03c-.43-.48-2.98-.61-3.39-.03l-1.37.03-4.59.39-8.88.27-3.95.7c-1.23-.85-7.41.35-7.62.95-.6-.29-1.69-.18-2.09.38l-3.65.16-1.97,1.08-.63-.32-4,1.01-.1.67c-.99-.6-1.72-.17-2.75.19-2.1.74-6.77,2.08-6.81,4.79-.88.01-.95,2.06-.98,2.82-.11,2.96-.92,5.78-.45,8.76-1.22-1.11-2.62-2.74-4.35-2.89-.57-1.29-2.53-1.91-3.78-2.38-2.94-1.1-5.46-2.36-8.67-2.54-1.1-.06-3.13-.29-3.93.53-1.07-.27-2.5.38-3.52.81-2.68,1.14-5.27,2.06-7.52,4-.76.66-2.28,3.36-3.06,3.36l-.25.19-.22,1.55c-.84.37-1.15,1.11-.73,1.94-.75.56-1.7,2.72-.45,3.11l-.03.22c-.73.41-.39,2.1.35,2.32l.48,1.43c-.19,2.61,2.4,3.97,3.2,6.13,1.2.44,2.64,1.89,2.95,3.14l1.97.51-.13.89.7-.13,3.24,2.73c.48-.03,1.77-.02,1.49.67l.7-.13.41.29,2.11,1.37,7.06,2.66.73-.35,1.87,1.17c1.34-.47,4.4,1.23,5.9,1.52,2.19.42,4.25.88,6.49.85,1.37-.02,2.97-.57,4.25.18,2.05,1.2,3.28,4.81,4.46,6.82l.73-.35c.13,1.06.24,1.76,1.27,2.22-.02.65.14.72.79.79-.2,1.26.94,2.22,1.84,3,2.16,1.88,4.14,3.31,6.89,4.15l-.54.6.48-.16-.32.63.44.06c-.41.98-1.07,3.37-.38,4.25-.68.65-.33,1.8-1.25,2.18-3.27,1.35-9.66-.8-12.08,2.25l-2.41,1.01-.64,1.27,3.01,1.11,1.4-.25-.32.63,1.14-.06-.6-.54c.75.11,1.55.75,1.84-.19,1.81.94,6.09-.3,8.23-.33.87-.01,2.22.32,2.56-.62,1.02.72,3.36.18,3.36,1.84l1.02.83,8.66,2.83-.16-.48.22.03,3.46,1.18,3.4.03-.06.44c2.35-.48,5.26.08,7.69.12,7.23.13,15.64.97,22.33-2.39l-.06-1.14-2.79.51.03-.22,2.82-.73-.06-2.73c-3.53.32-7.03,1.25-10.6,1.38-6.31.23-13.05-.74-19.25-1.75-3.21-.53-8.91-1.15-11.3-3.49l-.89-.13.29-.41-.86-.35.13.7-.6-2.13,1.11.16-.32-.95,1.43,1.11.32-.63.79.79,1.17-.28-.1.67.95-.32.22.03-.06.44.22.03,7.84.67.57.76.03-.22-.44-.06.03-.22c4.67.67,10.71-.83,15.01,1.24l2.51-.09.06-.44,4.47.41.32-.63,6.12-.03.22.03,7.14-3.96,6.83-6.5,1.87-2,.22.03,3.11-5.9,1.02.83-.03.22-.67,1.49.22.03.19-1.33,1.49-.92-1.08-.38.1-.67-.54.6-.22-.03.38-1.08,1.65,1.14-.13-.7c1.1-.07,1.42-1.56,1.71-2.47-1.1.19-1.24,1.07-1.43,2.06l-.92.09.03-1.81,2.67-4.38c.32-1.1.98-1.5,2.06-1.74l-.13.89-.63-.32.92,1.49.67-1.49-.13-.7,2.16-4-.92.09.38.51-1.33-.19.06,1.14-1.11-.16.54-.6.64-1.27-.19-.25-.29.41-.22-.03.54-.6,1.11-1.43.03-.22c-.56-.74-.3-1.59.41-1.3l.51-.38.13-.89c.29,1.09-.17,1.53-.79,2.38l.73-.35-.6,1.05-.03.22,1.08.38.79-2.38.35-.86c1.07-.54,1.11-2.14,1.44-3.19.85-2.73,1.94-5.67,2.28-8.52.12-1.05.36-2.47-.44-3.24l.13-.89.03-.22c.74-.18.47-1.28.1-.67l-.22-.03c.36-2.32,1.38-5.86-.69-7.81-.14,2.23.27,4.56.19,6.83-.03,1,.19,2.45-.9,2.82l.54-3.77.1-2.25-.89-4.89-.22-.03.79-.79c-.22-1.23-.56-1.9-1.68-2.51l-.41,1.3-.63-.32-.73,1.93-1.24-.86-.98.54.32-.63c-.42.12-1.03.54-.32.63l-.98.54-.6-.54-.16,1.11-.83-.57-.35.86-.28-1.17-.48,1.75-2.86-.64-.03.22.89.13-.03.22-1.3-.41c-.1.69-.61.24-1.14.06l-1.9.63c-.71-.32-1.21-.63-1.81-.03l-1.75-.48-1.14.06-4.32.06-.03.22.44.06-.03.22-.6-.54-5.65-.13-.1.67-2.92-.19c-.33-.89-2.19-.77-2.51.09l-1.55-.22-1.05-.6-2.7-.16-1.65.44-.22-.03c-.62-.95-3.85-1.2-4.7-.45l-.22-.03-.22-.03c-.06-1.13-2.13-.39-2.89-.41-.76-.02-1.47-.17-2.73.06-.7.13-1.16-.81-1.93-.73-.58.06-2.2.16-2.28.13-.88-.33-2.25.34-2-.29l-1.62.22c-.59-.29-.7-.52-.92.1l-.44-.06.06-.44-1.17.28-.67-.1.29-.41-.73.35-5.3-.99h-3.17c-1.15-.98-4.93-1.14-6.44-.92l-3.49-.95-2.92-.21-7.21-1.92c2.64-1.78,8.05-.81,10-3.33l.86.35.03-.22-.44-.06.03-.22c1.85.58,4.01.05,5.91-.14,4.23-.44,9.46-.24,13.41-1.85.02.79,1.07.15,1.59,0l-.13-.7-1.43.48-3.33-.48,1.62-.22.13-.89,1.49.67-.13-.7.6.54c1.23-.27,4.36.28,4.89-.89l.22.03c.62.74,1.92.61,2.51-.09l.44.06.82.57-.13-.7.73,1.24-2.67-.38-2.54.32-.32.63c-.82-.28-1.93-.07-2.57.54l1.11.16,4.11-.19,10.37-.25,4.69-.45.22.03.38.51c.16-1.77-4.02-1.56-4.89-.7l-.73-1.24,1.97.51,1.02-.76.82.57.1-.67.22.03.57.76,1.02-.76.22.03c.24.53.7.8.89.13l1.81.03,5.11.73.22.03.67.1.22.03-.13-.7.79.79.22.03,1.81.03c.78-.84,2,.02,2.89.41.65-.43.93-.19,1.55.22l.32-.63.38.51.22.03c.6-.26,1.52-.43,1.52.45l1.21-.51.22.03-.06.44.22.03,2.19.54.22.03,5.52,1.02,3.08.67,3.18,1.55,4.31,3.15-.41-1.87.44.06c-.02,2,1.11,1.79,2.6,2.41-.22-1.3-1.08-3.32-2.41-3.75l.32-.63-1.05-.6c.12-1.2-.77-1.53-1.84-1.4l-2.7-1.75c-.1.69-.81.34-1.4.25l.1-.67-1.55-.22-.89-.13-.82-.57.13.7-.35-.73-7.89-1.9-5.03-1.3ZM149.62,42.26l-.32.64-.35-.73.67.1ZM105.07,38.38l.29,1.17-1.49-.67,1.33.19-.13-.7ZM103.16,39.02l-2.22,1.27-.22-.03c.12-.82-1.31-.68-1.94-.73l1.17-.28.06-.44,1.05.6,2.09-.38ZM92.66,37.97l-.03.22-.7.13.73-.35ZM92.52,38.93l.06.09c-.12.03-.24-.11-.06-.09ZM84.44,39.97l.19.26-.03.22-.25.19-.22-.03-.19-.26.03-.22.48-.16ZM151.73,49.69l.06.09c-.12.03-.24-.11-.06-.09ZM82.85,39.97l.89.13c-.37.31-1.03.63-.89-.13ZM81.64,40.48l-.06.45-.38-.51.44.06ZM71.08,39.87l-.03.22-.92.09.95-.32ZM75.52,40.51l.13.7-.22-.03-.22-.03.32-.63ZM76.63,40.67l.13.7-.67-.1.54-.6ZM150.37,51.24l-.51.38.06-.44.44.06ZM74.6,40.61l.35.73-.98.54-2-.29c-1.03,1.12-5.43,1.4-7.01,1.49l.35-.86,2.73-.06-.13-.7.95-.32.22.03-.06.44.44.06-.16-.48.22.03.89.13.32-.63,1.14-.06-.54.6.98-.54,1.02.83,1.27-.95ZM69.68,40.13l-.03.22-.89-.13.92-.09ZM68.54,40.19l-.32.63-.63-.32.95-.32ZM67.36,40.48l-.03.22-.7.13.73-.35ZM57.08,39.46l-.73.35.03-.22.7-.13ZM65.71,40.95l-.03.22-.03.22-1.14.06,1.21-.51ZM152.08,53.56l-.06.44-.44-.06.51-.38ZM67.41,41.72c.17.02.02.11-.08.06l.08-.06ZM66.71,41.85c.17.02.02.11-.08.06l.08-.06ZM62.41,43.43l-.06.44-.44-.06.51-.38ZM148.24,56.64l-1.21.51.03-.22,1.17-.29ZM126.44,53.75l-.03.22-.89-.13.92-.09ZM117.87,53.43l-.03.22-.67-.1.7-.13ZM145.95,58.36l1.05.6c-.4.8-.86.73-1.65.44l.16.48-1.43.48.57-.82-.73.35-.19-.26,1.36-.03.86-1.24ZM147.05,58.59l.06.09c-.12.03-.24-.11-.06-.09ZM142.93,60.42l-.48.16-.22-.03-1.97-.51c.39-1.06,2.42-.66,2.67.38ZM138.81,59.15l.79.79-.03.22-.03.22-1.55-.22.1-.67.73-.35ZM137.76,60.14l-.03.22-1.37.03.35-.86,1.05.6ZM143.59,73.22c-.8-.12-.76,1.06-.96,1.68-.54,1.7-1.65,3.2-2.21,4.9-1.66,4.99-4.08,9.82-7.09,14.17-.84,1.21-2.52,3.89-3.96,4.19-.27.89-.82,1.48-1.78,1.33l.06,1.14c-3.49,1.96-6.23,6.09-9.94,7.55-1.04.41-2.33-.05-3.44.19-1.58.35-4.21,1.07-5.63-.04l-.22-.03c-.77.43-3.28.43-3.81-.32l-1.11-.16-.89-.13-.22-.03-.22-.03-.06.44-.22-.03-.22-.03-.38-.51c-.09.66-2.05.32-2.48-.13h-4.76s-7.58-.86-7.58-.86c-.97.69-3.83-.06-4.92-.48l-.32.63-.22-.03.1-.67-1.74-.48.16.48-3.81-1.91.03-.22.48-.16c-.8-.76-.76-2.36-2.19-2.13-.36-.95-.83-1.36-1.81-1.62l-.03.22.73,1.24.82.57c.81-.02,1.16.12,1.46.89l-1.05-.6-.1.67-2.32-1.24-.09-.92-.7.13-.28-1.17-.92.09-.06-1.14.89.13c-.44-.57-.75-1.28-1.46-.89l-.19-.25.48-.16-2.38-2.38-1.27-2.22c.03-1.29-1.03-2.59-1.57-3.74-1.34-2.83-2.99-5.43-4.06-8.4-1.89-5.25-2.38-11.3-3.31-16.79-.7-4.12-2.12-8.53-1.86-12.73l5.39,1.91.22.03,1.05.6-.03.22-.63-.32.83.57-1.11,1.43c7.71,2.54,16.69,3.52,24.8,4.12,2.05.16,6.73,1.42,8.36.17l2.25.1.79.79.1-.67c.74.2,2.14,1.26,2.48.13l1.55.22-.03.22-.89-.13-.03.22c1.87.27,6.27,1.13,7.9.23l.22.03c.55.49,1.21.61,1.14-.06l.67.1.38.51.35-.86.22.03.32.95,1.21-.51.35.73.76-.57c.74.4,1.11.56,1.81.03l2.44.35,2.44.35.98-.54-.03.22-.67-.1-.03.22,2.54-.32,7.87.45.54-.6.22.03.13.7.32-.64.38.51.22.03,8.47-.44,3.05-.85.22.03.38.51-.16-.48.19.26c2.56-1.19,1.88,1.53,1.59,2.96-.63,3.11-3.11,5.75-2.87,9.1ZM141.11,60.47l.06.09c-.12.03-.24-.11-.06-.09ZM135.51,60.05l-2.09.38.03-.22.76-.57,1.3.41ZM132.37,59.83l-1.56,1.36-.82-.57-.32.63-.6-.54-.22-.03-.22-.03c-.72.71-2.97.77-3.91.41-.75-.29-1.28-1.04-.47-1.49l-.03.22-.48.16,1.43,1.11-.32-.95.22.03.57.76-.09-.92,1.11.16-.6-.54.7-.13.13.7,1.4-.25-.16-.48c.88,0,1.35.06,1.68.92l.92-.1-.13-.7.25-.19,1.52.44ZM153.15,63.49c.06.79-.06,1.09-.86,1.24l.16-1.11.25-.19.44.07ZM120.66,59.28l.57.76-.13-.7,2.35,1.02.32.95-1.3-.41-.89-.13-.73.35-.13-.7-1.43.48-.25-1.4,1.62-.22ZM116.6,59.15l.82.57c.98-.74,1.36.79,1.36,1.55l-.57-.76-.22-.03-.89-.13-.76.57-.09-.92-.22-.03-1.97,1.08-.13-.7c-.73.05-1.84-.49-2.09.38l-1.02-.83-.32.63-.22-.03-.16-.48-1.4.25-.13-.7-.92.09-.03.22.41.29-.7.13-.13-.7-.22-.03-.79.79-.76-1.02.32.95-1.14.06-.76-1.02,2.03.06-.13-.7c1.11.11,2.14.99,3.14.22l.22.03.76,1.02.22.03c.57-.7,1.57-1.06,1.62-.22l.22.03.79-.79-.57.82,1.24-.73,1.05.6.32-.63.22.03.73,1.24.86-1.24ZM102.44,58.26c.97.32,1.24.87,1.55,1.81l-1.46-.89.35.73-2.22-.32.41-1.3,1.05.6.25-.19.06-.44ZM153.08,65.52l-.79.79.03-.22.1-.67.67.1ZM50.44,51.03l-.06.44-.44-.06.51-.38ZM99.04,58.3l.06.09c-.12.03-.24-.11-.06-.09ZM112.34,60.36l.44.06-.03.22-.03.22-.63-.32.25-.19ZM35.24,49.54l-.51.38.06-.44.44.06ZM89.21,57.27l.06,1.14-1.05-.6.03-.22.95-.32ZM97.43,58.45l.63.32-.03.22c-.69.19-.94.22-1.3-.42l.7-.13ZM98.98,58.67l.09.92-.79-.79.7-.13ZM99.87,58.8l-.1.67-.22-.03-.13-.7.44.06ZM85.62,56.99l1.3.41.6.54-.03.22-.89-.13-.32.63c-.56-.5-.93-.94-.67-1.68ZM92.95,58.04l-.1.67-.22-.03.32-.63ZM94.73,58.29l.63.32-.79.79.16-1.11ZM152.7,66.6l-.03.22-.67-.1.7-.13ZM63.13,54.22l-.79.79-.51-1.21,1.3.41ZM80.48,56.48l.25,1.4c-.57-.45-.68-.78-.25-1.4ZM83.37,56.89l.7,1.46-.6-.54-.1.67-.22-.03-1.08-.38-.09-.92.95-.32.44.07ZM96.48,58.77l-.06.44-.44-.06.06-.44.44.06ZM64.01,54.35l.92,1.49-1.05-.6.13-.89ZM66.01,54.63l.06,1.14-.89-.13.83-1.01ZM68.68,55.01l-.35.86-.22-.03.57-.82ZM71.79,55.46v1.59s-.32-.95-.32-.95l-1.17.28,1.05-.98.44.06ZM74.9,55.91l-.1.67-.22-.03.32-.63ZM79.34,56.54l.09.92-.22-.03.13-.89ZM55.76,53.39l-.1.67.76-.57-.67-.1ZM85.08,57.59l.16.48-.44-.06.29-.41ZM93.29,58.85l.06.09c-.12.03-.23-.11-.06-.09ZM100.19,59.76l-.03.22-.67-.1.7-.13ZM58.4,54l-.1.67-1.08-.38-.03.22,1.11.16.22.03.16.48.6-1.05-.89-.13ZM59.48,54.38l.51,1.21.73-.35.06-.44-1.3-.41ZM63.73,54.76l-.1.67-.22-.03.32-.63ZM72.6,56.11c.17.02.02.11-.08.06l.08-.06ZM77.72,56.76l.35.73-.22-.03-.22-.03-.16-.48.25-.19ZM76.96,57.34l-.25.19-.35-.73.6.54ZM60.33,54.73l-.51.38.06-.44.44.06ZM152.45,68.39l-.73,1.93-.22-.03.51-1.97.44.06ZM86,59.09l-.73.35.03-.22.7-.13ZM151.27,70.26l-.13.89.25,1.4-.44-.06-.29-1.18-.13.89-.22-.03.95-1.9ZM28.85,52.94l-.03.22-1.21.51,1.24-.73ZM48.9,71.23c-.73,4.87,3.18,11.34,5.01,15.68l-5.68-1.49-1.87-1.17c-1.05,0-3.62-1.16-4.25-1.97l-.22-.03-.13.89-.22-.03.13-.89-.92.1-1.4-1.33-.7.13-8.13-4.99-7.26-6.28c-.1-2.43-3.7-3.91-2.77-6.75,1.28-3.9,5.74-7.98,9.93-8.43,2.66-.29,5.22.51,7.79.99,2.68.5,6.56,1.19,8.54,3.27.8.84.49,2.41.6,3.49.25,2.44.14,6.84,1.55,8.83ZM152.08,72.5l.06.08c-.12.03-.24-.11-.06-.08ZM151.01,73.63l-.16,1.11-.22-.03.06-.44-.22-.03.06,1.14-.03.22-.32.63-.22-.03c-.19-.96-.45-1.94.57-2.41l-.6-.54,1.08.38ZM113.1,69.33l-.79-.79.32.95c-1.37-.9-2.98-1.81-4.63-.89l-.22-.03-3.55-.51-.13.89-4.22-.6-.6-.54-.16,1.11-.38-.51-.22-.03-.95.32.03-.22.48-.16c-.96-.68-3.15-.98-4.06-.13-2.77-1.24-6.95-.11-9.93-.29l.09.92-.92.09.54-.6-.7.13c-.69-1.04-3.87-.68-4.76,0l-.6-.54-3.49.63-.22-.03-.82-.57-.16,1.11-.22-.03-.09-.92-2.57.54-.22-.03-5.17-.29c-.98,1.96-.63,3.69-.13,5.65.16.63-.42.78-.19,1.33.16.38.79.48.76,1.02-.15,2.49.48,4.99,1.17,7.65.32,1.25,2.68,4.53,2.44,5.11l5.33,7.11.48-.16.67,1.68.7-.13c.22,1.21,1.47,2.08,2.6,2.41,0,.89,2.09,1.73,2.92,1.78.48.86,1.48.92,2.38.79l-.38-.51.03-.22c1.81-2.38-3.34-4.3-4.41-5.62l.63.32.03-.22-3.01-4.29-.7.13.1-.67-.57-.76-.54.6-.22-.03.41-1.3.03-.22-2.12-2.57.32-.64-.79-.79.16.48-.22-.03-1.98-8.44-.64-3.27c1.34,1.25,4.63,1.17,6.4,1.21,4,.1,8.11.83,12.07,1.41,1.3.19,4.61,1.02,5.62.16l.22.03c.23.53,2.75.76,3.14.22,5.66,2.59,13.17-.14,19.1,1.15l5.24-.2,13.26-.77-.6,2.63-.22-.03.1-.67.03-.22-.7.13-.13.89.6.54-.89-.13-.03.22c1.06.3,0,2.14-.19,2.92l-.22-.03.06-.44-.22-.03-.32,2.22-3.53,5.61c-.27,1.43-1.54,2.76-2.76,3.46l-4.7,4.31-.41-.29-2.09,1.97,2.44.35,1.78-1.33,2-1.3.92-1.68.82.57c.32-2.65,3.67-4.39,4.83-6.79l.22.03-2.89,4.35.22.03c.5-.55,1.64-2.57,2.32-1.93,1.74-3.48,4.81-6.7,5.37-10.56-.03.17.7-.29.73-.35.46-.85.36-2.96.51-3.55.26-1-.19-3.19.64-2.85-.71-2.45-2.31-2.98-4.41-4.03l-.76.57.35-.86-1.33-.19.09.92c-1.52-.26-4.97-.45-5.62-1.94l-.44-.06-1.24.73.79-.79c-2.25-.17-6.5-1.88-8.5-.77l-1.97-.51-.03.22,1.11.16-.03.22-.73.35.06-.44-.22-.03-.06.44-.89-.13.35-.86-2.13.61ZM123.65,70.01l.06.09c-.12.03-.23-.11-.06-.09ZM127.66,70.51l.38.51.06-.44-.44-.06ZM131.37,71.5l.67.1-.16-.48-.51.38ZM117.41,69.27l.86.35-.03.22-1.08-.38.25-.19ZM126.96,70.64l-.73.35.03-.22.7-.12ZM124.49,70.51l-.03.22-.67-.1.7-.13ZM110.65,68.98l-.03.22-.92.09.32-.63.64.32ZM116.89,69.72l.06.09c-.12.03-.24-.11-.06-.09ZM101.01,68.28l-.1.67-1.33-.19.03-.22,1.4-.25ZM104.77,68.89l.06.09c-.12.03-.24-.11-.06-.09ZM125.09,72.64l-.16-.48.22.03,2.67.38-.29.41c1.26-.03,4.09-.52,4.89.7l2.25.1.32.95c.63-.1.78-.08.82.57l-.67-.1.32.95-1.17.29-.51-1.21.06,1.14-2.67-.38-2.32.35.16-1.11-.67-.1-.25.19-.51.38-.03.22,1.11.16-.03.22h-1.59s-.76-1.02-.76-1.02l.51,1.21-.63-.32c-.18-1.31-1.54-1.03-2.57-1.05l.06,1.14-2-.29,1.37-.03.13-.89-1.11-.16-.03.22.44.06-.03.22-3.14-.22-1.14.06c-.84-.94-5.21-.81-6-.86-.62-.04-.56.37-.54.6l-1.11-.16-4.19-.83-.03.22.67.1-.03.22-1.11-.16.29-.41-.22-.03-5.46.12-2.44-.35c-1-.59-2.76-.9-3.81-.32l-.22-.03c-.43-.51-1.47-.44-2.19-.54l-6-.86c-.68-.1-2.2-.48-2.32.35l-.89-.13c.25-.71-2.53-1.19-2.44-.35l-.6-.54-.06.44c-1.39-.9-3.27-1.12-4.89-.7l-.06-1.14.38.51,2.76-.28-.29.41.22.03c.6-.22,1.24-.66,1.59,0,4.54-.7,9.64.26,14.27.09,1.53-.05,3.81.47,5.06-.5.88.52,1.34.57,2.25.09l.22.03c1.79,1.22,3.97.17,5.89.28,1.13.06,1.8.72,2.9.07l.22.03.38.51-.16-.48.63.32-.16-.48c.95.57,1.59.67,2.67.38.07.21,2.78.96,2.7.16l1.71.7,5.43.1,1.94.73M128.9,72.96l-.03.22.67.1-.63-.32ZM149.55,75.92l1.17,1.3-.03.22-1.05-.6.09.92-1.08-.38.89-1.46ZM133.31,73.82l.38.51.06-.44-.44-.06ZM14.22,56.98l.57.76-1.33,2.98-.89-.13,1.33-1.4.41-1.3-.09-.92ZM130.96,75.98l2.32-.35c-.91-.34-1.69-.47-2.32.35ZM148.6,77.83l-.06.44-.44-.06.51-.38ZM150.14,78.13l.06.09c-.12.03-.24-.11-.06-.09ZM129.91,75.38l.13.7.73-.35-.86-.35ZM77.19,68.36c.17.02.02.11-.08.06l.08-.06ZM77.08,69.17l-1.11-.16c.3-.8.88-.55,1.11.16ZM12.51,59.46l-.51.38.06-.44.44.06ZM123.34,75.35l-.29.41.44.06-.16-.48ZM125.97,75.95l-.32.63-.38-.51-.51.38.32-.63.89.13ZM121.21,75.95l-.06.45-1.52-.45h1.59ZM116.3,75.47l.13.7-.67-.1.54-.6ZM13.39,61.18l-.38,1.08-1.02.76.32-.64c-.74-.87.21-1.47,1.08-1.2ZM68.5,68.93c.17.02.02.11-.08.06l.08-.06ZM118.04,75.95l-.03.22-.67-.1.7-.13ZM147.57,80.26l.06.08c-.12.03-.24-.11-.06-.08ZM114,75.67l.06.09c-.12.03-.24-.11-.06-.09ZM95.38,74.3l-.06.44-.44-.06.06-.44.44.06ZM93.57,74.26l-.06.44-.38-.51.44.06ZM12.57,63.79l.09,2.51-.82-.57.03-.22.54-.6-.86-.35.03-.22.41.29.03-.22-.38-.51.92-.09ZM64.5,71.53c.17.02.02.11-.08.06l.08-.06ZM132.82,81.93l-.1.67.22.03-.13-.7ZM147.2,84.44l-.19,1.33-.22-.03.13-.89-.22-.03c-.51,1.27-.75,2.12-2.32,1.94l.03-.22c.8.11.97-1.43.98-2.12l1.81.03ZM12.79,67l.13.7-.22-.03.1-.67ZM69.43,75.11l-.06.44-.44-.06.06-.44.44.06ZM69.33,75.78l.6.54-.76.57.16-1.11ZM143.04,92.93l.16.48-.44-.06.29-.41ZM136.79,92.26l-2.06,3.33-.22-.03,2.29-3.3ZM72.33,86.5c.17.02.02.11-.08.06l.08-.06ZM128.18,95.34l-1.14,1.65.22.03,1.37-1.62-.44-.06ZM74.49,88.78l-.57.82-.35-.73.92-.09ZM122.53,99.98l-.13.89.22.03-.09-.92ZM61.83,94.92l.16.48-.44-.06.29-.41ZM61.73,95.58l-.06.44-.38-.51.44.06ZM82.06,99.26l.06.09c-.12.03-.24-.11-.06-.09ZM70.55,98.89c.17.82.62,1.06,1.43,1.11l.03-.22-1.46-.89ZM119.16,114l-.06.44.44.06.06-.44-.44-.06ZM71.56,107.64l-.13.89-.22-.03.35-.86ZM71.82,109.03l-.38,1.08-.22-.03-.06-1.14.67.1ZM72.13,109.98c-.4.58-1.14,1.65-.22,1.55l-.35.86-.44-.06c-.15-1.07.11-1.75,1.02-2.35ZM73.21,110.37l-.1.67-.22-.03.32-.63ZM73.28,111.51l.22,1.62-.22-.03v-1.59ZM118.46,122.08l-.06.44-3.71.6c.61-1.09,1.77-1.37,2.82-.73l.32-.64.63.32ZM114.55,122.43l-.13.89-.22-.03-.16-.48c-.48.54-.8.49-1.11-.16l1.62-.22ZM112.36,123.48l-2.28.13.03-.22.67.1-.13-.7.86.35c.4-.55.68-.18.86.35ZM109.92,123.13c-.93.97-2.9.6-4.16.54l.03-.22.29-.41,3.84.1ZM104.72,123.06l-.1.67-.6-.54-.73.35c-.19-.84.86-.56,1.43-.48ZM102.91,123.03l-.06.44-1.56-.22,1.62-.22ZM105.34,123.46c.17.02.02.11-.09.06l.09-.06ZM101.1,123l-.03.22-2.73.06,2.76-.29ZM97.64,123.41l-4.7-.45c1.14-.63,3.89-.68,4.7.45ZM92.75,122.71l-.03.22-1.11-.16,1.14-.06ZM91.2,122.49l-.03.22-.67-.1.7-.13ZM61.36,118.74c.17.02.02.11-.08.06l.08-.06Z"/>
</svg>