<?xml version="1.0" encoding="UTF-8"?>
<svg id="Layer_1" data-name="Layer 1" xmlns="http://www.w3.org/2000/svg" viewBox="0 0 180 180">
  <defs>
    <style>
      .cls-1 {
        fill: #1e6de0;
      }
    </style>
  </defs>
  <g id="layer1">
    <path id="path14278" class="cls-1" d="M81.43,11.32c-.73.02-1.88.31-1.94.57-.03.12-.44.22-.91.21-.47,0-.92.14-1,.28-.08.16-.47.33-.88.36-2.18.21-9.07,3.04-14.3,5.87-.17.09-.29.32-.27.51.02.22-.23.38-.65.42-.83.09-1.91.75-1.8,1.12.04.15-.12.23-.36.19s-.81.27-1.25.69c-.45.42-.61.66-.35.55.4-.18.42-.16.17.22-.16.24-.51.39-.79.35-.27-.04-.78.08-1.13.28-1.09.62-4.04,3.09-4.02,3.37.02.16.13.18.26.08s.25-.08.26.05-.14.32-.34.42-.37.09-.39-.06c-.05-.52-.75-.12-2.77,1.59-5.34,4.5-8.53,7.83-15.75,16.44-4.19,5-6.98,9.51-9.52,15.37-.66,1.53-1.51,3.43-1.88,4.23-3.12,6.73-4.95,13.04-6.43,22.18-.67,4.15-.79,6.33-.6,11.06.17,4.31,1.12,14.84,1.51,16.7.28,1.33,1.12,4.98,1.38,5.95.89,3.34,4.14,11.54,5.85,14.76,2.76,5.19,9.11,13.82,12.09,16.43.64.56,1.65,1.52,2.23,2.12.58.6,1.17,1.01,1.31.91.14-.11.18-.07.1.1-.08.16.25.63.73,1.05.48.42.71.57.52.34-.87-.99.27-.31,2.16,1.31,1.49,1.27,1.6,1.4.41.46-2.35-1.84-2.51-1.57-.21.34,1.23,1.02,2.05,1.52,2.28,1.41.2-.08.29-.08.2.03-.24.3.4.82.95.77.76-.07,2.17.56,1.83.82-.37.28,2.58,1.62,3.04,1.39.2-.1.29-.03.23.17-.06.2.51.58,1.47.98,1.63.68,2.02.77,1.74.4-.09-.14.07-.18.36-.13.69.11.95.5.38.55-.36.04-.32.11.21.35.78.35,1.14.37.89.04-.25-.32-.06-.31,1,.07.5.19.86.45.79.6-.08.16.03.19.28.06.26-.13.48-.05.59.16.1.2.31.31.46.3.6-.13.94-.04.82.18-.07.14.07.2.32.18.42-.09,3.78.81,4.36,1.14.38.22,2.74.62,7.09,1.2,4.2.57,6.47.72,9.95.68v.05c3.04-.02,7.45-.46,8.41-.82.4-.15,1.29-.38,1.98-.51s1.49-.32,1.8-.42c.36-.12.73-.02,1.05.25.45.39.68.4,2.41.03,1.05-.22,2.04-.53,2.2-.67.47-.43,2.89-1.12,4.25-1.21,2.04-.12,5.21-1.12,9.31-2.93,2.13-.94,2.81-1.51,2.19-1.83-.22-.11-.18-.17.12-.21.24-.02.45.07.46.2.04.4.73.23,2.7-.67,1.81-.82,2.62-1.37,1.93-1.3-.19.02-.29-.04-.21-.13.07-.09.36-.08.64.05.37.15.69.09,1.17-.22.37-.23.85-.45,1.07-.47s1.27-.67,2.33-1.45c1.05-.77,2.43-1.73,3.06-2.13,1.89-1.2,2.03-1.31,2.01-1.5-.01-.11.19-.21.45-.24s.98-.33,1.61-.68c.99-.56,1.11-.72.96-1.25-.2-.68.37-1.18.76-.67.16.22.27.22.37.01.08-.16.02-.28-.14-.27s-.21-.11-.13-.27c.08-.16-.02-.38-.22-.48-.25-.13-.07-.21.54-.28.5-.05,1.03-.28,1.19-.5.17-.26.18-.4,0-.38-.15.01-.32.15-.4.29-.07.14-.32.28-.56.3-.29.03-.21-.14.27-.53.51-.41.75-.49.91-.28.15.2.41.1.93-.36.39-.35.91-.64,1.15-.61.3.02.42-.14.39-.52-.03-.31.1-.72.28-.91.28-.31.29-.3.08.05-.14.23-.15.55-.02.72.18.23.37.15.81-.34.32-.36.91-1,1.32-1.44.53-.58.65-.86.43-1.04-.22-.18-.17-.42.19-.88.61-.79.88-.83.77-.12-.09.54-.08.55.58,0,.37-.3.73-.54.8-.55s.14-.18.15-.39c0-.21.2-.54.43-.74.32-.29.32-.39.04-.36-.2-.03-.47.05-.59.06-.12.06-.1-.12.06-.35.21-.31.41-.36.79-.21.38.16.48.13.4-.11-.05-.17.04-.32.22-.29.18.03.31-.08.3-.19-.01-.12.21-.31.49-.41.29-.11.43-.3.32-.44-.1-.12-.29-.18-.41-.09s-.23.07-.24-.1c-.01-.15.06-.28.17-.29s.55-.45.98-.97c.72-.88,1.34-1.33,1.07-.77-.07.13.06.21.27.14.51-.12.8-.73.64-1.35-.07-.28-.07-.36.01-.2.2.44.44.35.76-.3.25-.5.24-.55-.11-.37-.35.18-.36.11-.02-.61.21-.44.56-1.02.79-1.26.38-.44.4-.44.29-.03-.28,1.03.5.25,1.71-1.7.71-1.15,1.54-2.4,1.83-2.78.81-1.06,1.32-2.13,1.13-2.39-.1-.13-.05-.24.09-.25s.25-.18.23-.37.13-.51.32-.71c.2-.2.28-.51.19-.68-.09-.18-.05-.33.08-.35s.23-.16.21-.34c-.03-.34,1.28-3.79,1.66-4.34.13-.19.15-.33.06-.33s.19-.67.62-1.51c.43-.84.94-2.04,1.14-2.68.35-1.1.35-1.17-.11-1.47-.26-.18-.33-.27-.15-.19.53.21,1.07-.3.75-.71-.18-.24-.26-.25-.25-.04.02.17-.1.32-.24.34-.33.03-.2-.66.46-2.52.32-.9.63-1.38.88-1.35.22.03.5-.21.63-.5.13-.29.3-.59.37-.67.26-.28.53-1.85.37-2.17-.09-.18-.05-.42.09-.52.29-.22.22-1.58-.09-1.71-.11-.09-.05-.09.13-.06.18.03.42-.27.54-.66.45-1.55.51-1.78.68-2.57.12-.57.08-.89-.13-1.06-.22-.18-.19-.35.11-.62.28-.25.41-.79.39-1.62-.02-.69-.02-1.25-.01-1.25,0,0,.01-.63,0-1.39-.01-.77-.01-1.96,0-2.66.01-.7,0-1.52-.04-1.83-.04-.31.11-.97.33-1.46.3-.69.32-.97.07-1.19-.25-.22-.25-.25,0-.14.41.18.38-.44-.04-.78-.22-.18-.24-.4-.08-.79.24-.59.19-1.91-.09-2.14-.27-.22-.62-4.47-.42-5.2.2-.76-.6-7.41-.89-7.39-.03,0-.12-.39-.21-.87-.39-2.26-.89-4.22-1.49-5.8-.36-.95-.8-2.22-.99-2.83-.19-.61-.55-1.43-.81-1.82-.26-.39-.48-.86-.5-1.03-.02-.17-.3-.71-.62-1.2-.33-.49-.61-1.03-.62-1.21s-.15-.3-.28-.29-.26-.1-.28-.25-.28-.54-.59-.86-.58-.79-.61-1.05-.2-.53-.38-.63c-.42-.21-1.33-1.35-1.37-1.72s-1.09-1.55-2.14-2.44c-.46-.38-.88-.87-.94-1.07-.06-.2-.29-.47-.5-.61s-.4-.32-.41-.41c-.03-.26-2.52-2.72-3.79-3.73-1.06-.85-1.24-.9-2.37-.73-.74.12-1.1.11-.9-.06.46-.35-.43-.72-1.13-.47-.71.25-.84.59-.52,1.4.21.52.18.81-.09,1.15-.34.42-.33.44.13.24.32-.14.64-.06.88.16.33.33.29.47-.31,1.05-.65.63-1.14.83-2.11.83-.67,0-.74.51-.13.93.31.21.57.5.58.62s.73.8,1.6,1.5c.87.69,2.16,1.83,2.86,2.53,1.44,1.42,4.78,5.49,5.82,7.07.37.57.96,1.44,1.31,1.92.57.79,1.5,2.87,2.84,6.32.25.64.53,1.27.64,1.4.1.13.28.83.4,1.54s.32,1.74.45,2.29c.88,3.77,1.04,4.67,1.1,6.12.27,7.28.31,9.61.15,10.18-.1.36-.17,1.47-.16,2.46.01.99-.12,2.69-.3,3.78s-.34,2.22-.36,2.5c-.08,1.03-.77,4.4-1.06,5.12-.16.41-.19.96-.08,1.24.12.28.11.45-.02.39-.13-.06-.36.25-.51.7-.15.45-.16.84-.03.88.78.19.96.43.72.98-.24.58-.95.84-1,.37-.02-.16-.13-.18-.27-.08-.13.1-.16.28-.07.41.09.12-.03.52-.27.9-.25.39-.36.88-.25,1.17.14.39.08.46-.24.37-.23-.06-.41,0-.39.16.01.15.14.27.27.25s.19.17.13.39c-.08.3-.17.34-.33.13-.29-.39-.53.15-.29.64.12.24.06.4-.17.42-.38.04-3.11,6.53-3.04,7.24.02.22-.07.41-.21.42s-.24.14-.23.29c.02.16.13.18.26.08s.25-.07.26.11c.01.15-.15.24-.36.18-.23-.07-.48.12-.62.45-.19.46-.15.62.25.85.29.17.36.3.17.32-.17.02-.46.21-.64.43-.28.34-.25.41.22.51.34.08.62-.01.72-.24.1-.19.27-.27.4-.17s-.03.43-.34.73c-.31.3-.63.46-.73.34-.09-.12-.6.06-1.13.33-.53.3-.82.55-.66.53.32-.03-.17,1.51-.63,1.91-.15.13-.12.2.06.18.16-.02.7-.54,1.19-1.17.84-1.08.89-1.1.83-.46-.03.38-.22.7-.41.72s-.33.2-.31.4-.41.98-.95,1.72c-.54.74-1.03,1.59-1.1,1.88s-.31.61-.56.71c-.25.11-.5.36-.55.56-.06.2-.32.51-.59.69-.97.65-.57-.31,1-2.38.85-1.12,1.52-2.06,1.48-2.11-.2-.18-1.33.83-2.09,1.85-.47.64-.94,1.12-1.04,1.07-.1-.05-.34.03-.53.18-.23.18-.24.26-.03.24.56-.05.37.4-.52,1.21-.66.6-.77.65-.44.2.23-.33.34-.66.24-.75-.1-.08-.17-.04-.16.09s-.3.47-.69.76c-.39.28-.69.67-.68.87.04.39-.91,1.74-1.25,1.77-.12.01-.57.4-.99.85-.43.46-.86.79-.95.74-.1-.05-.17.12-.17.38.01.53.86.53,1.43,0,.28-.26.29-.22.06.23-.41.81-2.28,2.42-2.63,2.26-.18-.09-.22-.04-.11.11.11.14-.15.58-.56.97-.42.39-.81.61-.86.48-.06-.15-.21-.17-.32-.08-.12.09-.16-.03-.1-.24.15-.56-.05-.49-1.14.35-.51.4-1.02.69-1.13.7-.55-.06-2.24,1.04-2.21,1.43.03.29-.33.5-1.45.84-1,.3-1.68.85-1.63,1.32.03.3.22.49.46.47.22-.02-.65.63-1.95,1.46-1.29.82-2.45,1.48-2.58,1.45s.65-.59,1.71-1.24c1.12-.69,1.92-1.34,1.9-1.56-.03-.27-.1-.29-.29-.06-.14.16-.42.26-.61.21-.2-.06-.34.03-.33.17s-.13.23-.33.17c-.2-.06-.52.1-.71.33-.19.23-.54.45-.77.47-.56.05-3.85,2.07-4.19,2.56-.15.22-.47.42-.7.44s-.51.13-.6.25-.25.21-.35.22c-.36.03-4.57,1.92-5.52,2.47-.54.31-1.16.59-1.39.61s-2.36.75-4.76,1.61c-2.93,1.06-5.15,1.7-6.79,1.97-1.34.22-2.48.48-2.53.59-.05.09-2.37.37-5.16.59-4.85.39-6,.32-5.68-.33.06-.13-.1-.21-.37-.19s-.87,0-1.33-.04c-.71-.07-.81-.03-.64.32.13.26.07.41-.17.44-.91.09-5.3-.29-6.67-.58-.83-.17-2.38-.44-3.44-.58-2.19-.29-2.73-.47-2.68-.86.04-.34-1.11-.54-1.62-.28-.21.1-.32.08-.26-.05.06-.13-.2-.28-.59-.33-1.74-.24-6.21-1.84-9.12-3.26-.73-.36-1.87-.91-2.53-1.22s-2.21-1.15-3.45-1.86-2.44-1.3-2.66-1.33c-.22-.03-.46-.05-.53-.05s.03-.14.22-.3c.29-.24.09-.48-1.13-1.38-.87-.64-1.62-1.02-1.83-.92-.26.13-.32.03-.24-.34.08-.39-.27-.84-1.45-1.86-.86-.74-1.55-1.36-1.54-1.41.08-.19-1.59-1.93-1.83-1.9-.16,0-.45-.28-.63-.64-.19-.37-.73-1.14-1.21-1.72-1.9-2.33-4.21-6.48-5.66-10.22-.31-.81-.7-1.79-.86-2.19s-.92-2.78-1.69-5.28l-1.4-4.55-.69-7.54c-.38-4.14-.68-8.73-.67-10.19,0-1.46.02-3.62.02-4.78,0-1.19.14-2.22.31-2.34.16-.12.21-.33.11-.46s-.1-.56.01-.96c.14-.49.11-.79-.09-.95-.36-.29-.41-.71-.07-.54.35.17,1.32-2.62,1.08-3.11-.11-.21-.07-.4.07-.42s.19-.19.09-.39c-.23-.46.2-1.96.52-1.8.13.07.15-.06.06-.23-.22-.44.45-2.59,2.41-7.75,2.18-5.76,4.09-10.19,4.74-11.05.31-.4.54-.74.51-.79-.26-.32,1.15-2.77,1.5-2.6.13.06.22-.07.2-.25-.02-.2.15-.45.37-.57.31-.15.33-.26.07-.47-.25-.21-.5-.03-1.1.8-.43.59-.77,1.14-.76,1.24s-.15.26-.36.37c-.29.14-.27.03.08-.6.25-.43.41-.93.35-1.1-.09-.29,0-.35.8-.52.15-.01.19-.23.09-.43-.11-.23-.07-.32.07-.25.14.07.3-.17.35-.53.07-.47.26-.67.69-.71s.56.05.49.33c-.19.7.6.35.9-.4.16-.4,1.36-1.97,2.68-3.49,2.86-3.32,5.43-6.54,5.42-6.79,0-.11-.18-.11-.37-.01-.61.31-.43,0,.6-.98.81-.77.89-.81.44-.21-.92,1.24-.33,1.03,1.03-.37,2.18-2.25,3.14-3.19,4.16-4.11,1.94-1.73,4.3-3.77,5.84-5.04.86-.71,1.52-1.4,1.47-1.53-.16-.38.43-.94.86-.83.21.06.6-.15.86-.47.26-.31.58-.58.72-.6.58-.06,1.9-1.06,1.97-1.5.05-.32.22-.44.49-.36.23.06.41.01.39-.16-.01-.15.14-.29.35-.31s.37-.14.35-.26c-.02-.25.52-.57,1.44-.84.34-.1,1.05-.43,1.58-.73,3.12-1.8,7.71-3.8,9.02-3.93.47-.05.84-.19.83-.32s.56-.38,1.28-.56c1.82-.44,2.53-.46,2.34-.06-.07.15-.02.26.12.24s.31-.15.38-.29c.19-.39,1.15-.42,2.26-.08.74.21,1.58.21,3.57-.07,2.23-.32,2.64-.31,2.89.02.2.27.27.29.25.05-.04-.57,1.2-.43,10,1.13.78.14,1.65.34,1.94.44.29.11,1.41.47,2.49.81s2.05.74,2.16.87c.11.14.28.17.37.06s.35-.08.59.09c.24.16.9.39,1.47.52,1.33.3,2.86,1.05,5.13,2.5,1,.63,2.26,1.42,2.81,1.75s1.02.8,1.05,1.05c.03.25.15.38.26.29.29-.22.91.44.74.79-.18.37.21,1.26.54,1.22.15-.01.18-.24.08-.51-.17-.46,0-.61.68-.6.32.02.51-1.94.23-2.31-.1-.13.06-.33.36-.43.41-.15.49-.34.37-.78-.09-.32-.08-.59.03-.6.38-.04-.41-1.56-1.57-3-.64-.8-1.17-1.54-1.18-1.65-.04-.43-1.01-1.82-1.25-1.8-.14.01-.42-.16-.62-.38-.2-.22-.51-.39-.7-.38-.18.02-.32-.17-.3-.42s-.18-.5-.44-.57c-.26-.07-.61-.28-.78-.47-.18-.2-.49-.26-.71-.15-.24.12-.67-.01-1.12-.35-.4-.31-.81-.48-.93-.39-.11.09-.22-.03-.24-.24s-.36-.5-.76-.63c-1.04-.34-2.48-1.24-2.36-1.49.19-.39-1.75-1.1-2.45-.9-.47.14-.54.12-.22-.05.38-.21.31-.3-.54-.65-.73-.3-1.01-.32-1.07-.08-.04.18-.25.34-.46.36-.29.03-.33-.05-.14-.33.25-.36.08-.68-.34-.64-.12.01-.14.13-.04.26.1.13.02.25-.18.27s-.45-.22-.56-.51c-.2-.53-.21-.54-.51-.03-.27.45-.41.49-1,.29-.84-.29-.96-.81-.16-.7.32.04-.01-.13-.73-.4-.72-.26-1.46-.49-1.63-.47s-.33-.09-.34-.23c-.01-.15-.18-.17-.38-.07s-.86.03-1.47-.1c-1.56-.4-3.03-.46-3-.14.01.14-.17.28-.41.3-.33.03-.36-.02-.13-.2.45-.35-.15-.69-1.42-.81-.94-.09-.97-.11-.41-.34.35-.14.43-.25.19-.23s-.63-.04-.88-.11c-.33-.09-.39-.05-.22.19.19.26-.05.31-1.26.27-5.85-.16-8.69-.15-9.85.06-1.25.22-2.75.21-3.11-.02-.1-.06-.3-.09-.54-.08h0ZM92.66,10.64c-.07.01-.15.01-.22.07h0c-.19.1-.13.17.17.14.26-.03.41-.09.32-.17-.05-.04-.15-.05-.26-.02v-.02ZM94.47,10.72c-.1.02-.2.02-.27.08-.17.09-.02.13.33.1s.48-.11.3-.16c-.1-.04-.24-.03-.36-.01h0ZM83.88,12.3c.2-.02.44.07.54.2.1.13-.05.26-.34.29s-.53-.06-.54-.2.14-.27.34-.29h0ZM77.91,13.13c1.03-.1.74.4-.54.91-1.68.7-3.45,1.1-3.48.82s3.15-1.65,4.02-1.74h0ZM72.61,15.21c.41.06.05.53-.92.92h0c-1.5.61-1.36.59-1.58.29-.18-.24.66-.76,1.83-1.11.31-.1.53-.13.67-.12h0ZM102.65,12.88c.24-.07.42,0,.38.16-.09.41-.46.51-.92.27-.22-.11-.29-.24-.15-.25s.45-.1.69-.18ZM69.44,16.61c.13.1-1.54,1.05-1.91,1.08-.13.01-.63.27-1.12.58h0c-.49.31-1.22.66-1.62.79l-.74.24.71-.49c.9-.62,4.52-2.32,4.67-2.2h0ZM63.74,19.46c.09,0,.1.07-.03.22-.18.21-.66.52-1.06.71h0c-.4.18-.95.43-1.21.56-.27.13-.15-.05.26-.39.69-.57,1.77-1.11,2.05-1.09h0ZM63.95,20.11c.08-.06.15-.06.19-.02.08.07-.04.22-.28.34-.34.17-.38.15-.15-.12.08-.09.16-.17.24-.21h0ZM113.74,15.98c.14-.01.33.08.43.21.1.13.07.25-.07.26s-.33-.08-.43-.21c-.1-.13-.07-.25.07-.26ZM60.47,21.43c.14-.01.09.1-.1.25-.19.15-.47.29-.6.3s-.09-.1.1-.25c.19-.15.47-.29.6-.3ZM77.04,24.04c.16-.07.27-.03.28.02.01.13-.24.32-.57.44h0c-.32.12-.79.3-1.03.42-.78.37-.24-.11.69-.61.24-.13.47-.23.64-.27h0ZM120.2,22.96c.16-.02.38.07.48.2.22.29.14.3-.38.04-.24-.13-.28-.22-.1-.24ZM48.12,29.97c.14-.01-.11.34-.55.8-.44.45-.92.84-1.05.85-.13.02.12-.34.56-.8.44-.46.91-.84,1.05-.85ZM49.07,31.7c.09.08-.08.3-.39.5-.53.34-.54.34-.17-.14.21-.28.46-.43.56-.36h0ZM65.25,30.86c.08-.06.15-.06.19-.02.08.07-.04.22-.28.34-.34.17-.38.15-.15-.12.08-.09.16-.17.24-.21h0ZM126.64,27.69c.05,0,.13.04.23.12h0c.18.15.27.33.21.41-.15.18-.48-.08-.51-.42,0-.07.02-.11.07-.1h0ZM41.76,36.15s-.05.12-.19.34c-.17.26-.34.48-.4.48-.21.02-.09-.2.29-.57.18-.18.28-.26.29-.25h0ZM37.03,41.42c.14-.01.07.22-.16.52-.22.3-.52.56-.66.57s-.07-.22.16-.52c.22-.3.52-.56.66-.57ZM33.28,45.84c.07,0-.06.23-.28.53-.22.3-.46.55-.53.56s.06-.23.28-.54c.22-.3.46-.55.53-.56ZM50.25,45.71c.07,0-.11.3-.4.67-.29.38-.58.69-.65.7s.11-.3.4-.67c.29-.38.58-.69.65-.7ZM31.14,48.7c.05.04-.08.29-.37.66-.36.46-.7.84-.74.85-.25.02.65-1.31,1-1.48.06,0,.1-.06.12-.01h0ZM32.82,49.21c.09,0,.18-.02.24.03.05.04-.11.3-.36.58-.39.43-.46.44-.5.12-.03-.27.34-.64.62-.72h0ZM48.4,47.97s-.06.17-.27.53h0c-.23.4-.55.8-.71.88-.46.24-.38.1.41-.79.36-.41.54-.61.58-.62h0ZM61.43,48.19l.19,1.29c.14,1,.1,1.36-.23,1.61-.23.17-.4.51-.38.75.06.73-.46-.1-.76-1.2l-.25-.94-.53.7c-.54.71-.95.96-.69.43.1-.17-.04-.15-.39.09-.52.34-.52.45-.15,2.76.21,1.32.74,3.57,1.16,4.99.99,3.32,2.72,10.24,3.12,12.49.17.96.97,7.55,1.78,14.65,1.41,12.31,1.74,14.34,2.54,15.44.23.32.27.3.25-.13-.01-.28.05-.37.13-.2.09.19.24.24.34.16.24-.18,1.35,2.43,1.18,2.78-.07.15.19.62.59,1.05.4.43.74.92.75,1.09s.17.51.33.76c.6.9,1.38-.21,1.16-1.64-.05-.34.14-.01.42.72.28.73.64,1.45.81,1.62.37.37.39.37,1.28-.25.96-.66,1.28-1.17,1.07-1.73-.09-.25-.04-.46.12-.48s.3.16.32.38c.02.25.17.34.4.22.2-.1.37-.09.39.06.01.13.15.23.31.21.19-.02.2-.35.03-.99-.19-.71-.16-1.01.1-1.14.19-.09.41-.04.48.12.25.52.44-.04.47-1.34.03-1.57.59-2.07.69-.62.08,1.17.33,1.43.8.85.39-.48.45-.84.08-.56-.13.1-.25.07-.26-.08-.01-.15.15-.28.35-.3s.36-.15.35-.29c-.04-.43.43-.32.59.13.11.33.21.25.4-.36.24-.76.25-1.28.1-6.02-.04-1.21.03-2.16.16-2.09.13.06.22.03.21-.13-.01-.13-.16-.27-.32-.31-.22-.05-.24-.21-.08-.57.15-.33.13-.66-.06-.94-.16-.23-.23-.54-.16-.67.25-.52-.14-6.08-.43-6.05-.4.04-.63-2.65-.24-2.83.24-.11.23-.21-.05-.49-.26-.26-.3-.54-.16-1.06.24-.88.25-.81-.28-1.25-.34-.28-.38-.45-.19-.68.36-.43.29-.72-.16-.68-.28.03-.41-.27-.5-1.2-.07-.68-.02-1.32.11-1.42.39-.29.21-.98-.2-.77-.28.14-.38-.01-.42-.63-.05-.69-.02-.74.21-.33.19.34.22.03.09-1.09-.1-.86-.28-1.56-.4-1.54s-.19-.38-.15-.87c.04-.49-.02-.88-.15-.87-.32.03-.98-1.43-1.07-2.37-.1-1.01-.48-1.19-.91-.43-.28.49-.35.52-.38.17-.02-.24.1-.44.27-.47.21-.02.19-.1-.08-.23-.21-.11-.34-.23-.28-.29.87-.69,1.18-.81,1.21-.47.02.2.17.43.33.51.21.1.22-.11.04-.69-.45-1.48-.94-2.36-1.23-2.22-.16.08-.46-.3-.71-.91-.23-.58-.54-1.27-.68-1.54-.18-.35-.14-.6.14-.83.21-.19.28-.3.14-.28-.65.13-.89,0-1.29-.73-1.51-2.71-2.06-3.76-2.08-4-.01-.15-.32-.52-.68-.81-.36-.29-.76-.78-.88-1.07s-.31-.47-.41-.39c-.1.08-.67-.44-1.26-1.14-1.2-1.43-2.14-1.77-1.3-.47.37.56.4.72.13.66-.19-.04-.4-.28-.48-.53-.21-.72-1.24-1.99-1.19-1.47.02.24.2.65.39.9.19.25.29.53.22.61-.28.34-.93-.1-1.25-.84-.18-.43-.33-.59-.32-.36.02.71-.76.88-1.31.29l-.5-.53.18.62c.12.42,0,.32-.42-.34l-.6-.95ZM63.03,48.23c-.12.06-.04.62.17,1.06h0c.1.21.23.38.27.37.15-.01-.17-1.24-.36-1.4-.04-.05-.07-.04-.09-.04h0ZM30.71,52.17c.14-.01.13.15-.02.38-.15.22-.39.42-.53.43s-.13-.15.02-.38c.15-.22.39-.42.53-.43ZM45.98,50.93s-.05.12-.19.34c-.17.26-.34.48-.4.48-.21.02-.09-.21.29-.57.18-.18.28-.26.29-.25h0ZM110.24,46.22c-.11.01-.21.16-.25.4-.07.46-.22.53-.92.47-.72-.06-.84,0-.93.53-.06.33-.08.87-.05,1.18.03.32-.06.52-.21.45-.15-.07-.3-.51-.35-.98-.1-1.06-.53-1.32-.62-.38-.04.39-.18,1.29-.31,2.01-.15.83-.14,2.1.04,3.42.19,1.44.19,1.87,0,1.37-.19-.49-.18-.03.02,1.37.18,1.23.43,2.16.61,2.25.2.1.23.21.07.33-.13.1-.16.4-.06.67.1.26.26.42.36.34.1-.07.27.03.37.24.3.59.26.84-.11.87-.25.02-.29.32-.15,1.09.11.58.35,1.92.53,2.96.3,1.68.4,1.92.9,2.01.49.09.52.14.2.45-.38.37-.44,2.07-.09,2.53.35.45,1.2,8.25.89,8.1-.15-.08-.27-.02-.25.13s.15.25.29.24.27.23.28.54c0,.31.04.63.07.69.17.32.36,2.44.22,2.37-.09-.05-.05.47.08,1.15.15.76.14,1.24-.02,1.26-.31.03-.6-1.51-1.07-5.59-.46-4.06-1.6-11.49-2.18-14.23-.8-3.82-1.77-9.36-1.98-11.4-.11-1.07-.28-1.94-.36-1.93-.43.04-.62.82-.4,1.64.14.54.14.92,0,.93-.14.01-.17.5-.07,1.08.54,3.15.88,4.57,1.14,4.83.21.2.21.3.01.32-.33.03-.32.71.01.8.12.04.33.31.46.61.19.44.15.52-.2.43-.36-.1-.39.04-.21.72.49,1.86,1.43,7.7,2.32,14.44.52,3.92,1.13,8.31,1.35,9.75.25,1.63.37,3.49.31,4.91-.24,5.66-.19,6.89.29,7.02.23.06.43.41.47.8.06.63.1.65.43.25.24-.29.32-.94.25-1.96-.06-.83,0-1.47.12-1.4.13.06.23.85.21,1.75-.01,1.52.02,1.64.52,1.72.3.05.55.21.56.35s.23.04.48-.24c.45-.49.46-.49.53.23.07.66.66,1.79.61,1.16-.01-.15.25-.43.58-.62.55-.32.64-.29.91.27h0c.17.34.42.53.56.43.14-.11.64-.23,1.12-.28.58-.06.97-.26,1.17-.63.17-.31.47-.5.68-.44.48.13,1.38-.62,1.33-1.12-.02-.19.07-.33.2-.26.71.35,1.37-2.07,1.62-5.96.09-1.4.24-3.41.33-4.46.11-1.23.08-1.94-.09-1.98-.14-.04-.19-.2-.1-.37.08-.17.13-.71.1-1.19-.03-.49-.05-2.36-.04-4.18.01-2.17-.11-3.8-.35-4.78-.3-1.23-.36-1.34-.36-.6.01,1.37-.11,2.04-.38,2.06-.3.03-.42-.89-.15-1.1.11-.08.12-.51.02-.97-.09-.45-.3-1.72-.45-2.82s-.36-2.16-.46-2.36c-.42-.83-.52-1.7-.23-2.21.26-.47.25-.55-.11-.65-.34-.09-.36-.19-.14-.52.19-.28.18-.77-.03-1.58-.17-.64-.4-1.67-.52-2.29-.12-.62-.44-1.78-.7-2.59-.27-.81-.51-1.64-.53-1.85-.07-.52-.86-3.46-1.14-4.2-.21-.57-.23-.56-.28.28-.05.8-.16.63-1.02-1.67-.53-1.41-1.05-2.84-1.17-3.17-.12-.33-.65-.96-1.17-1.41l-.96-.8.26.9c.14.5.16.98.05,1.07-.39.3-1.59-.32-1.9-.99-.21-.45-.5-.68-.89-.64h-.58s.55-.16.55-.16c.34-.1.54-.35.51-.63-.04-.43-.27-.65-.45-.6h0ZM44.51,52.67c.07.06-.19.47-.58.92-.54.62-.66.68-.49.26.25-.63.89-1.33,1.08-1.18h0ZM71.19,52.22c-.07,0-.13.09-.21.24-.21.4.32,1.58.61,1.36.17-.13,2.07,2.96,2.11,3.44v-.05c.01.16.2.26.43.24.37-.04.37-.09-.06-.62-.26-.32-.48-.74-.5-.93s-.22-.48-.44-.63-.43-.53-.46-.84-.24-.69-.46-.84-.42-.4-.44-.56c-.01-.15-.16-.44-.31-.63-.12-.14-.2-.21-.27-.2v.02ZM38.73,57.61c.08.07.03.28-.13.47-.22.27-.26.24-.15-.12.07-.26.2-.41.28-.34ZM108.75,52.21c.02-.05.06,0,.11.1h0c.09.17.1.39.03.48-.07.09-.15-.06-.16-.32,0-.15,0-.23.02-.27h0ZM116.48,51.87c-.13.01-.21.15-.2.27.01.14.14.24.27.23s.24-.14.23-.28-.14-.24-.28-.23h-.02s0,0,0,0ZM38.09,61.7s.08.06.09.13c.01.14-.08.33-.21.43-.13.1-.25.07-.26-.07s.08-.33.21-.43c.06-.06.13-.07.17-.07h0ZM118.23,53.95s-.09.06-.13.1c-.07.09,0,.58.17,1.1l.3.95-.02-.98c-.01-.77-.13-1.21-.32-1.17h0ZM37.66,62.66c.06,0-.14.55-.45,1.25-.6,1.33-.92,1.89-.95,1.61-.02-.23,1.26-2.84,1.4-2.85ZM107.12,56.19c.1,0,.2.25.24.63.04.42.03.77-.02.78-.21.02-.45-1.24-.26-1.39h.04s0-.02,0-.02ZM117.2,55.7c.02-.05.06,0,.11.1h0c.09.17.1.39.03.48-.07.09-.15-.06-.17-.32,0-.15,0-.24.03-.27h0ZM118.67,56.21c-.13.01-.14.27-.03.58.19.54,1.24,4.4,1.52,5.61.08.34.21,1.1.29,1.68.27,2,.58,1.02.34-1.09-.13-1.16-.3-2.05-.37-2s-.45-1-.82-2.35-.79-2.45-.91-2.44ZM117.6,56.8s.05.05.08.11c.09.24.11.58.06.75-.05.17-.12-.04-.16-.43-.02-.26-.01-.41.02-.43h0ZM36.17,65.85c.07,0-.02.34-.19.78-.17.43-.37.8-.44.8s.02-.34.19-.78c.17-.43.37-.8.44-.8h0ZM118.01,58.41c.08.04.24.44.37.98.16.62.24,1.27.2,1.46-.05.19-.23-.25-.4-.97-.18-.72-.26-1.38-.2-1.46h.03s0,0,0,0ZM35.46,67.81h0c.01.14-.17.61-.4,1.05-.55,1.04-.59.69-.04-.43.23-.48.43-.76.44-.62h0ZM108.35,62.87s.08.04.14.09h0c.16.14.28.45.25.68-.06.56-.44.24-.51-.42-.03-.28,0-.38.12-.35h0ZM118.82,61.9c.02-.05.06,0,.11.1h0c.09.17.1.39.03.48-.07.09-.15-.06-.16-.32,0-.15,0-.24.02-.27h0ZM119.24,63.13s.03.05.06.07c.09.17.11.45.06.63-.05.18-.12.06-.16-.3-.03-.27-.01-.41.04-.4h0ZM108.7,64.42s.09,0,.17.11c.15.19.3.55.33.78.02.23-.06.51-.19.6-.14.11-.27-.2-.33-.78-.04-.44-.04-.67.02-.72h0ZM76.94,71.27s.11.08.2.22c.16.23.32,1.01.35,1.74l.05,1.32-.28-.99c-.16-.54-.31-1.32-.35-1.74-.04-.4-.04-.57.03-.55h0ZM121.85,69.21s-.05.15-.03.39c.04.36.11.48.16.3.05-.18.03-.46-.06-.63-.03-.05-.05-.07-.07-.06h0ZM30.72,79.43c.08.07.03.28-.13.47-.22.27-.26.24-.15-.12.07-.26.2-.41.28-.34ZM77.67,74.92c.12-.01.34.56.5,1.27.29,1.34.07,2.2-.31,1.2-.31-.84-.44-2.44-.19-2.47h0ZM121.87,71.54c-.25.07-.27.67-.03,1.73h0c.12.55.26.83.3.64.07-.3.12-.31.33-.03.18.24.24.17.2-.24-.03-.31-.16-.55-.3-.54s-.26-.09-.28-.24c-.02-.16.09-.2.24-.13.41.2.22-.81-.2-1.1-.11-.07-.2-.1-.27-.08h0ZM78.4,78.74c.02-.05.06,0,.11.1h0c.09.17.1.39.03.48-.07.09-.15-.06-.17-.32,0-.15,0-.23.03-.27h0ZM78.59,80.42c.06-.06.15.07.28.32h0c.1.19.08.43-.05.53-.12.09-.25-.07-.28-.35-.03-.3-.01-.47.05-.5h0ZM79.59,87.27l.23,2.13c.12,1.17.18,2.65.13,3.28-.09,1.12-.09,1.11-.25-.48-.09-.9-.15-2.37-.14-3.28l.03-1.65ZM28.6,95.73c.3-.03.36,1.48.07,1.96-.13.22-.1.33.08.31s.32.5.4,1.42c.09,1.14.06,1.32-.16.84-.16-.36-.1.54.15,2.2.23,1.54.38,2.79.32,2.8-.71-.08-.77-.29-.92-3.27-.23-4.56-.21-6.23.07-6.25h0ZM44.53,97.15c-.83.08-1.91.97-3.91,3.21-1.04,1.17-2.21,2.46-2.59,2.87l-.68.75.68-.6c.97-.86,1.01-.6.09.58-.43.56-.78,1.15-.76,1.32s-.24,1.04-.57,1.96c-.7,1.94-.64,4.35.11,4.86.33.22.42.55.37,1.39-.04.86.03,1.12.35,1.21.22.06.36.2.31.31-.06.09.15.13.45.04.39-.11.63,0,.85.4.17.3.51.57.75.55.32.02.33-.03.06-.09-.43-.09-.61-.78-.21-.82.14-.01.27.11.29.29.02.21.1.18.24-.09.11-.22.23-.29.27-.15.03.14.08.36.12.5.03.14.21.45.38.69.32.43.34.43.81-.14.27-.32.4-.58.29-.57-.1.01-.04-.1.13-.24.35-.27,1.11.21,1.48.95.13.29.36.36.59.24.29-.14.36-.03.28.39l-.1.58.44-.61c.46-.64.97-.85,1.01-.42.01.14.28.23.6.2.42-.04.74-.41,1.2-1.36.34-.72.81-1.45,1.04-1.63.4-.31.41-.29.07.34-.4.77-.15,1.38.36.86.18-.18.27-.4.21-.48-.06-.08.02-.38.18-.65.27-.47.36-.4,1.07.88.43.76.79,1.47.8,1.56s.27.42.58.71c.68.64,1.04.35.48-.38-.9-1.17-2.13-3.32-2.06-3.61.04-.17.37.21.74.83.36.63.78,1.13.92,1.11s.21.08.14.22c-.16.34.53,1.5.78,1.32.11-.09.15.04.09.25-.07.26.03.39.27.37.26-.03.35.13.3.48-.06.41,0,.47.31.32.26-.13.41-.04.43.21.06.57-.42.54-1.03-.06l-.53-.52.04.54c.04.55.51.8,1.32.72.57-.06,1.1.45.89.87-.09.15-.41.29-.72.26-.53-.05-.54-.03-.11.5.24.3.61.6.82.66.23.06.32.27.25.55-.08.31-.03.38.15.23.16-.12.57.06.97.44.56.52.68.56.65.19-.06-.7.77-.22,1.5.86.34.5.74.88.9.82.16-.07.31.13.34.41s0,.5-.04.51-.5-.46-1-1.04c-1.04-1.19-1.38-1.29-1.24-.39.05.34.23.61.4.6s.39.1.51.24c.14.18.09.21-.13.1-.23-.11-.29-.06-.19.17.09.19.34.29.58.22.29-.08.41.03.39.34-.02.25.09.45.23.44.48-.05,7.23,5.82,7.13,6.18-.05.19.03.34.18.33s.27-.13.26-.25c-.01-.14.21-.19.5-.14.4.06.47,0,.32-.31-.11-.21-.3-.38-.43-.37s-.64-.31-1.13-.71c-.49-.41-1.2-.9-1.58-1.09-.37-.2-1.23-.91-1.9-1.59-.67-.67-.92-1.01-.54-.73.82.6,1.24.63.73.05-.2-.22.82.56,2.26,1.74,1.45,1.18,2.9,2.29,3.23,2.47s.8.51,1.05.74c.24.23.89.55,1.43.71.54.16,1.12.5,1.29.74s.45.43.65.41.51.09.71.25c.54.42,2.59,1.46,2.83,1.43.12-.01.45.16.74.38.29.22,1.06.56,1.71.77s1.37.5,1.6.66c.24.16.52.28.63.27s.81.2,1.54.46c2.79,1,5.65,1.88,6.01,1.84.2-.02.44.06.52.17.09.11.67.29,1.31.41.8.14,1.12.32,1.05.57-.05.21-.21.3-.34.24-.13-.06-.22.02-.21.15.04.41.56.26.86-.23.19-.32.46-.41.96-.34.38.06.64.21.58.33-.06.13.07.28.3.35.45.13,1.41-.56,1.12-.8-.1-.09.29-.2.86-.25s1.06.01,1.07.16-.25.21-.62.16c-.47-.07-.63,0-.61.28.02.21.21.43.43.48.21.06.38.01.37-.11-.01-.14.21-.19.49-.14.36.06.5-.05.47-.34s.11-.39.41-.34c1.25.21,2.36.19,2.34-.05-.01-.14.14-.28.33-.3.44-.04.9.92.56,1.18-.01.09.36.14.92.08,1.29-.08,1.77-.3,1.23-.57-.25-.13-.14-.2.35-.25.53-.05.67-.16.53-.44-.13-.26,0-.38.44-.42.34-.03.63.05.65.19s.2.24.4.22.36-.16.35-.3.1-.2.26-.13.26.36.21.62c-.06.38.05.47.52.37.33-.08.6-.25.6-.43,0-.18,0-.46,0-.64,0-.17.34-.36.75-.45.41-.09.61-.06.45.04-.23.13-.21.24.09.49.5.41.92.36,1.87-.23.42-.27.99-.45,1.26-.4.27.04.61-.11.75-.3.14-.21.64-.42,1.11-.46.53-.05.89-.23.96-.47.06-.22.27-.4.46-.42s.33-.19.32-.39c-.03-.35,1.33-.96,1.62-.73.08.07.6-.11,1.15-.37.55-.27,1.28-.55,1.63-.58s.58-.23.54-.39c-.05-.16.13-.38.4-.5.27-.11.41-.3.32-.43-.09-.12-.02-.23.15-.24.25-.02.24-.09-.01-.3-.49-.41-.43-.64.15-.54.3.05.45.21.37.38-.08.17.04.12.26-.1.26-.25.3-.44.12-.54-.16-.08.11-.39.62-.72.5-.31.97-.69,1.06-.84.09-.15.17-.18.18-.07.01.11.2-.02.42-.28.28-.34.3-.5.07-.55-.18-.04-.33-.19-.35-.32-.02-.16.08-.19.21-.13.23.11.49-.44.44-.94-.03-.32-.96.37-1.52,1.14-.25.34-.71.69-1.02.72-.31.08-.55.25-.53.43.03.26-.04.27-.35.03-.33-.25-.33-.36-.01-.81.29-.41.29-.47.01-.28-.2.13-.55.44-.78.69-.23.25-.5.42-.59.43-.31-.03-1.21.5-1.36.8-.21.44.15.64.46.25.34-.41.75-.46.55-.05-.08.17.07.44.34.6.46.29.45.3-.16.35-.36.04-.82.14-1.01.24-.24.12-.36.03-.37-.28,0-.3-.18-.44-.51-.41-.36.03-.52.26-.55.81-.05.63-.24.85-1.15,1.27-.6.28-1.3.62-1.55.76-.46.25-.46.26.04.39.31.07.06.15-.63.22-.62.06-1.37.2-1.65.33-.33.15-.66.12-.9-.08-.56-.46-1.83-.07-2.06.62-.1.31-.3.6-.44.61s-.54.16-.91.3c-.77.3-1.34.13-1.04-.35.3-.48.15-1.17-.22-.98-.17.09-.25.25-.16.37.09.12-.02.16-.25.1-.22-.06-.42-.24-.44-.4-.02-.16-.13-.08-.25.18-.22.49-1.43.77-1.47.34-.02-.16.14-.2.34-.14.2.06.43-.04.51-.18.09-.19-.34-.22-1.32-.13-1.13.11-1.32.19-.87.33.81.24.75.43-.14.51-.49.05-.77-.05-.79-.29-.05-.54-.49-.66-1.05-.29-.33.25-.6.28-.82.13-.21-.12-.46-.11-.67.07-.19.15-.63.3-.97.34-.5.05-.55.11-.22.28.28.15.06.2-.74.16-.63-.03-1.27-.16-1.42-.28-.18-.15,0-.2.55-.15.47.04.82-.03.81-.17s-.26-.22-.55-.2-.9-.08-1.35-.23c-.45-.16-1-.32-1.21-.37-.24-.06-.17-.13.19-.17.94-.14.36-.49-.88-.55-.63-.03-1.22-.16-1.32-.29s-.28-.14-.42-.03c-.15.11,0,.31.38.48q.63.28-.13.21c-.74-.07-1.97-.37-3.64-.89-.43-.13-1.12-.18-1.53-.09-.44.09-.62.06-.44-.08.47-.35-.32-.78-1.52-.82-.66-.03-.98-.15-.92-.36.05-.17-.23-.49-.61-.69-.39-.2-.66-.52-.61-.72.05-.19-.07-.39-.27-.45-.24-.06-.3.03-.18.25.29.58-.5.47-1.45-.21-.49-.35-1.43-.85-2.09-1.13-1.33-.54-2.19-1.15-2.23-1.55-.01-.14.65.09,1.47.51s1.53.71,1.58.66-.65-.48-1.54-.94c-.89-.46-1.74-1.01-1.88-1.22-.14-.22-.52-.43-.85-.48-.49-.07-.52-.04-.18.18.22.15.6.47.83.72.29.31.07.25-.71-.19-.62-.35-1.2-.78-1.29-.95-.09-.17-.04-.25.1-.18.14.07.25.03.24-.09-.04-.41-1.51-1.3-1.95-1.18-.64.17-1.89-1.02-1.57-1.49.23-.34.08-.46-.4-.33-.11.01-.16-.04-.1-.15.06-.11-.04-.36-.23-.55-.48-.5-1.68-1.29-1.42-.94.34.46-.43.42-.95-.06-.25-.23-.39-.5-.31-.6s0-.17-.17-.15c-.2.02-.29-.17-.24-.5.06-.41.02-.46-.21-.23-.21.22-.43.16-.82-.2-.29-.27-.39-.43-.22-.35.65.3.53-.39-.17-1-.4-.35-.58-.47-.4-.26.25.3.27.44.05.61-.18.14-.23.1-.13-.09.08-.17.04-.3-.09-.29s-.32-.2-.42-.47c-.12-.33-.08-.44.13-.35.17.07,0-.14-.36-.46-.37-.33-.76-.53-.87-.45-.11.09-.39-.01-.61-.18-.29-.24-.33-.37-.12-.46.41-.18-.05-.98-.62-1.07-.35-.06-.46-.24-.41-.73.05-.57-.01-.64-.45-.47-.35.13-.48.1-.41-.15.05-.18-.04-.4-.19-.47-.16-.08-.3-.34-.33-.59-.05-.49-1.6-1.98-2.23-2.15-.31-.08-.3-.13.05-.16.51-.05.52-.39.06-1.09-.24-.38-.25-.45-.03-.35.2.1.25-.25.17-1.06-.09-.88-.18-1.09-.33-.81-.16.31-.22.25-.28-.3-.04-.39.04-.65.16-.59.35.17.4-1.09.05-1.38-.17-.14-.33-.36-.36-.49-.03-.13-.08-.25-.11-.29s-.16-.62-.29-1.3c-.23-1.21-1.51-3.09-2.39-3.52-.19-.1-.36-.33-.38-.54s-.18-.34-.34-.28c-.4.13-2.43-.47-2.67-.79-.1-.13-.41-.22-.67-.2s-.5-.07-.51-.21c-.01-.15.25-.21.62-.16.35.05.63,0,.62-.14-.02-.24-6.2-1.25-7.08-1.16h0ZM46.3,98.66c.48,0,1.08.14,1.15.37.08.27-.68.46-1.38.34-.52-.09-.62-.43-.19-.63.11-.06.26-.07.41-.09h0ZM79.88,96.03s.04.05.08.14c.09.31.13.76.09,1-.04.25-.11.01-.16-.56-.03-.34-.03-.55,0-.58h0ZM140.09,90.17c-.45.04-.94.1-1.47.21-1.46.31-4.25,1.72-4.22,2.12.01.11-.3.53-.68.91-.38.39-.68.87-.66,1.06s-.08.37-.21.38-.37.44-.53.93c-.18.59-.41.88-.65.81-.2-.06-.5.1-.66.34-.25.36-.24.47.05.61.28.14.25.36-.16,1.06-.28.49-.52,1.01-.54,1.16s-.23,1.13-.49,2.19c-.55,2.29-.55,2.16-.02,2,.44-.13,1.38.48,1.42.92.04.4.48.25.74-.26.2-.39.22-.34.15.26-.06.54,0,.66.19.51.31-.24.29,1.94-.03,2.71-.1.24-.19.82-.21,1.29s-.16,1.36-.32,1.99c-.16.63-.26,1.4-.23,1.71.08.84-.13,1.41-.45,1.26-.18-.09-.2.02-.06.3.13.25.07.71-.13,1.09-.19.36-.28.71-.2.77.08.06-.18.87-.56,1.8-.39.92-.69,1.81-.68,1.97.05.52.74-.38,1.15-1.51.57-1.55.95-2.09,1.41-1.96.58.16.55.62-.05.68-.4.04-.49.22-.42.91s-.02.89-.47,1.03c-.54.16-.54.17-.02.29.3.07.74.41,1,.76.39.54.42.69.14.99-.17.2-.3.52-.29.72.07.62.3.35.68-.78.36-1.06.35-1.13-.11-1.57-.47-.44-.46-.49.13-1.19.47-.55.66-.64.79-.39.14.3.26.29.65-.01.53-.41.55-1.25.05-1.67-.44-.37-.12-.7.36-.37.31.21.46.09.78-.61.6-1.31,1.48-3.86,1.45-4.21-.03-.41.4-2.19.6-2.43.09-.1.12-.55.08-.99s.04-1.21.19-1.69c.28-.9.6-3.45.57-4.58,0-.35.06-.85.15-1.13.1-.3.04-.66-.15-.91-.25-.32-.24-.46.02-.59.52-.26,1.91.16,1.95.59.02.24.18.31.39.2.21-.11.43.01.55.3.32.76.68.5.43-.31-.12-.4-.14-.75-.05-.76.33-.03.96.63,1.03,1.09.05.32.1.27.18-.17.1-.57.74-1.19.7-.68-.04.57.13.62.56.15.36-.4.58-.46.92-.29.41.2.44.09.32-1.06-.17-1.56-.55-2.55-1.04-2.68-.62-.17-.55-1.11.1-1.18.31-.03.72-.18.91-.33.29-.23.26-.29-.17-.4-.99-.25-1.86-1.28-1.3-1.54.13-.06-.12-.45-.53-.87-.7-.71-1.73-1.02-3.08-.94h0ZM142,91.74c.05,0,.13.05.23.13h0c.18.15.27.33.21.41-.15.18-.48-.08-.51-.42,0-.07.02-.11.07-.11h0ZM142.22,93.25c.26-.08.87.16.89.38h0c.03.31-.66.34-.89.04-.1-.13-.14-.31-.09-.38.02,0,.05-.05.09-.06h0ZM80,99.36h.04c.12.05.2.45.18.88h0c-.05,1.05-.21,1-.32-.1-.04-.43,0-.75.09-.79h0ZM38.53,104.66c.15-.01.28.07.3.28.02.19-.16.48-.4.64-.36.24-.44.2-.45-.25-.01-.36.3-.65.55-.67h0ZM67.32,102.61s-.06.1-.05.28c.02.26.09.4.16.31.08-.09.06-.31-.03-.48-.04-.07-.07-.11-.09-.11h0ZM28.99,106.34c0-.06.03-.05.06.1.19.89.23.93.35.35.11-.54.15-.48.26.4.08.62,0,1.11-.17,1.2-.24.12-.24.17.01.15.17-.02.33.17.35.38.02.24-.08.33-.23.26-.15-.08-.25-.03-.24.13.01.15.15.25.3.24s.27.34.28.8c0,.45.12.97.25,1.14.14.18.13.44-.01.62-.14.17-.21.6-.17.95l.09.64.15-.65c.12-.49.15-.38.12.4-.02.58.26,2.13.62,3.44h0c.36,1.32.6,2.46.53,2.54-.07.08-.23-.29-.37-.81-.14-.52-.59-2.09-.99-3.49-.53-1.85-.81-3.51-1.04-6.11-.12-1.47-.18-2.49-.15-2.68h0ZM145.54,95.68c-.13.01-.12.15.09.36.19.2.45.26.58.16.14-.11.09-.25-.13-.36-.25-.13-.44-.18-.55-.16ZM78.59,103.45c-.21.02-.37.15-.35.29s.2.24.4.22.36-.15.35-.29-.19-.24-.4-.22ZM37.26,107.79c.12-.01.08.25-.12.73h0c-.12.28-.33.52-.47.53-.29.03.03-.89.41-1.18.08-.06.13-.09.17-.09h0ZM134.98,100.39c.08,0,.2.03.35.17.24.21.22.44-.07.9l-.38.62-.05-.77c-.03-.58,0-.88.14-.93h0ZM136.16,100.38c.15-.01.28.09.29.23s-.02.26-.09.26-.19-.1-.29-.23c-.1-.13-.06-.25.09-.26ZM133.64,100.75s.05,0,.08,0c.13.06.17.22.1.36-.17.35-.26.32-.3-.11-.01-.14.03-.25.11-.27v.02ZM132.42,101.84s.06,0,.1.04c.15.07.27.18.28.24s-.1.12-.24.13-.26-.09-.28-.24c-.01-.12.05-.17.14-.16h0ZM133.28,102.44s.05.1.08.28c.02.23-.06.5-.19.6-.3.23-.33-.1-.06-.63.09-.17.14-.25.18-.25h0ZM56.76,109.95h.12c.17.02.36.24.43.47h0c.18.59-.32.55-.54-.05-.09-.24-.09-.39,0-.43h0ZM135.03,105.55c.21-.02.39.07.4.2h0c.03.29-.34.58-.56.4-.31-.25-.23-.56.16-.6h0ZM46.41,115.2c.13-.01.2.15.14.37-.06.22-.15.39-.21.4s-.12-.16-.14-.37.07-.39.21-.4h0ZM134.58,106.74c.05,0,.13.1.23.3.22.42.2.67-.09,1.02-.36.43-.37.42-.27-.18.06-.35.1-.81.09-1.02,0-.08.01-.12.04-.12h0ZM133.03,107.01c.15-.01.21.09.14.24-.07.15-.18.27-.24.28s-.12-.1-.13-.24.09-.26.24-.28h0ZM134.14,108.97h.1c.15.02.29.16.3.29s-.1.29-.24.36c-.14.06-.28-.07-.3-.3-.02-.17.04-.3.13-.35h0ZM156.21,107.29c.22-.11.3.02.24.34-.09.59-.16.62-.39.17-.09-.19-.03-.42.15-.5h0ZM161.89,107.45c.08.07.03.28-.13.47-.22.27-.26.24-.15-.12.07-.26.2-.41.28-.34ZM31.76,120.19c.15-.01.85,1.51,1.06,2.36.1.41.41,1.34.69,2.07.28.73.46,1.38.41,1.45-.05.07-.17-.03-.26-.21-.41-.87-1.91-5.21-1.93-5.57,0-.07,0-.1.03-.1h0ZM134.06,111.06h.07c.08.07.03.28-.13.46-.22.27-.26.24-.15-.12.05-.19.14-.33.21-.35v.02ZM160.37,108.84c.02-.05.06,0,.11.1h0c.09.17.1.39.03.48-.07.09-.15-.05-.17-.32,0-.15,0-.24.03-.27h0ZM55.13,120.19l.57-.06c.32-.03.65.11.76.31.28.57.08.62-.66.16l-.67-.42ZM155.34,110.81c.16-.07.01.44-.5,1.77-.6,1.55-1.07,2.03-1.14,1.18-.04-.43.35-1.44.4-1.04.04.37.71-.61.67-.98-.02-.2.12-.52.31-.71.12-.13.21-.21.27-.22h0ZM134.58,114.96c.14-.01.19.1.12.24-.07.15-.24.28-.38.29s-.19-.1-.12-.24c.07-.15.24-.28.38-.29ZM133.15,115.41c.11.04.2.12.21.29h0c.02.22-.14.42-.36.44-.44.04-.42-.51.03-.7h.12s0-.02,0-.02ZM132.01,115.82s.06,0,.1.04c.15.07.21.24.15.38-.18.37-.34.32-.38-.12-.02-.17.04-.27.13-.28h0ZM159.62,113.62c.08.04.16.07.22.17.07.1-.06.38-.28.63-.37.42-.39.41-.42-.15-.02-.42.23-.71.47-.65h0ZM132.56,116.46c.07,0,.19.09.29.29.11.22.15.47.09.55-.06.08-.2-.05-.31-.27-.11-.22-.15-.47-.09-.55h.03s0-.02,0-.02ZM153.91,114.5c.06,0,.09,0,.1.06.02.14-.09.41-.24.59-.15.18-.45.33-.66.35-.34.03-.35-.02-.03-.17.2-.1.48-.38.63-.61.07-.12.15-.19.2-.22h0ZM158.85,115.65s.08.05.13.11c.14.17.25.37.26.44,0,.07-.19.28-.44.48-.43.33-.44.31-.26-.44.11-.44.2-.62.31-.58h0ZM61.64,125.88s.12.05.34.19c.26.17.48.35.48.4.02.2-.2.09-.57-.29-.18-.18-.26-.27-.25-.29h0ZM152.53,117.48c.13-.1.19-.02.12.23-.12.45-.3.55-.33.19-.01-.13.08-.32.21-.41ZM60.76,127.22s.07.11.25.29c.37.39.59.5.57.29,0-.05-.22-.23-.48-.4-.21-.14-.32-.2-.34-.19h0ZM151.93,118.49c.24-.02.44.02.46.13s-.17.5-.41.85l-.43.64-.02-.77c-.02-.53.11-.82.41-.85h0ZM128.87,121.36c-.09,0-.49.52-.88,1.14-.71,1.13-.86,1.81-.39,1.77.14-.01.23-.2.21-.42-.04-.37,0-.37.42-.04.39.32.41.42.13.63-.23.18-.24.25-.02.23.17-.02.33.09.34.23s-.2.27-.48.3c-.57.05-.59.25-.15,1.14h0c.19.39.5.6.82.57.67-.07.89-.84.31-1.09-.57-.25-.6-.67-.05-.72.4-.04.39-.09-.09-.37-.29-.18-.39-.34-.22-.35s.28-.2.26-.4-.15-.36-.28-.35-.14-.47-.01-1.14c.13-.64.15-1.16.06-1.15v.02ZM131.44,121.11c-.13.01-.37.21-.57.47-.33.43-.62.57-1.02.49-.31-.04-.47-.01-.36.08.11.1.1.33-.03.52v-.05c-.19.28-.06.27.63-.01.91-.38,1.74-1.26,1.43-1.52-.02,0-.05-.05-.08-.04v.04ZM151.4,120.36c.09-.06.15-.01.15.04.04.44-.56,1.24-.75.99-.1-.13.02-.47.27-.74.12-.14.24-.24.33-.29h0ZM157.34,119.79c.34.17.32.25-.22.87-.28.31-.41.71-.3.92.21.4-.14.81-.41.46-.23-.31.63-2.39.93-2.25h0ZM130.75,123c-.12.01-.28.08-.46.12-.54.2-.55.22-.08.35h0c.28.06.6.01.72-.12.23-.28.14-.41-.17-.37h0ZM155.85,122.96c.13-.1.18-.02.12.23-.12.45-.3.55-.33.19-.01-.13.08-.32.21-.41ZM126.56,126.38c-.09,0-.18.1-.26.25-.11.21-.19.48-.18.58.03.35.53.14.64-.26.1-.37-.03-.61-.2-.58h0ZM68.69,132.11c-.08,0-.1.06-.09.18.04.37.86,1.14,1.19,1.11.13-.01.49.24.79.56.31.32.76.56,1.02.54s.7.19.98.48c.72.74,2.98,1.91,3.85,2,.4.04.68.18.62.31h0c-.06.13,0,.22.14.21s.31-.13.37-.27c.15-.31-3.64-2.25-4.02-2.06-.16.08-.36-.06-.45-.31-.15-.39-.77-.74-2.9-1.62-.27-.11-.5-.31-.52-.46s-.26-.37-.56-.52c-.2-.09-.33-.13-.41-.13v-.02ZM124.82,126.77c-.15.01-.25.14-.24.28s.07.25.13.24.17-.13.24-.28c.07-.15.01-.26-.13-.24ZM80.27,131.17s-.02,0-.03,0c-.06.08.29.34.77.58.94.48,1.01.5.99.34-.02-.19-1.5-.98-1.73-.93h0ZM128.26,127.29c-.06,0-.1.07-.09.16.01.15.14.26.28.24s.25-.07.24-.13-.13-.17-.28-.24c-.06-.04-.11-.04-.15-.04h0ZM155.27,124.91c.15-.01.28.09.29.23s-.02.26-.09.26-.19-.1-.29-.23c-.1-.13-.06-.25.09-.26ZM124.67,128.15c-.32.03-.3.26.13.51.25.15.41.33.36.41-.06.08.05.12.25.1.54-.05.28-.91-.31-1-.18-.03-.32-.03-.42-.02h0ZM120.76,131.49c.1-.01.2.03.23.17h0c.02.1-.09.24-.25.31-.16.07-.26-.02-.22-.18.04-.17.14-.27.24-.3h0ZM122.63,131.57c.1,0,.05.16-.1.39-.15.22-.38.42-.51.43s-.09-.16.1-.39c.19-.23.42-.42.51-.43ZM153.09,129.53c.07,0,.11-.01.12.08.01.14-.14.34-.34.44-.2.08-.36.15-.37.1s.15-.24.34-.44c.1-.1.19-.16.26-.18h0ZM78.23,137.14c-.15.01-.28.15-.34.38h0c-.07.23.04.31.37.19.26-.09.4-.26.31-.38-.1-.13-.22-.19-.34-.18h0ZM116.51,134.17c-.21.02-.3.15-.21.27.1.13.22.23.27.23s.16-.13.23-.28c.07-.15-.05-.25-.28-.23h-.02s0,0,0,0ZM115.42,134.27c-.22.02-.28.27-.08.52h0c.16.2.26.18.39-.09.1-.21.07-.39-.09-.43-.09-.04-.16-.03-.22-.03v.02ZM152.05,130.79c.13-.01.2.15.14.37-.06.22-.15.39-.21.4s-.11-.16-.13-.37.07-.39.21-.4h0ZM113.73,134.94c-.35.03-.47.2-.41.56.1.61.82.48.88-.16.03-.3-.12-.43-.46-.39h0ZM119.01,134.7c.15-.01.21.09.13.24-.07.15-.18.27-.24.28s-.12-.1-.13-.24.09-.26.24-.28ZM112.68,135.83c-.07,0-.14.01-.2.07h0c-.19.1-.13.17.17.14.26-.03.41-.09.32-.17-.06-.04-.16-.04-.28-.02v-.02ZM141.56,133.6c.14-.01.06.11-.17.28-.23.17-.33.43-.22.58.11.16.1.2-.02.12h0c-.12-.09-.44-.02-.72.15-.32.2-.25.07.19-.4.38-.39.8-.73.94-.74h0ZM108.53,136.82c-.14.02-.27.08-.4.17-.34.24-.25.28.46.21s.79-.13.41-.3c-.17-.08-.32-.11-.48-.08ZM110.48,136.78c.21-.02.32.08.25.23-.07.15-.3.28-.51.3s-.32-.08-.25-.23c.07-.15.3-.28.51-.3ZM106.39,137.69c.15-.01.23.06.24.19.03.34-.58.57-.96.39-.25-.13-.23-.22.07-.37.28-.14.49-.21.64-.22h0ZM86.79,139.84c-.13.01-.17.14-.07.26.1.13.23.23.29.23s.1-.12.09-.26-.14-.24-.29-.23h-.02s0,0,0,0ZM137.79,136.67c-.14.01-.49.26-.93.7-.38.38-.56.68-.39.67.16,0,.36-.14.43-.29.07-.15.25-.28.38-.29s.19.1.12.24c-.21.42.31.26.62-.2.24-.35.21-.38-.18-.19-.4.19-.42.17-.15-.23.2-.29.21-.43.11-.42h0ZM102.01,140.15c.14-.01.26-.03.36.02h0c.18.05-.02.12-.43.16s-.56,0-.32-.09c.12-.06.26-.08.4-.09h0ZM98.43,140.98c-.19.02-.39.16-.46.3-.07.15.1.24.39.22s.5-.16.49-.3-.19-.24-.38-.22h-.04s0,0,0,0ZM134.82,140.25c.1.04.17.13.19.32.01.11-.08.2-.21.14-.13-.06-.27.11-.32.39-.09.54-.66.79-.6.26.07-.65.63-1.19.93-1.11h0ZM133.34,141.45c.15-.01.21.09.14.24-.07.15-.18.27-.24.28s-.12-.1-.13-.24.09-.26.24-.28h0ZM130.45,143.25c.15-.01.28.09.29.23s-.02.26-.09.26-.19-.1-.29-.23c-.1-.13-.06-.25.09-.26h0ZM129.74,143.57c.13-.01.26.14.28.35s0,.38-.06.39-.18-.15-.28-.35c-.1-.2-.07-.37.06-.39ZM140.57,144.55c.05,0,.18.15.28.35.1.2.07.37-.06.38s-.26-.14-.28-.35,0-.38.06-.38ZM121.98,148.5s.05.06.01.13c-.07.14-.23.27-.36.28-.36.04-.3-.15.12-.36.11-.06.18-.07.23-.07h0ZM138.11,148.05c-.41.04-1.8,1.25-1.88,1.61h0c-.04.21.11.23.43.12.28-.1.49-.32.47-.48s.27-.51.62-.78c.36-.27.52-.49.37-.48h-.02s0,0,0,0ZM119.23,149.96c.23-.07.23-.02.15.17-.25.51-4.62,2.52-9.24,4.24-2.85,1.06-2.91,1.09-3.17,1.31h0c-.4.34-2.03.73-2.2.51-.15-.2,2.35-1.29,3.13-1.36.21-.02.57-.16.8-.33s1.62-.74,3.1-1.29c2.84-1.06,3.47-1.33,5.9-2.53.84-.42,1.3-.64,1.53-.71h0ZM73.31,155.79c-.09,0-.14.06-.13.09.01.12.28.25.6.28,1.48.14,1.57.01.22-.3-.29-.07-.54-.09-.69-.06ZM46.68,160.49c-.13.01-.01.18.27.35h0c.67.41.8.4.36-.04-.19-.19-.47-.33-.62-.32h-.02s0,0,0,0ZM91.46,156.64c-.13.01-.17.14-.07.26.1.13.23.23.29.23s.1-.12.09-.26-.14-.24-.29-.23h-.02s0,0,0,0ZM48.47,161.08l.86.32c.47.17.86.43.88.56.03.34,0,.33-.92-.31l-.82-.57ZM130.32,153.27c.07,0,.12.05.12.12.01.13-.15.26-.35.28s-.38-.01-.39-.06c0-.05.15-.18.35-.28.1-.06.19-.07.26-.08v.02ZM103.14,156.57c.15-.01.3.02.45.05.37.1.39.16.09.39-.52.4-1.53.45-1.44.07.07-.3.47-.49.91-.51h0ZM128.16,154.74s.05.06.01.13c-.07.14-.24.27-.37.28-.36.04-.3-.15.12-.36.11-.06.19-.07.23-.07h0ZM74.15,168.5c.21-.02.56.06.78.17.35.16.36.2.02.24-.21.02-.56-.05-.78-.16-.35-.16-.36-.21-.02-.24Z"/>
  </g>
</svg>