<?xml version="1.0" encoding="UTF-8"?>
<svg id="Layer_1" data-name="Layer 1" xmlns="http://www.w3.org/2000/svg" viewBox="0 0 180 180">
  <defs>
    <style>
      .cls-1 {
        fill: #1e6de0;
      }
    </style>
  </defs>
  <path class="cls-1" d="M168.58,130.07l.03-.43-.97-1.03.49-.83-4.18-3.61c-.01-.88-.61-1.19-1.28-1.66l-.03.43-.17-.1-1.04-1.3.1-.17.97,1.03-1.55-3.86.4.46-1.04-1.29.37-.23-1.51-2.03.53-.13-.87-1.2-.17-.1-1.65-3.69.57.56.1-.17c-.35-.84-.53-2.24-1.58-2.29l-.24-1.5-.6-.13c.77-2.97-.84-5.89-1.54-8.82-1.32-5.52-2.53-11.03-2.67-16.72-.06-2.24-.54-5.75.84-7.64l-.17-.1-.2.33-.17-.1c1.71-4.15,3.49-8.29,5.52-12.32,2.17-4.31,4.93-9.16,5.18-14.1-.85-.59-2.46-2.04-3.54-1.65l.2.8-.17-.1-.54-1-3.79,1.82c-1.79-.52-5.15.33-6.73,1.25-1.27.74-2.55,1.9-4.05,2.08-.58,1.06-1.89,1.82-3.09,1.78l-1.2.87-4.83,6.62-.17-.1.3-.5-.17-.1-.36,1.37-.63.3.4.46-1.39,2.34-.17-.1.3-.5-.17-.1-.59,1,.17.1.37-.24c-.33,1.74-2.3,4.6-1.78,6.35l.73-.87c.06.62-.12.86-.73.9,0,0,0,0,.01.05l-.56,1.7.17.1.83-.64-.53,1.27-.4-.46-.27.07-.16,2.17.3-.5.17.1-.46,1.54-.17-.1-.14-.53-.19,1.47.6.13-.71,3.87.17.1,1.73-1.01-.83.64,1.03.16,1.44-5.47-.74-.66-.66.73v-2.27s1.26,1.66,1.26,1.66l.17.1c1.39-3.29,1.64-7.04,3.35-10.21.87-1.61,3.54-4.24,3.57-6.02l.66-.74,3.74-2.75,4.19-2.48,5.99-1.87.17.1-3.5,5.15-.17-.1.5-.83-.17-.1c-.94,1.5-1.9,2.97-2.85,4.44l-.55,1.22-.16-.1c-2.93,4.57-5.62,9.2-6.72,14.77-1.24,6.34-.22,12.94,1.61,19.06,4.11,13.76,10.97,31.89,25.96,36.59l.45-.43ZM147.26,60.04c.23-.38.49-.74.72-1.12l.18-.38-.89,1.5ZM130.43,70.14s0,0-.01-.05l-.02.04h.05s-.02.02-.02.02ZM159.84,118.1l-.33-.2.2-.33.14.53ZM158.25,114.68l-.2.33-.47-.73.1-.17.57.56ZM157.28,112.52l-.2.33-.2-.8.4.46ZM143.17,131.72l-2.78-3.69-.64-.83-.17-.1-.43-.07.12-.57-1.74-1.26.1-.17.43.03-1.17-.69-.47-.73.1-.17.34.2.1-.17-.6-.13c-.06-.84-.6-1.55-1.34-1.92l-.91-1.9-1,.54-.57-.56,1.03-.97-.34-1.33c-1.09-.19-1.47-.45-2.17-1.29l-.23.77-.4-.47h-1.13s.66-.73.66-.73l-.6-.13.5-.84-.33-.6-.18.3-.13-.53.27.16-.94-1.69-.1.17.64.83-.1.17-1.24-2.09.64.83-1.62-2.99.11.97-.81-2.06.3.63c-.02-1.65-1.47-3.74-2.43-5.05l.11.96-1.08-1.99.5.3.1-.17-.77-1.36-.13.6-.98-2.16.4.46.13-.6-1.1-.43.53-.14.1-.17c-.14-.57-.6-1.47-1.08-2.42l-.19.31-.33-.2.2-.33.3.18c-.85-1.7-1.74-3.59-.93-4.4l.09-1.3-.07-.27c-1.1-.84-1.84-2.5-1.55-3.86l.4.47.13-.6-.7.04.59-2.13-.17-.1-.46.4c-.66-.72.02-1.75.19-2.6l.33.2c.6-1.93.25-4.04.49-6.03.51-4.19,1.67-8.39,3.35-12.25l-.43-.03.16-1.04,1.13-1.14.59-2.59,1.27-5.12-.8.2-.1.17v.38s-.47.03-.47.03l.4-.67-.6-.13.4-.67-.33-.2-.76.9.33.2-1.42,1.64,1.22-2.44c-.81.13-2.52,1.71-3.19.82l-.17-.1-4.16,7.02-.85,3.34c-2.26,2.38-2.94,7.71-3.42,10.85-.16,1.07.39,2.1-.11,3.1l.38,3.16c-1.66,1.95-.17,4.29,1.06,5.83-1.01.64-.03,2.92.15,3.93l-.34-.2.51,1.43.03-.43.17.1.27,1.06-.4-.46-.1.17.74.66-.43-.03-.1.17.97,1.03-.16,1.03.7-.04.1-.17-.62-3.53,1.86,5.62c1.68,1.79,3.23,5.02,4,7.34,1.11.83,2.05,2.46,2.25,3.82l-1.21-1.39c-.14.49-.09,2.16.61,1.26l.17.1c-.21.91.31,1.57.98,2.16l-.38-2.03,1.74,2.39-.1.17.87,1.19-.97-1.03.09-.16-.72.46,1.18,1.83c.54.32,1.57,2.84,1.84,1.09l.57.56-.83.64,1.21,1.39.27-.07-.67-1.53.1-.17,2.51,2.62c.07,1.14,1.47,2.62,2.28,3.39l-.1.17-.44-.03.57.56.03-.43.17.1-.06.87.17.1.63-.3-.47.4,1.78,1.96,1.16-.44-.23.77,1.03.16-.3.5,1.14,1.13,3.58,2.35-.13.6.53-.14,2.52,1.49ZM119.81,105.21l-2.32-2.95-.16,1.03,1.1.43-.1.17-.6-.13,1.84,2.22.34,1.33.73-.47-.84-1.63ZM115.8,97.87l-1.18-1.83,1.02,3.99.87.06-.64-.83-.17-.1v-1.13s.09-.17.09-.17ZM120.65,96.45s.03.02.01.05l.02-.03-.03-.02ZM129.48,113.89l.04.07.02-.04-.06-.04ZM156.34,107.22l-.23-.37-.2.33.43.03ZM154.98,106.86l-.2.34-.2-.8.4.46ZM155.4,105.76l-.47-.73.1-.17.37.9ZM151.44,112.45l-.73-.66.1-.17.64.83ZM139.07,127.03l-.52-.08.1-.17.42.25ZM148.88,107.99l-.33-.2.2-.33.13.53ZM133.14,118.54l-.57-.56.1-.17.47.73ZM132.61,118.67l-.5-.3.1-.17.4.47ZM132.83,116.77l-.5-.3-.1.17.6.13ZM131.63,111.55l-.33-.2-.2.33.33.2.2-.33ZM131.26,110.65l-.24-.37-.2.33.43.03ZM131.09,109.42l-.47-.73-.63.3-.1.17,1.2.26ZM130.58,107.98l-.47-.73v-1.13s-.33.94-.33.94l-.4-.47-.1.17.9.76-.63.3.84.5.2-.34ZM125.98,114.97l-.9-.76.47-.4.44,1.16ZM129.97,105.59l.28-3.9-.58-1.7-.86,1.07.11.97.17.1.4-.67.4.47-1.16.44,1.25,3.23ZM125.78,108.07l-1.24-2.09.1-.17,1.14,2.26ZM129.93,98.79l.03-.43-.17-.1.14.53ZM129.92,97.65l-.33-.2-.3.5.33.2.3-.5ZM129.23,98.82l-.14-.53-.3.5.43.03ZM124.56,105.55l-.64-.83.1-.17.54,1ZM141.56,76.76c-.08.13-.1-.02-.02-.09l.02.09ZM129.94,94.95l-.67-.4c.67-.8.99-2.37-.05-2.97l.13-.6-.7.04-.1.17.47.73-.26,1.2-.13.6-.63.3.53-.14.64.83-.96,1.24.17.1.6.13-.1-.97.67.4.4-.67ZM142,73.86l-.17-.1.56-1.7-.39,1.8ZM129.5,93.79l-.2.33-.33-.2.2-.33.33.2ZM152.02,53.15l-.17-.1-.4.67.56-.57ZM150.38,55.79c-.08.13-.1-.02-.02-.09l.02.09ZM130.08,89.39c-.27-.56-.39-.86-1-.59l.6.13.4.47ZM111.24,121.14l-1.24-.96-.4-.46c.37-.75.33-1.39-.11-2.1l-.33.93-.67-.4.2.8-.47-.73-.17-.1-.06.87-.74-.66,1.08,3.13,1,.59.1-.17.06-.87-1.24-.96.83-.64.1.97,1.37.36-.5.84,1.16-.44ZM109.89,123.05l-.23-.37-.2.33.43.03ZM129.83,87.89c.38-1.07.72-2.99.11-4l-1.59,1.54.77.23c-.15.61-.09.82.44,1.17l.27,1.06ZM127.95,91.06l-.53.13.33.2.2-.33ZM129.52,86.12l-.17-.1.23-.77-.06.87ZM121.32,98.43l-.2.33-.44-1.16.64.83ZM109.17,118.78c-.08.13-.1-.02-.02-.09l.02.09ZM130.2,82.68l-.07-.27-.7.04-.1.17.1.97.17.1.06-.87.53-.14ZM130.57,80.94c.11-.18.08-.41-.01-.76l-.43,1.1c.23-.11.36-.22.44-.34h0ZM109.39,116.66c-3.11-7.83-6.52-15.44-8.1-23.78-.42-2.22-1.8-5.69-1.13-7.9-.94-1.85-.61-4.24-.63-6.25-.05-5.2.73-10.01,1.54-15.13.27-1.7-.33-4.67-2.7-3.41l-.57-.56.43.03.1-.17-1.17-.69-.83.64-.4-.46-1.95,2.91c.29,1.23-.56,2.79-.8,4.05-.57,2.95-.68,5.74-.9,8.73-.09,1.22-.69,3.59.29,4.47l-.53.13.18,2.37c-.44.04-.8.33-.4.67-.8,1.01-1,4.19-.47,5.37l.44-.74-.1.93.53-.14-.69,2.3-.37-.9-.08,4.7.87.06c-1.73,1.46-1,5.9.24,7.6l.47-.4.57.56-.59,1,.34,1.33.67.4c2.72-1.6.84-6.61.75-9.27l-1-.59.1-.17.67.4-.25-2.63-.6-.13.1-.17.83-.64,1.63,5.26.56-.57.17.1-.09,2.37.8,1c-1.19,2.4,2.59,5.32,3.11,7.72l.27,1.06.77.23.11,2.1.17.1,1.68,2.12.03-.43.17.1,1.35,3.06.3-.5.1.97.6.13-.13.6.37.9.64.83.56-.57-.07-.27-1-.59c.77-.34,1.36-.52,1.9.22l.7-.04.46-.4ZM96.5,98.32l-.24-.3.24.37v-.07ZM149.43,49.13l-.37.23-.17-.1.53-.13ZM117.12,101.41c.18-.3.12-.51-.21-.86v1.13c.1-.09.16-.19.21-.27h0ZM130.34,78.92c-.08.13-.1-.02-.02-.09l.02.09ZM120.09,95.44c-.08.13-.1-.02-.02-.09l.02.09ZM146.01,50.71l-2.03,1.51-.17-.1c.39-.99,1.18-1.3,2.12-1.68l.07.27ZM107.08,115.97l-1.03-.16c.45-.43.79-.43,1.03.16ZM132.29,73.08l-.16-.1.13-.6.03.7ZM119.35,91.84l-.27.07-.2-.8.47.73ZM105.63,113.07l-.33-.2.2-.33.14.53ZM135.02,62.73l-.7.04.33-.93.37.9ZM137.9,56.98c-.08.13-.1-.02-.02-.09l.02.09ZM131.84,66.94l-.43-.03.2-.33.24.36ZM96.84,119.83l-.5-.3-.03.43-.14-.53.73-1.8-.22-2.87c-.97-3.06.02-7.62-1.79-10.32l-.87-.06c-.68.47-1.08.32-1.74-.12l.34,1.8-.21,1.64,1.24,3.01.83.49-.14-.53.1-.17.4.46-.62,1.44-.4-.46.37-.24-.64-.83.1-.17-.4-.46.55,3.26-1.04-.16c.31-1.31-1.11-4.33-2.26-4.95.08-1.44-1.13-3.36-2.22-4.25l.46-.4c-1.31-2.12-2.03-4.46-3.03-6.74-2.89-6.6-5.6-13.96-6.02-21.19-.19-3.35-.28-7.46,1.35-10.52-.56-.44.08-.7.43-1.1-.48-.86-.32-1.53-1.44-1.76l.37-.23-1.7.57.46-.4-.83.64-.04-.7-2.52,2.35.3.63-.4.67-.17-.1-.14-.53-.46,1.54-1.66,2.41.3.63-.4-.47v1.13s-.4-.47-.4-.47l-.85,2.21.17.1.3-.5.17.1.27,1.06.73-.47-.86,2.2-.51-.95-1.25,2.39-.8-.93-.23.77.5.3-.63.3-.1.17c.55,1.89.22,5.97-.73,7.7l1.38,2.62-.84-.5.11,2.1.53-1.27.28,2.2-.4.67.17.1.99-1.67.47.73.22-1.9-.43-.03-.11-.97.1-.17.6.13c.31-.88.6-1.62-.28-2.2l.53-.14.1-.17.06-.87-1.1-.43c1.12-.1,1.42-.84.82-1.77l1.21-4.71-.57-.56,1.61-4.24c.92,1.54.9,5.99.57,7.8l.23.37.24.37.47.73c-.5,1.1-.29,2.38.55,3.26l.8,2.13.17,2.05,1.1,3.37c.46.27,1.4,1.2.67,1.53.87,1.49,2.38,3.22,2.26,4.95l.3.63,2.25,4.58,2.02,2.85,1.78,2.94,1.55,3.86c1.65,1.02,3.41,4.72,3.8,6.54l1.44,1.76.87.06,1.33-1.47ZM72.2,73.85l.09-.14-.1.1.02.04ZM72.29,73.71l.46-.47-.17-.1-.3.56ZM113.24,90.06c-.04.07-.13.15-.2.23l-.51-.69.2-.33.27-.07c.24.36.38.6.25.86h0ZM118.17,80.07l-.17-.1.23-.77-.06.87ZM118.38,78.84c-.08.13-.1-.02-.02-.09l.02.09ZM95.98,116.61c-.08.13-.1-.02-.02-.09l.02.09ZM118.3,78.33l-.17-.1.13-.6.04.7ZM95.53,116.34l-.2.34-.2-.8.4.46ZM95.75,114.44l-.87-.06-.17-.1.76-.9.33.2-.06.87ZM94.65,114.01l-.37.23-.17-.1.23-.77.3.63h0ZM95.9,111.14l-.3.5-.73-.66,1.03.16ZM95.55,109.81l-.66.73-.17-.1.26-1.2.57.57ZM111.73,81l-.17-.1.22-1.9-.05,2ZM111.75,78.29l-.17-.1.16-1.03v1.13ZM111.84,76.99l-.17-.1.52-3.53-.35,3.63ZM124.14,56.04l-.17-.1.18-.46v.56ZM93.97,106.61c-.08.13-.1-.01-.02-.09l.02.09ZM93.17,107.72l-.47-.73.2-.34.27-.07.33.2-.33.94ZM90.11,110.19l-.9.37-.2-.8,1.1.43ZM94.45,102.37c-.08.13-.1-.02-.02-.09l.02.09ZM113.17,70.55l-.17-.1.4-.67-.23.77ZM94.37,101.87h-1.13s.13-.59.13-.59l.74-.19.27.78ZM114.18,67.31l-.17-.1.82-1.77-.66,1.87ZM92.36,101.81l-.33-.2.14.53.2-.34ZM88.29,107.53l-.04-.7.17.1-.13.6ZM87.92,106.63l-.57-.56.1-.17.47.73ZM87.02,105.87l-.17-.1.23-.77-.06.87ZM93.63,90.14l-.2.33-.14-.53.33.2ZM91.58,93.22l-.2.34-.13-.53.33.2ZM85.76,102.64c-.85-.27-1-.72-.67-1.53l.67,1.53ZM93.53,89.17l-.93.81.06-.87.87.06ZM92.59,88.84l-.17-.1-.04-.7.2.8ZM92.08,83.57l-.17-.1.23-.77-.06.87ZM73.6,111.7c.23-.51.12-.62-.37-.9l.23-.77-.77-.23.8-.2.09-1.3-.17-.1-.66.74.49.29-.6-.13.1-.17-.87-1.19.2-.34,1.1-.71-.17-.1-.53.14.23-.77.6.13-.44-1.16-.63.3.46-1.53-.17-.1.33-.94-.57-.56c-.31.74-.6,1.54-1.49,1.37l-.59,1-.17-.1.45-2.67-.17-.1-.59,2.14-.84-.5-.1.17.64.83-.69,1.17-.4-.47-.4.67.07-4.7.61,1.26.4-.67-2.38-4.74-.07.12c-.07-.16-.1-.31-.1-.47l-.03-.06.03.06c-.02-.51.18-1.04-.04-1.61-1.22-3.19-2.58-6.74-3.01-10.17-.17-1.37.29-4.68-.71-5.62l1.57-6.07-.6-.13.33-.93-.97.11-2.3-.69-3.15,3.78-.5-.3.4.47-.1.17-.6-.13-.1.17.94.33-2.05,3.08c-.73-.16-1.08.1-1.53.67l1.06-.27-.36,1.37.6.13-.66.74-.3-.63-.69,1.17-.4-.47c-.41.91-2.93,3.2-1.78,4.14l-.49,1.97-.68,3.44.33.2.9-.37-.59,2.14-.47-.73-.36,1.37.34.2.8-.2-.4.67.5.3-.26,1.2-.87-1.2c-.33.99-.45,1.79.25,2.63l.13-.6.34,1.33-1-.59v4.97s-3.37-6.51-3.37-6.51c.25-.71-.2-1.34-.3-2.08-.28-1.95-.81-3.76-1.35-5.65-1.24-4.33-1.87-9.29-2.21-13.76-.08-1.06-1.09-4.93-2.84-3.04l-.3-.63-.17-.1-.77-.23-.79,1.34c-.93.19-.85,1.56-1.02,2.33-.44,1.99-2.6,5.35-1.5,7.25l-.73.47c-.44,1.64-1.56,4.4-.87,6.03l-.52,2.4.6.13-.76.9.4.46-.18,4.86.37.9c-1-1.3-1.4-3.03-2.06-4.52-1.75-3.9-4.88-8.45-3.06-12.75l-.87-.06c.41-1.05-.45-1.56-1.17-.69l-.17-.1-.2-.8-.69,1.17-.14-.53-1.1-.43c-1.08,1.19-3.35,4.36-2.43,6.01l-.93.8,1.04.16-1.09,1.84.16-1.03c-.8.15-.91,1.11-1.17,1.79-.7,1.88-1.29,3.85-1.56,5.85l.17.1.23-.77c.18.82-.09,1.28-.66,1.87l.5.3-.29,1.64-1.14-1.13-1.03.97.04,1.83-.84-.5-.14-.53.86-1.07-.6-.13-.13-.53.93-.8.74.66c.02-1.12-.57-2.08-.87-3.14-.54-1.95-1.02-4.06-1.44-6.02-.46-2.11.52-3.7.45-5.61-.04-1.02-1.1-1.4-1.89-1l-.67-.4-.59,1-.17-.1.3-.5-.17-.1-.93.8-.53.14-.07.25.35-.09-.2.33-.19-.11-.11.39-.1.17-.43-.03.16,5.07c.55.28,1.03.68.61,1.26l-.1.17,1.17,1.83c-.16,2.81,2.25,5.19,2.84,7.78,1.06.37,1.8,2.48,2.91,1.95l-.06.87,1.47.19c.66-1.01,2.52-1.84,1.88-3.17l.1-.17.95-2.37,2.07-6.91,1,.59-.47.4,3.02,5.58,2.06,3.76,2.08,3.72c1.07.75,1.36,2.3,2.58,2.85.84.38,1.94-.55,1.76-1.41l.1-.17.67.4.15-2.17.73-.47v-10.16s-.24-3.53-.24-3.53l.47-.4c-.52-.49-.18-.95.19-1.47l-.12-3.23.93-.8c.96,1.57-.21,3.89,1.56,4.99-.74,2.22,1.1,6.64,2.06,8.72.41.89.61,1.94,1.6,2.26-.45,1.14.52,2.91,1.58,3.42l1.82,3.79,2.48,3.05,1.96-1.78.17.1.13.53c.24-.61,1.38-2.73.45-2.67.46-1.8,1.46-3.91.04-5.4.72-.73.77-1.46.25-2.34l.92-1.94-1-.59.95-2.37-.6-.13.19-1.47,1.18-4.27-.17-.1-.2.34-.17-.1.99-1.67-1.03-.16,1.72-2.14.17.1-.13.6.69-1.17-.7.04,1.32-2.61.2.8.17.1-.11-.97.56-.57.5.3.36,4.73.35,3.6.67.4-.53.14c.2.73.74,3.51,1.68,3.26l.18,2.37c1.07.73,1.87,2.23,1.75,3.52l.77.23,1.19,4.09.47-.4.95,2.59c2.4,1.99,2.29,6.06,4.54,8.34l-.07-1.4.84.5-.09,1.3-.5-.3c.16,1.05.71,1.7,1.68,2.12l1.29-2.17h.03ZM10.23,81.57l.03-.13-.18.05.15.09ZM66.45,96.42l.17.34.03-.05-.2-.3ZM82.64,96.05l-.3.5-.61-1.26.1-.17.8.93ZM71.96,111.63c-.08.13-.1-.02-.02-.09l.02.09ZM72.4,108.72l-.2.33-.14-.53.34.2ZM73.04,105.72l-.5-.3.1-.17.4.47ZM71.66,107.16c-.08.13-.1-.02-.02-.09l.02.09ZM70.16,109.43l-.43-.03.2-.33.24.37ZM70.58,107.2l-.49.83-.58-1.7.67.4.17.1.24.37ZM69.3,108.47c-.08.13-.1-.02-.02-.09l.02.09ZM69.42,107.63l-.2.33-.4-.47.1-.17.5.3ZM72.68,100.98l-.21-1.93-.17-.1-.79,1.34.67.39-.14-.53.33.2-.2.33.51.3ZM71.98,102.15l-.34-.2-.2.34.34.2.2-.34ZM68.74,106.1l-.2.34-.47-.73.1-.17.57.56ZM72.42,97.22l-.1-.97-.34-.2-1.62,1.98.67.4.07.27-.26,1.2.92-3.07.47.73.2-.34ZM67.72,104.37c-1.09-.6-1.39-2.25-1.85-3.36l.1-.17.8.93.06-.87c.9.42.73,1.22.38,2.03l.6.13-.09,1.3ZM72.11,95.45c-.49-.44-.78-.53-1.3-.09l-.74-.66-.72,1.6.17.1.34.2.17.1.53-1.27,1.1.43.46-.4ZM70.03,98.96l-.53.14.33.2.2-.33ZM70.48,97.42l.23-.77-.17-.1-.06.87ZM67.1,101.97l-.7.04.5.3.2-.33ZM71.72,92.28l.26-2.33c-1.25.46-1.85.83-1.99,2.21l.56-.57.44,1.16c.17-.46.26-.75.73-.47h0ZM70.43,94.46l.63-1.44-.83-.49-.66.74-.27-1.06-.09,1.3,1.1.43-.57.57.17.1.53-.14ZM65.76,100.04l-.5-.3.37-.23.17.1-.03.43ZM65.19,99.48l-.17-.1.3-.5-.13.6ZM69.56,89.42l-.24-.37-.2.33.43.03ZM71.87,84.01l-.44-.03.2-.33.24.37ZM69.99,83.35l-.34-.2.2-.33.14.53ZM63.21,94.01l-.34-.2.2-.34.14.53ZM71.33,74.2l-.04-.7-.27.07.3.63ZM49.84,107.77l-.33-.2.2-.33.14.53ZM60.22,89.75c-.08.13-.1-.02-.02-.09l.02.09ZM52.1,100.52l-.17-.1.4-.67-.23.77ZM51.64,97.09l-.16-.1.23-.77-.06.86ZM51.51,95.66l-.09.02c.02-.1.17-.15.09-.02ZM52.96,92.45c-.08.13-.1-.02-.02-.09l.02.09ZM51.72,88.55l-.9.37.5-.84.4.47ZM58.2,77.49c-.08.13-.1-.02-.02-.09l.02.09ZM36.54,87l-.2.33-.33-.2.53-.14ZM34.7,87.79c-.13.14-.3.23-.59.26l.76-.9c-.02.29-.06.5-.17.64ZM35.48,83.44l-.17-.1.26-1.2-.09,1.3ZM33.96,85.48c-.08.13-.1-.02-.02-.09l.02.09ZM34.71,83.21l-.37.24-.17-.1.53-.14h0ZM38.64,71.08l-.09.02c.02-.1.16-.15.09-.02ZM18.77,97.71l-.09.02c.02-.1.16-.15.09-.02ZM17.47,99.65l-.5-.3.1-.17.4.46ZM16.15,99.09c-.08.13-.1-.02-.02-.09l.02.09ZM20.47,88.09l-.56.57-.17-.1.73-.47h0ZM15.29,92.48c-.08.13-.1-.02-.02-.09l.02.09ZM13.66,94.22l-.1.17-.5-.3.1-.17.5.3ZM11.29,81.75l-.17-.1.13-.6.04.7ZM10.34,81.19l-.17-.1-.1.17.27-.07ZM10.08,81.26l-.27.07.17.1.1-.17ZM10.88,80.15l-.24-.37-.2.33.43.03Z"/>
</svg>