<?xml version="1.0" encoding="UTF-8"?>
<svg id="Layer_1" data-name="Layer 1" xmlns="http://www.w3.org/2000/svg" viewBox="0 0 180 180">
  <defs>
    <style>
      .cls-1 {
        fill: #1e6de0;
      }
    </style>
  </defs>
  <g id="layer1">
    <g id="g3526">
      <path id="path2878" class="cls-1" d="M74.43,173.28v1.3h.52l-.52-1.3"/>
      <path id="path2873" class="cls-1" d="M79.62,157.97l.26.26-.26-.26"/>
      <path id="path2851" class="cls-1" d="M85.59,117.5l.26.26-.26-.26"/>
      <path id="path2849" class="cls-1" d="M109.2,99.86l.52.52v-.52h-.52"/>
      <path id="path2848" class="cls-1" d="M53.16,98.82c-3.02,2.83-4.27,7.21-6.47,10.64-2.15,3.35-5.2,7.09-7.86,10.07-3.15,3.54-6.55,6.14-6.16,11.2l.78-.52c.75.49,1.1.24,1.82-.26l-.78,1.56h2.08c.23-1.9,5.19-2.47,5.19-4.93l4.2-3.25,8.51-5.31.26.78,2.59-.52.78-1.3c1.01.25,1.74.11,2.33-.78h-1.04v-.26l1.56-.52v1.56l.78-1.04c.97.49,3.02.48,2.08-1.04l.52-.26v-.26l-2.08-.26.26-1.04c-2.37-.44-4.71-.71-7,.05-.75.24-1.25,1.39-.26,1.51v.26c-1.66-.39-2.6-1.26-4.15,0l-.52-.78c.91-.51,1.15-1.05,1.04-2.08l2.59-1.3.52-3.11c.79-.08.96-.35.52-1.04l.52-1.3.78-1.82h-.78l.52-.52-1.04-1.56.78.26h1.56l-.26-2.33h-.26v.78h-.26v-.78l-2.59,1.56.52-1.04-1.04.26-.52-1.3M57.31,100.64l-.26.26.26-.26M55.15,101.07l-.09.17.09-.17M55.24,107.39l-.26.26.26-.26M51.09,108.68l-.26.26.26-.26M54.2,109.46l.26.26-.26-.26M50.31,110.24l-1.56,2.08,1.04-2.08h.52M58.35,114.13v.26h-.78l.78-.26M52.38,114.91l-.26.26.26-.26M63.28,114.91l.26.52h-.52l.26-.52M61.46,115.43l-.26.26.26-.26M46.16,116.03c.2,0,.04.13-.09.09l.09-.09M58.35,115.95l-.26.78h-.52l-.26-.78h1.04M50.83,116.47l-.26.26.26-.26M52.38,116.72l-.26.26.26-.26M53.68,116.98v1.3l-1.56.26v-.26l.78-.26-.26-.78,1.04-.26M49.01,119.06l-.26.26.26-.26M49.53,119.32v.78h-.26l.26-.78M35.52,129.7l-.26.26.26-.26"/>
      <path id="path2847" class="cls-1" d="M108.94,98.3l.26.26-.26-.26"/>
      <path id="path2846" class="cls-1" d="M55.76,98.3l.26.26-.26-.26"/>
      <path id="path2844" class="cls-1" d="M109.46,95.97l1.3,5.97-2.33-1.56c.21,2.25,1.56,8.01,3.89,8.82v1.56c-1.52-.25-5.05-2.77-5.45-.78-2.26-1.78-5.17-.87-7.26.78v.52l2.33,1.3-2.33.26c2.07,3.33,6.66.31,9.08,2.85,1.67.06,3.15.8,3.89,2.33l1.04-.52c.48,1.62,2.35,2.23,3.74,2.96,2.47,1.29,4.71,4.73,7.67,4.82l2.33,1.56h.26c.58-.53.88-.68,1.56-.26h.26c.61-.89.27-1.34-.78-1.3v-.78l1.56.26v-.26l-1.04-.78c1.4-2.24-.81-4.8-2.24-6.47-3.24-3.81-6.41-7.46-9.46-11.43-1.41-1.83-3.04-4.9-4.9-6.23l.26-.52-1.04-1.82h-1.04l.26-1.3h-1.56M112.05,100.38l.26.78h-.52l.26-.78M112.83,100.64l-.26.26.26-.26M112.57,101.76l.09.09c-.13.04-.29-.09-.09-.09M114.39,103.23l-.26.26.26-.26M109.72,103.49l-.26.26.26-.26M111.01,105.83l-.26.26.26-.26M108.42,110.5v.52h-.78v-.52h.78M106.86,111.02l-.26.78h-.26l.52-.78M112.05,111.8l-.26.26.26-.26M107.12,112.05l-.26.52h-.26l-.26-.52h.78M108.33,112.23l-.09.17.09-.17M112.57,112.05l-.26.26.26-.26"/>
      <path id="path2843" class="cls-1" d="M95.1,95.36l-.09.17.09-.17"/>
      <path id="path2839" class="cls-1" d="M111.44,88.27l.17.09-.17-.09"/>
      <path id="path2837" class="cls-1" d="M33.96,85.33l.26.26-.26-.26"/>
      <path id="path2836" class="cls-1" d="M126.32,84.03v.52h.52v-.52h-.52"/>
      <path id="path2833" class="cls-1" d="M32.58,80.23l.17.09-.17-.09"/>
      <path id="path2832" class="cls-1" d="M33.19,79.62l.26.26-.26-.26"/>
      <path id="path2831" class="cls-1" d="M116.2,79.11l.26.26-.26-.26"/>
      <path id="path2825" class="cls-1" d="M57.31,74.44l1.56-1.04-1.56,1.04"/>
      <path id="path2824" class="cls-1" d="M58.18,72.79l.09.17-.09-.17"/>
      <path id="path2822" class="cls-1" d="M60.43,71.32l-1.3,1.82,1.56-.78-.26-1.04"/>
      <path id="path2821" class="cls-1" d="M62.41,71.15l.17.09-.17-.09"/>
      <path id="path2820" class="cls-1" d="M61.72,71.06l.26.26-.26-.26"/>
      <path id="path2819" class="cls-1" d="M113.09,70.29l.26.26-.26-.26"/>
      <path id="path2817" class="cls-1" d="M67.69,66.39l-.78.52v.26l.78-.78"/>
      <path id="path2816" class="cls-1" d="M115.68,65.62v1.56h.26l-.26-1.56"/>
      <path id="path2815" class="cls-1" d="M68.99,65.36l.26.26-.26-.26"/>
      <path id="path2814" class="cls-1" d="M115.68,64.58v.78h.26l-.26-.78"/>
      <path id="path2813" class="cls-1" d="M69.76,64.32v.26h.78l-.78-.26"/>
      <path id="path2812" class="cls-1" d="M72.62,63.02l.26.26-.26-.26"/>
      <path id="path2811" class="cls-1" d="M70.54,62.76l.26.26-.26-.26"/>
      <path id="path2810" class="cls-1" d="M71.32,61.72l.26.26-.26-.26"/>
      <path id="path2809" class="cls-1" d="M73.92,58.61v.52l.52-.52h-.52"/>
      <path id="path2808" class="cls-1" d="M76.25,57.05l.26.26-.26-.26"/>
      <path id="path2807" class="cls-1" d="M95.01,54.11l.09.17-.09-.17"/>
      <path id="path2806" class="cls-1" d="M78.5,52.99l.17.09-.17-.09"/>
      <path id="path2805" class="cls-1" d="M59.39,51.35l.26.26-.26-.26"/>
      <path id="path2804" class="cls-1" d="M58.35,51.35l.26.26-.26-.26"/>
      <path id="path2803" class="cls-1" d="M57.83,51.09l.26.26-.26-.26"/>
      <path id="path2802" class="cls-1" d="M44.08,51.09l.26.26-.26-.26"/>
      <path id="path2801" class="cls-1" d="M70.54,50.83l.26.26-.26-.26"/>
      <path id="path2800" class="cls-1" d="M55.76,49.53l.26.26-.26-.26"/>
      <path id="path2799" class="cls-1" d="M105.05,48.23l.26.26-.26-.26"/>
      <path id="path2798" class="cls-1" d="M83,45.38l.26.26-.26-.26"/>
      <path id="path2796" class="cls-1" d="M84.55,41.49l.26.26-.26-.26"/>
      <path id="path2795" class="cls-1" d="M134.36,40.71l.26.26-.26-.26"/>
      <path id="path2794" class="cls-1" d="M85.59,39.15l.26.26-.26-.26"/>
      <path id="path2793" class="cls-1" d="M32.41,35.78l.52.78-.52-.78"/>
      <path id="path2791" class="cls-1" d="M34.22,35l-1.04,1.04.26,1.04-1.56.26v2.08l-.78.26.52,1.04-.52-.26v.26l1.82.78-.52.78.26.52c1.37.77,2.32,2.13,3.64,3.01,3.4,2.28,6.59,3.71,9.33,6.84v.26l-.26,1.04.78-.26.78,2.59.52-.26.26.26c-.41,1.08-.49,2.37.52,3.11v2.85l2.08,1.56.26-2.08c5.96.57,4.62-6.27,2.68-9.6-.69-1.19-1.96-2.37-.87-3.63.3.85.69.94,1.56.78l1.56.78-1.82-1.56,2.08.78c.98-.16,1.68-.05,1.82,1.04,1.23.48,2.81,1.07,3.63-.26l1.82.26-.26-.52,1.3.26-.52.78,4.93.52.52-1.3h.26l.78,1.04c.04-1.17-.41-1.55-1.56-1.3-.47-1.42-2.1-1.31-3.37-1.56-2.12-.4-4.74-1.34-6.49-2.6l-6.23-1.3-4.15-2.33-5.97-2.59c-.24-1.25-1.3-1.3-2.33-1.79-1.99-.94-3.45-2.33-5.71-2.62M35.78,35.52l.26.52h-.52l.26-.52M33.96,37.34v.26h-1.04l1.04-.26M39.15,37.6l-.26.26.26-.26M32.15,38.64l-.26.26.26-.26M33.1,41.92l-.09.17.09-.17M35,43.31l-.26.26.26-.26M36.3,44.34l5.19,3.37c-2.13-.22-4.2-1.65-5.71-3.11l.52-.26M51.86,46.76l.09.09c-.13.04-.29-.09-.09-.09M52.64,46.94l.78.26v.26l-1.04-.26.26-.26M54.72,46.94l1.3,1.04v.26l-1.82-.26v-.26l.52-.78M53.16,47.98v.26l-1.82-.52,1.82.26M42.01,47.98l-.26.26.26-.26M42.78,48.23l1.04,1.04-1.04-1.04M62.76,48.75v.26h-.78l.78-.26M63.54,49.27l-.26.26.26-.26M62.24,49.62c.2,0,.04.13-.09.09l.09-.09M47.97,50.83l-.26.26.26-.26M48.66,52.3l-.09.17.09-.17M46.93,55.24l-.26.26.26-.26M48.49,59.74c.2,0,.04.13-.09.09l.09-.09"/>
      <path id="path2787" class="cls-1" d="M99.6,27.74v.78l.52-.78h-.52"/>
      <path id="path2786" class="cls-1" d="M103.75,45.38l1.04,2.08h1.3l-.52,1.04,1.3-.26v.26l-.52.52h4.41l1.04-.26v-.52l5.45-1.3-5.96,9.6-2.08,4.67.52,2.08-1.04.52h.78l-.78,1.04,1.56,3.11.26-.78,1.04,1.04-1.56.26v.52l.78-.26c.82.77,1.53,1.48,2.59.78.89.47.95-.29.78-1.04h1.56c-.86-1.55-.87-3.26-.26-4.93h.26l.52.52c.05-1.23,1.97-4.88.52-5.19v-.26l.78-1.04.52.78.78-2.08.26-2.85c1.09.42,1.51.05,1.82-1.04l.52.52.26-.26-.52-.26v-.26l4.41-3.37v-.26l-.78.26v-.26l3.11-2.33,4.67-4.15.26-.78.78.52v-1.04c2.38-1,3.43-4.32,6.23-4.15.73-1.85,2.03-2.14,3.59-3.1,2.31-1.42,4.61-3.21,5.49-5.72l-1.3-.78-1.04.26.26-1.3c-3.28-1.62-7.55,2.83-10.64,4.11-4.76,1.96-8.84,5.03-13.49,7.18-6.18,2.86-12.99,4.91-18.94,8.16M133.58,41.23l-.26.26.26-.26M128.13,45.9l.26.26-.26-.26M117.5,46.68l-.26.26.26-.26M124.76,48.75l-.52.52.52-.52M122.95,50.57l-.26.26.26-.26M122.43,50.83v.52h-.52l.52-.52M117.5,51.61l-1.04,1.3,1.04-1.3M116.2,54.2l-1.04,1.04,1.04-1.04M118.54,54.46l-.26.26.26-.26M119.05,54.98l-.26,1.04h.26v-1.04M118.28,56.28l-.26,1.3h-.26l.52-1.3M116.98,59.13l-1.3,4.15h-.26l1.56-4.15M111.53,68.47l-.26.26.26-.26"/>
      <path id="path2785" class="cls-1" d="M91.56,18.14l-2.33,5.19c.46,1.36.22,2.84-.78,3.89l-1.3,9.6h-.26l-.52-.52.52.52c-.2,1.31-.61,3.65-2.08,3.89l.52.52v.26c-.86.59-1.65,1.34-.52,2.08l-1.3,2.85c-1.75-1.1-2.5,4.18-4.15,4.93v.26l.78.78h.78l.78-1.04-.78,2.08-1.82-.52-.52.52-1.82,2.85,1.82-1.56-1.3,1.56-.78,2.33-.78-.52-2.85,4.41h-.26l.26-.78-.78.78,1.04.26,1.82-2.59h.26c-.9,3.44-4.67,5.65-7.26,7.73-1.08.86-1.95,1.98-3.37,2.13l-4.15,4.15-9.86,2.85-2.08.78-4.67.26c-2.18,2.22-9.03-1.25-9.6,2.33l-1.82,1.04,2.33,1.04v.26l-1.82.26-1.04-1.04,1.56,2.08-.52.52,1.56.26,1.56.78.52,1.3h.26l1.04-.52v.26l-.78.26v.26c4.99.42,9.89-2.36,14.55-.11,3.63,1.75,8.13,3.41,10.95,6.36,3.76,3.94,8.75,10.03,10.44,15.28,1.2,3.72.39,7.83.53,11.67.44,12.17-1.13,24.53-1.94,36.69-.3,4.53-1.81,9.61-1.01,14.15.28,1.58,1.76,2.85,2.28,4.42h.26v-1.3h1.04l-1.04-.78v-.26l.78.26v-1.56l.78-.52c.36,1.16.31,2.12,1.56,2.59l-.26-.78,2.08-2.33-.78.26,1.04-2.33-.78-.26.26-.78.26.52h.26v-1.04l-.52.26v-1.04c1.25-.17,1.02-2.01.52-2.85l.78-.26v-1.3l-.56-1.21.82-5.53.26.78h.26l.26-8.3c1.29-1.12,1.32-6.75,1.46-8.49.08-.98-.5-2.03.36-2.67v-.26h-.78v-.78l1.56-2.08.52-9.34,1.04.52,1.3-8.82h.26v1.3h.26l.78-2.08-1.04-.26v-.26c.92-.15,1.31-.34,1.3-1.3l2.05-4.82,4.21-9.19,1.79-4.67.78-.26-.52-1.04,1.3-.26,4.15-4.67c1.86.29,3.59-.68,5.45-.77,4.52-.21,9,.14,13.49-.52,2.05-.3,5.26.75,5.45-2.34.84-.18.78-.55.52-1.3l-2.08-.26v-.26h2.33c-.47-2.18-3.08-2.85-4.93-2.08v-.78c-1.05-.51-2.35-1.17-3.11,0l.78-.26-.26.78-2.59-1.56-1.56.52c-.13-.76-1.13-.48-1.82-.59-1.72-.29-3.6-1.1-5.19-1.82-4.24-1.93-8.04-4.16-10.22-8.49-.87-1.73-1.64-3.27-1.96-5.19-.16-.95-.01-2.54-.8-3.11l1.04-10.9v-.26l-.26-2.85.52.26.26-1.56-.52-1.3h.26v.52h.26c-.38-1.43-.36-2.59.78-3.63l2.85-11.93-.52.26,1.04-3.89h.26l.52.52,4.67-16.86h-.26l-.52.52,1.04-3.63-1.82,1.3.26-2.33-1.3.78-1.04-.52-1.04,1.04c-.41-2.47-2.83-.25-3.66.82-2.1,2.69-6.04,7.76-5.68,11.37M101.93,6.47l-.26.26.26-.26M96.48,40.19l-.26.26.26-.26M95.71,44.6l.26.26-.26-.26M83.25,46.42l-.26,1.3h-.26l.52-1.3M82.48,48.49l-.78.78.78-.78M82.48,49.27l.26.78h-.78l.52-.78M78.76,54.11l-.09.17.09-.17M80.4,53.94l-.52.52.52-.52M79.62,55.76l-.78.78.78-.78M78.84,56.79l-1.04,1.56,1.04-1.56M75.99,58.87l-.52,1.3-1.3.52,1.82-1.82M84.29,61.46c.22,4.76,1.55,12.93,5.45,16.08l-.26-.78,1.04-.26.78,1.04-1.3-.52c.46.61.81,1.14,1.56.78h.26l1.3,1.04-1.3.78,1.04,1.04-.26-1.04,1.04,1.56-.78-.26,2.59.52,1.3.78-7.14,6.74-8.16,15.05-1.04-2.08-.78.26-1.3-2.59h.52c-3.36-6.26-10.31-14.31-17.12-16.86l1.04-.52c-.02-1.38,2.44-2.11,3.63-2.59v-.26l-1.3.26v-.26c2.54-1.47,6.08-5.71,9.08-5.71l1.82-1.56-.52.78,1.3-1.3-.78-.26,5.19-6.49,2.08-1.04v-1.56l1.04-.78M81.44,63.8l-.26.26.26-.26M94.93,66.39l-.26.26.26-.26M61.2,71.06l1.82-.26v-.26l-.52-.26,1.82.26v-.26l-.78-.26,3.11-2.59c-1.61.27-4.48,2.33-5.45,3.63M99.08,72.36l.26.52-.26-.52M74.95,73.14l-.26.52.26-.52M72.62,74.96l-1.3,1.3,1.3-1.3M88.96,75.99l-.26.26.26-.26M68.47,78.07l2.59-1.56-2.59,1.56M67.95,78.07l-1.56,1.04v.26l1.56-1.3M91.55,78.33l.26.26-.26-.26M93.63,79.11l-.26.26.26-.26M91.03,79.37l.52.52-.52-.52M119.83,80.92l-.78-.26.78.26M63.28,81.44l.26.26-.26-.26M97.52,81.53l.09.09c-.13.04-.29-.09-.09-.09M93.89,81.7l.26.26-.26-.26M95.36,82.56l.17.09-.17-.09M125.8,84.04l-.26.26.26-.26M46.93,85.07l-.26.26.26-.26M45.64,85.33v.26h-1.04l1.04-.26M40.45,86.63l-.26.26.26-.26M79.19,100.29l.09.17-.09-.17M80.92,103.75l-.26.26.26-.26M81.18,104.27l-.26.26.26-.26M85.07,118.28l-.26,1.04h-.26v-1.04h.52M78.58,164.2l-.26.26.26-.26M77.81,169.39l.26.26-.26-.26"/>
      <path id="path1478" class="cls-1" d="M102.19,4.39l.26.26-.26-.26"/>
    </g>
  </g>
</svg>