<?xml version="1.0" encoding="UTF-8"?>
<svg id="svg8" xmlns="http://www.w3.org/2000/svg" viewBox="0 0 2986.32 1080">
  <defs>
    <style>
      .cls-1 {
        fill: #fff;
      }
    </style>
  </defs>
  <path class="cls-1" d="M142.4,613.84c0-155.01,86.43-254.59,218.42-254.59,124.95,0,211.38,93.94,211.38,229.69,0,23.48-13.62,37.58-36.64,37.58H206.28c0,114.61,61.53,182.72,158.76,182.72,68.11,0,114.14-28.65,146.08-89.71,6.11-9.4,13.15-13.62,23.49-13.62,16.44,0,27.71,10.33,27.71,27.24,0,5.17-1.88,12.21-4.7,19.26-27.71,69.52-98.64,111.33-189.76,111.33-140.45,0-225.46-93-225.46-249.89ZM508.31,577.2c-1.41-98.17-61.07-163.46-147.96-163.46s-148.43,64.82-153.6,163.46h301.56Z"/>
  <path class="cls-1" d="M606.88,612.43c0-154.07,87.37-253.18,220.77-253.18,91.12,0,170.04,51.67,190.23,123.54,1.41,5.63,2.35,11.27,2.35,15.97,0,16.44-10.33,27.24-26.3,27.24-14.09,0-21.61-6.11-30.06-22.07-23.96-58.71-71.87-89.72-135.75-89.72-95.35,0-157.82,77.51-157.82,197.28s62.94,197.28,158.3,197.28c64.82,0,112.26-31,135.28-88.31,8.45-16.44,15.97-22.07,29.59-22.07,16.44,0,27.24,11.27,27.24,27.71,0,4.7-1.41,10.8-3.29,17.38-22.55,70.45-99.11,120.25-188.36,120.25-134.34,0-222.17-97.23-222.17-251.3Z"/>
  <path class="cls-1" d="M1058.22,611.49c0-154.54,89.24-252.24,222.64-252.24s222.64,97.7,222.64,252.24-89.24,252.24-222.64,252.24-222.64-97.7-222.64-252.24ZM1440.56,611.49c0-123.07-62.94-197.28-159.7-197.28s-159.23,73.75-159.23,197.28,62.94,197.28,159.23,197.28,159.7-74.22,159.7-197.28Z"/>
  <path class="cls-1" d="M2361.95,869.21c-79.54,0-144.16-24.37-193.85-73.12-49.71-48.73-74.56-110.95-74.56-186.63s24.37-137.24,73.12-186.64c48.73-49.38,111.59-74.08,188.56-74.08,72.47,0,132.76,22.13,180.86,66.38,59,54.52,87.55,134.37,85.62,239.55h-350.19c11.55,60.94,43.61,91.4,96.2,91.4,32.06,0,54.84-12.18,68.31-36.56h176.05c-10.91,46.18-42.01,85.62-93.32,118.33-42.98,27.58-95.24,41.37-156.81,41.37ZM2359.06,470.92c-48.1,0-77.29,29.19-87.55,87.55h169.32c-3.85-27.57-12.99-49.06-27.42-64.46-14.43-15.39-32.56-23.09-54.36-23.09Z"/>
  <path class="cls-1" d="M2657.29,855.74V167.88h186.63v687.86h-186.63Z"/>
  <g>
    <path class="cls-1" d="M2022.36,424.71c-37.22-49.7-87.88-74.54-152.01-74.54s-109.04,22.11-144.31,66.39h-2.88v-119.15c-3.69-2.43-7.03-5.44-9.94-8.97l-171.89,103.34v464.41h126.33l18.31-73.88c4.76-19.84,19.76-33.03,40.17-35.3l1.65-.19h.49c1.31-.09,2.62-.14,3.91-.14,15.97,0,30.19,7.49,39.29,20.61l49.46-29.7c-2.62.21-5.3.32-8.05.32-28.43,0-51.4-12.24-68.91-36.7s-26.27-55.53-26.27-93.24,8.76-67.93,26.27-92.72c17.51-24.78,40.48-37.2,68.91-37.2s49.26,11.6,64.49,34.72c15.19,23.14,22.79,54.88,22.79,95.2s-7.42,72.11-22.32,95.23c-.08.12-.16.24-.24.36l184.52-110.8,15.14-9.91c-4.07-61.92-22.41-114.63-54.91-158.14Z"/>
    <path class="cls-1" d="M1787.14,164.85l-24.53,98.98c-1.52,6.41-5.58,10.03-12.29,10.77h-.11c-6.63.71-11.7-1.63-15.14-7.04l-11.91-20.1-181.83,109.32v-104.9c0-10.45,2.59-20.24,7.84-29.42,5.18-9.16,12.26-16.49,21.2-21.94l84.37-50.55,4.4-2.64,1.94-1.18,1.07-.65-11.88-19.32c-3.51-5.47-3.24-10.95.71-16.4,3.98-5.45,9.16-7.46,15.61-5.96l99,24.55c7.91,2.01,14.01,6.61,18.21,13.8.76,1.3,1.45,2.64,1.99,3.98.16.38.31.78.47,1.18,2.1,5.63,2.41,11.46.87,17.51Z"/>
    <path class="cls-1" d="M2078.14,618.13v122.41c0,12.17-3.02,23.61-9.16,34.31-6.05,10.7-14.3,19.23-24.73,25.58l-43.96,26.34-54.66,32.77-104.65,62.73-5.12,3.06-2.28,1.36-1.25.76,13.87,22.56c4.09,6.39,3.8,12.75-.83,19.14-4.65,6.34-10.7,8.69-18.23,6.95l-115.53-28.64c-9.23-2.35-16.33-7.73-21.22-16.13-.89-1.5-1.7-3.06-2.35-4.65-.18-.42-.36-.89-.54-1.36-2.46-6.57-2.81-13.38-1.01-20.44l12.06-48.7,16.55-66.79c1.76-7.48,6.52-11.71,14.34-12.58h.11c7.75-.83,13.65,1.92,17.69,8.22l13.87,23.45,316.93-190.32.07-.04Z"/>
  </g>
</svg>