<?xml version="1.0" encoding="UTF-8"?>
<svg id="svg8" xmlns="http://www.w3.org/2000/svg" viewBox="0 0 1080 1080">
  <defs>
    <style>
      .cls-1 {
        fill: #fff;
      }
    </style>
  </defs>
  <g>
    <path class="cls-1" d="M252.22,279.38c0-70.96,39.56-116.54,99.98-116.54,57.2,0,96.76,43,96.76,105.14,0,10.75-6.24,17.2-16.77,17.2h-150.73c0,52.47,28.17,83.64,72.68,83.64,31.18,0,52.25-13.12,66.87-41.07,2.79-4.3,6.02-6.24,10.75-6.24,7.53,0,12.68,4.73,12.68,12.47,0,2.37-.86,5.59-2.15,8.81-12.69,31.82-45.15,50.96-86.87,50.96-64.29,0-103.21-42.57-103.21-114.39ZM419.72,262.61c-.65-44.94-27.95-74.82-67.73-74.82s-67.95,29.67-70.31,74.82h138.04Z"/>
    <path class="cls-1" d="M464.84,278.74c0-70.53,39.99-115.89,101.06-115.89,41.71,0,77.84,23.65,87.08,56.55.64,2.58,1.07,5.16,1.07,7.31,0,7.53-4.73,12.47-12.04,12.47-6.45,0-9.89-2.79-13.76-10.11-10.97-26.88-32.9-41.07-62.14-41.07-43.65,0-72.25,35.48-72.25,90.31s28.81,90.31,72.46,90.31c29.67,0,51.39-14.19,61.92-40.42,3.87-7.53,7.31-10.11,13.55-10.11,7.53,0,12.47,5.16,12.47,12.69,0,2.15-.65,4.94-1.5,7.96-10.32,32.25-45.37,55.04-86.22,55.04-61.49,0-101.7-44.51-101.7-115.04Z"/>
    <path class="cls-1" d="M671.45,278.31c0-70.74,40.85-115.46,101.92-115.46s101.92,44.72,101.92,115.46-40.85,115.46-101.92,115.46-101.92-44.72-101.92-115.46ZM846.47,278.31c0-56.34-28.81-90.31-73.1-90.31s-72.89,33.76-72.89,90.31,28.81,90.31,72.89,90.31,73.1-33.97,73.1-90.31Z"/>
  </g>
  <g>
    <g>
      <path class="cls-1" d="M673.74,832.28c-62.82,0-113.87-19.25-153.12-57.75-39.27-38.5-58.89-87.64-58.89-147.42s19.25-108.41,57.75-147.42c38.49-39.01,88.15-58.51,148.94-58.51,57.24,0,104.87,17.48,142.86,52.43,46.6,43.07,69.15,106.14,67.63,189.22h-276.61c9.12,48.14,34.45,72.19,75.99,72.19,25.33,0,43.32-9.62,53.96-28.88h139.06c-8.62,36.48-33.19,67.63-73.71,93.47-33.95,21.79-75.23,32.68-123.86,32.68ZM671.46,517.68c-37.99,0-61.05,23.06-69.15,69.15h133.74c-3.04-21.78-10.26-38.75-21.66-50.92-11.4-12.16-25.72-18.24-42.93-18.24Z"/>
      <path class="cls-1" d="M907.03,821.65V278.31h147.42v543.34h-147.42Z"/>
    </g>
    <g>
      <path class="cls-1" d="M219.71,275.92l-19.37,78.18c-1.2,5.06-4.41,7.92-9.7,8.5h-.09c-5.24.56-9.25-1.29-11.96-5.56l-9.4-15.88L25.55,427.52v-82.86c0-8.26,2.05-15.99,6.19-23.24,4.09-7.23,9.69-13.02,16.75-17.33l66.64-39.93,3.48-2.08,1.54-.94.85-.51-9.39-15.26c-2.77-4.32-2.56-8.65.56-12.95,3.14-4.31,7.23-5.89,12.33-4.71l78.2,19.39c6.25,1.59,11.06,5.22,14.38,10.9.6,1.02,1.15,2.08,1.57,3.14.12.3.25.62.37.94,1.66,4.45,1.91,9.05.69,13.83Z"/>
      <path class="cls-1" d="M139.6,763.6c3.78-15.76,15.7-26.24,31.91-28.05l1.32-.15h.39c1.04-.08,2.08-.11,3.09-.11,12.62,0,23.86,5.89,31.1,16.21l38.59-23.17c-1.94.15-3.91.23-5.94.23-22.46,0-40.6-9.67-54.44-28.98-13.83-19.32-20.75-43.87-20.75-73.65s6.92-53.66,20.75-73.25c13.84-19.56,31.98-29.37,54.44-29.37s38.91,9.15,50.95,27.41c12,18.28,18,43.36,18,75.21s-5.85,56.86-17.56,75.11l145.26-87.23,12.13-8.14c-3.26-48.73-17.72-90.22-43.32-124.5-29.4-39.26-69.42-58.88-120.07-58.88s-86.13,17.47-113.99,52.44h-2.28v-93.88c-2.92-1.91-5.58-4.27-7.9-7.05L25.55,455.41v366.59h99.58l14.47-58.4Z"/>
      <path class="cls-1" d="M449.56,633.96v96.69c0,9.62-2.38,18.65-7.23,27.1-4.78,8.45-11.29,15.19-19.53,20.2l-34.72,20.8-43.18,25.88-82.66,49.55-4.04,2.42-1.8,1.08-.99.6,10.96,17.82c3.23,5.05,3,10.07-.65,15.12-3.67,5.01-8.45,6.86-14.4,5.49l-91.26-22.62c-7.29-1.85-12.9-6.11-16.76-12.74-.71-1.18-1.34-2.42-1.85-3.67-.14-.34-.28-.71-.42-1.08-1.94-5.19-2.22-10.57-.79-16.14l9.53-38.47,13.07-52.76c1.39-5.91,5.15-9.25,11.33-9.93h.09c6.12-.65,10.78,1.52,13.97,6.49l10.96,18.53,250.34-150.33.05-.04Z"/>
    </g>
  </g>
</svg>