<?xml version="1.0" encoding="UTF-8"?>
<svg id="svg8" xmlns="http://www.w3.org/2000/svg" viewBox="0 0 796.65 264.72">
  <defs>
    <style>
      .cls-1 {
        fill: #08ae5e;
      }

      .cls-2 {
        fill: #85c77a;
      }
    </style>
  </defs>
  <g>
    <polygon class="cls-1" points="126.71 158.51 126.71 32.79 194.61 32.79 194.61 54.9 151.11 54.9 151.11 83.54 194.61 83.54 194.61 105.29 151.11 105.29 151.11 136.41 194.61 136.41 194.61 158.51 126.71 158.51"/>
    <path class="cls-1" d="M258.08,82.48c-14.85,0-26.35,11.85-26.35,28.47s11.49,28.11,27.05,28.11c12.02,0,19.98-5.13,23.87-15.38h23.52c-5.66,23.34-23.34,37.31-47.21,37.31-14.14,0-26.17-5.13-35.72-14.85-9.19-9.37-14.32-22.46-14.32-35.01,0-13.26,4.6-25.11,13.62-34.48,9.9-10.43,22.46-15.91,36.78-15.91,22.99,0,41.55,13.97,47.03,36.6h-23.52c-5.3-9.9-13.44-14.85-24.75-14.85"/>
    <path class="cls-1" d="M479.28,61.26c12.38,0,23.87,4.24,32.71,12.55,10.43,9.55,16.09,22.99,16.09,36.95,0,15.21-6.37,29.17-17.86,39.08-8.31,7.25-19.1,11.14-31.12,11.14-11.14,0-20.69-3.18-29.53-10.25v7.78h-21.75V32.79h21.75v38.37c8.49-7.07,17.86-9.9,29.71-9.9M476.62,139.06c16.8,0,28.65-12.2,28.65-27.94s-12.2-28.11-27.58-28.11-27.23,12.2-27.23,28.47,12.02,27.58,26.17,27.58"/>
    <path class="cls-1" d="M586.78,140.12c9.72,0,18.03-4.24,22.63-11.85h23.87c-8.13,20.87-24.93,32.71-45.97,32.71-13.97,0-25.99-4.95-35.54-14.85-9.02-9.37-14.15-22.28-14.15-35.01s4.6-25.11,13.44-34.48c9.72-10.26,22.28-15.91,35.36-15.91,16.44,0,31.3,7.78,41.2,21.4,6.37,8.49,9.02,18.57,9.02,31.12,0,1.59-.18,3.18-.18,4.77h-76.03c1.41,13.61,11.32,22.1,26.35,22.1M586.43,81.06c-11.67,0-21.93,7.6-25.29,19.45h51.63c-3.71-12.73-12.91-19.45-26.34-19.45"/>
    <rect class="cls-1" x="650.43" y="32.79" width="21.57" height="125.72"/>
    <path class="cls-1" d="M399.88,74.88c-9.54-9.01-21.04-13.61-34.83-13.61-12.91,0-25.28,5.3-34.83,14.85-9.37,9.37-14.32,21.75-14.32,35.01,0,1.11.03,2.21.1,3.29,1.99-6.84,5.67-13.31,11.07-18.71,8.55-8.55,19.75-12.82,30.95-12.82,1.55,0,3.1.08,4.64.26.01-.01.02-.01.03,0,.94-.09,1.91-.13,2.89-.13,10.79,0,19.81,5.61,24.12,14.68h17.77v-13.58c-2.14-3.33-4.68-6.44-7.59-9.24ZM354.5,85.15c-9.8.81-18.91,5.02-25.94,12.05-5.67,5.67-9.56,12.82-11.25,20.69l-.57,2.63c.94,5.15,2.65,10.02,5.08,14.58v-12.11h18.81c-1.25-3.53-1.92-7.56-1.92-12.04,0-12.26,6.09-21.76,15.79-25.8ZM399.88,74.88c-9.54-9.01-21.04-13.61-34.83-13.61-12.91,0-25.28,5.3-34.83,14.85-9.37,9.37-14.32,21.75-14.32,35.01,0,1.11.03,2.21.1,3.29,1.99-6.84,5.67-13.31,11.07-18.71,8.55-8.55,19.75-12.82,30.95-12.82,1.55,0,3.1.08,4.64.26.01-.01.02-.01.03,0,.94-.09,1.91-.13,2.89-.13,10.79,0,19.81,5.61,24.12,14.68h17.77v-13.58c-2.14-3.33-4.68-6.44-7.59-9.24ZM415.38,108.42c-1.99,6.83-5.66,13.28-11.05,18.67-8.55,8.55-19.75,12.82-30.95,12.82-1.91,0-3.82-.12-5.71-.38-.69.05-1.38.07-2.09.07-11.35,0-19.94-5.25-24.1-14.5h-17.55v13.59c1.72,2.67,3.7,5.22,5.93,7.63,9.73,10.25,21.4,15.2,35.55,15.2s26.34-4.95,35.89-14.85c9.55-9.72,14.14-21.75,14.14-36.07,0-.73-.02-1.45-.06-2.18ZM414.09,104.91l.58-2.68c-.91-5.03-2.64-9.94-5.09-14.53v12.12h-18.98c1.21,3.19,1.86,6.75,1.86,10.6,0,13.79-6.18,23.42-16.17,27.28,10.03-.69,19.37-4.93,26.55-12.11,5.66-5.66,9.55-12.81,11.25-20.68ZM399.88,74.88c-9.54-9.01-21.04-13.61-34.83-13.61-12.91,0-25.28,5.3-34.83,14.85-9.37,9.37-14.32,21.75-14.32,35.01,0,1.11.03,2.21.1,3.29,1.99-6.84,5.67-13.31,11.07-18.71,8.55-8.55,19.75-12.82,30.95-12.82,1.55,0,3.1.08,4.64.26.01-.01.02-.01.03,0,.94-.09,1.91-.13,2.89-.13,10.79,0,19.81,5.61,24.12,14.68h17.77v-13.58c-2.14-3.33-4.68-6.44-7.59-9.24Z"/>
    <path class="cls-2" d="M401.64,74.88c-9.94-9.94-22.97-14.91-35.99-14.91s-26.04,4.97-35.98,14.9c-11.62,11.62-16.39,27.45-14.43,42.57.22-1.01.47-2.02.76-3.02,1.99-6.84,5.67-13.31,11.07-18.71,8.55-8.55,19.75-12.82,30.95-12.82,1.55,0,3.1.08,4.64.26.01-.01.02-.01.03,0,7.8.82,15.41,3.73,21.95,8.72l-5.83,5.83h28.66v-28.65l-5.83,5.83ZM416.16,105.36c-.22,1.03-.48,2.05-.78,3.06-1.99,6.83-5.66,13.28-11.05,18.67-8.55,8.55-19.75,12.82-30.95,12.82-1.91,0-3.82-.12-5.71-.38-7.43-.96-14.66-3.84-20.91-8.6l5.82-5.83h-28.65v28.66l5.83-5.84c9.94,9.94,22.96,14.91,35.99,14.91s26.04-4.97,35.98-14.91c11.61-11.61,16.39-27.44,14.43-42.56Z"/>
  </g>
  <g>
    <path d="M138.82,206.22c-.19-.03-.4-.05-.62-.05h-.75c-.58,0-1.15.12-1.7.36-.55.24-1.07.55-1.57.94-.5.39-.96.82-1.39,1.31-.43.49-.8.99-1.11,1.51v14.29h-2.06v-19.96h2.06v2.76c.58-.69,1.16-1.25,1.74-1.67.57-.43,1.13-.76,1.67-1,.54-.24,1.06-.4,1.56-.48.5-.08.95-.12,1.37-.12.14,0,.27,0,.39.01.12,0,.26.02.41.04v2.06Z"/>
    <path d="M158.63,225.1c-1.39,0-2.65-.24-3.79-.71-1.13-.47-2.11-1.16-2.92-2.06-.82-.9-1.45-2-1.89-3.31-.45-1.31-.67-2.79-.67-4.46s.21-3.07.64-4.37c.43-1.3,1.04-2.4,1.83-3.3.79-.9,1.73-1.59,2.81-2.07,1.08-.48,2.28-.72,3.61-.72s2.58.24,3.68.72c1.1.48,2.03,1.17,2.81,2.07.77.9,1.37,2,1.78,3.3.41,1.3.62,2.76.62,4.39v.46h-15.71c.1,1.36.35,2.53.75,3.53.39,1,.91,1.83,1.54,2.49.64.66,1.37,1.16,2.2,1.48.83.33,1.74.49,2.72.49.69,0,1.37-.08,2.06-.24.69-.16,1.31-.41,1.87-.73.56-.33,1.03-.73,1.4-1.21.38-.48.6-1.03.67-1.65h2.03c-.19.94-.52,1.78-1,2.51-.48.73-1.07,1.35-1.78,1.86-.7.51-1.5.89-2.39,1.15-.89.26-1.85.39-2.86.39M165.05,213c-.34-2.28-1.12-3.99-2.33-5.12-1.21-1.13-2.7-1.7-4.47-1.7-.88,0-1.69.14-2.45.41-.76.28-1.43.7-2.02,1.26-.59.57-1.09,1.28-1.49,2.14-.4.86-.69,1.86-.86,3.01h13.62Z"/>
    <path d="M188.1,225.1c-1.32,0-2.53-.23-3.62-.7-1.09-.46-2.03-1.14-2.81-2.03-.78-.89-1.39-1.99-1.82-3.3-.43-1.3-.64-2.8-.64-4.48s.21-3.12.63-4.43c.42-1.31,1.02-2.4,1.8-3.3.78-.89,1.72-1.58,2.81-2.05,1.09-.47,2.31-.71,3.64-.71.96,0,1.86.13,2.69.39.83.26,1.57.63,2.22,1.13.64.5,1.18,1.12,1.62,1.86.44.74.74,1.58.91,2.52h-2.01c-.09-.62-.28-1.17-.58-1.65-.3-.48-.69-.88-1.17-1.21-.48-.33-1.04-.57-1.66-.73-.63-.16-1.3-.24-2.02-.24-1.01,0-1.94.18-2.78.53-.84.35-1.56.88-2.16,1.58-.6.7-1.06,1.58-1.39,2.64-.33,1.06-.49,2.28-.49,3.67s.16,2.64.49,3.7c.33,1.05.79,1.94,1.39,2.64.6.7,1.32,1.23,2.16,1.58.84.35,1.77.53,2.78.53.67,0,1.31-.08,1.93-.24.62-.16,1.17-.4,1.66-.72.49-.32.9-.71,1.22-1.18.33-.47.53-1.03.62-1.66h2.01c-.19.96-.5,1.81-.94,2.54-.44.73-.98,1.34-1.62,1.84-.64.5-1.38.87-2.22,1.12-.83.25-1.72.37-2.67.37"/>
    <path d="M210.18,224.59h-2.06v-19.96h2.06v19.96ZM210.2,199.6h-2.06v-3.22h2.06v3.22Z"/>
    <path d="M232.46,225.1c-1.32,0-2.53-.23-3.62-.7-1.09-.46-2.03-1.14-2.81-2.03-.78-.89-1.39-1.99-1.82-3.3-.43-1.3-.64-2.8-.64-4.48s.21-3.12.63-4.43c.42-1.31,1.02-2.4,1.8-3.3.78-.89,1.72-1.58,2.81-2.05,1.09-.47,2.3-.71,3.64-.71.96,0,1.86.13,2.69.39.83.26,1.57.63,2.22,1.13.64.5,1.18,1.12,1.62,1.86.44.74.74,1.58.91,2.52h-2.01c-.09-.62-.28-1.17-.58-1.65-.3-.48-.69-.88-1.17-1.21-.48-.33-1.04-.57-1.66-.73-.63-.16-1.3-.24-2.02-.24-1.01,0-1.94.18-2.78.53-.84.35-1.56.88-2.16,1.58-.6.7-1.06,1.58-1.39,2.64-.33,1.06-.49,2.28-.49,3.67s.16,2.64.49,3.7c.33,1.05.79,1.94,1.39,2.64.6.7,1.32,1.23,2.16,1.58.84.35,1.77.53,2.78.53.67,0,1.31-.08,1.93-.24.62-.16,1.17-.4,1.66-.72.49-.32.9-.71,1.22-1.18.33-.47.53-1.03.62-1.66h2.01c-.19.96-.5,1.81-.94,2.54-.44.73-.98,1.34-1.62,1.84-.64.5-1.38.87-2.21,1.12-.83.25-1.72.37-2.67.37"/>
    <rect x="252.48" y="196.38" width="2.06" height="28.2"/>
    <path d="M282.15,222.01c-.7.62-1.39,1.13-2.06,1.53-.67.4-1.33.72-1.97.95-.64.23-1.28.39-1.92.48-.64.09-1.28.13-1.93.13-.88,0-1.69-.13-2.45-.4-.76-.27-1.41-.64-1.96-1.13-.55-.49-.98-1.08-1.3-1.78-.32-.69-.48-1.46-.48-2.3,0-2.28.97-4.06,2.92-5.33,1.95-1.27,4.87-1.91,8.77-1.91h2.37c0-.88-.05-1.68-.15-2.42-.1-.74-.34-1.38-.72-1.92-.38-.54-.94-.97-1.67-1.28-.74-.31-1.74-.46-3.01-.46-1.87,0-3.27.29-4.21.88-.94.58-1.49,1.47-1.66,2.65h-2.03c.21-1.89.94-3.29,2.21-4.21,1.27-.92,3.16-1.38,5.67-1.38,1.39,0,2.57.17,3.54.52.97.34,1.76.84,2.37,1.48.61.64,1.05,1.43,1.33,2.34.27.92.41,1.95.41,3.1v13.03h-2.06v-2.58ZM282.15,214.31h-3.12c-2.99,0-5.22.43-6.68,1.29-1.47.86-2.2,2.09-2.2,3.68,0,1.18.46,2.11,1.39,2.77.93.66,2.2.99,3.81.99.7,0,1.39-.11,2.05-.32.66-.21,1.28-.49,1.87-.84.58-.34,1.12-.73,1.61-1.15.49-.42.91-.83,1.27-1.22v-5.2Z"/>
    <path d="M308.01,206.22c-.19-.03-.4-.05-.62-.05h-.75c-.58,0-1.15.12-1.7.36-.55.24-1.07.55-1.57.94-.5.39-.96.82-1.39,1.31-.43.49-.8.99-1.11,1.51v14.29h-2.06v-19.96h2.06v2.76c.58-.69,1.16-1.25,1.74-1.67.57-.43,1.13-.76,1.67-1,.54-.24,1.06-.4,1.56-.48.5-.08.95-.12,1.37-.12.14,0,.27,0,.39.01.12,0,.26.02.41.04v2.06Z"/>
    <path d="M352.81,207.59c.65-.79,1.28-1.42,1.89-1.88.61-.46,1.2-.81,1.76-1.06.57-.24,1.11-.39,1.64-.46.52-.07,1.03-.1,1.53-.1,1.24,0,2.33.25,3.3.75.96.5,1.77,1.2,2.42,2.1.65.9,1.15,1.99,1.49,3.26.34,1.27.51,2.68.51,4.22,0,1.63-.2,3.1-.6,4.42-.4,1.31-.96,2.43-1.67,3.36-.71.93-1.55,1.64-2.52,2.15-.97.51-2.02.76-3.15.76-.48,0-.98-.02-1.49-.06-.52-.04-1.05-.15-1.6-.32-.55-.17-1.12-.43-1.7-.76-.58-.33-1.18-.79-1.8-1.35v9.32h-2.06v-27.3h2.06v2.96ZM352.81,220.1c1.85,1.96,3.98,2.94,6.39,2.94.93,0,1.76-.18,2.51-.55.75-.37,1.39-.91,1.92-1.64.53-.72.94-1.62,1.24-2.69.29-1.07.44-2.32.44-3.75,0-2.71-.52-4.76-1.56-6.16-1.04-1.39-2.5-2.09-4.39-2.09-2.47,0-4.65,1.33-6.54,3.99v9.94Z"/>
    <path d="M393.66,222.01c-.7.62-1.39,1.13-2.06,1.53-.67.4-1.33.72-1.97.95-.64.23-1.28.39-1.92.48-.63.09-1.28.13-1.93.13-.88,0-1.69-.13-2.45-.4-.76-.27-1.41-.64-1.96-1.13-.55-.49-.98-1.08-1.3-1.78-.32-.69-.48-1.46-.48-2.3,0-2.28.97-4.06,2.92-5.33,1.95-1.27,4.87-1.91,8.77-1.91h2.37c0-.88-.05-1.68-.15-2.42-.1-.74-.34-1.38-.72-1.92-.38-.54-.94-.97-1.67-1.28-.74-.31-1.74-.46-3.01-.46-1.87,0-3.28.29-4.21.88-.94.58-1.49,1.47-1.66,2.65h-2.03c.21-1.89.94-3.29,2.22-4.21,1.27-.92,3.16-1.38,5.67-1.38,1.39,0,2.57.17,3.54.52.97.34,1.76.84,2.37,1.48.61.64,1.05,1.43,1.33,2.34.27.92.41,1.95.41,3.1v13.03h-2.06v-2.58ZM393.66,214.31h-3.12c-2.99,0-5.22.43-6.68,1.29-1.47.86-2.2,2.09-2.2,3.68,0,1.18.46,2.11,1.39,2.77.93.66,2.2.99,3.81.99.7,0,1.39-.11,2.05-.32.66-.21,1.28-.49,1.87-.84.58-.34,1.12-.73,1.61-1.15.49-.42.91-.83,1.27-1.22v-5.2Z"/>
    <path d="M419.52,206.22c-.19-.03-.4-.05-.62-.05h-.75c-.58,0-1.15.12-1.7.36s-1.07.55-1.57.94c-.5.39-.96.82-1.39,1.31-.43.49-.8.99-1.11,1.51v14.29h-2.06v-19.96h2.06v2.76c.58-.69,1.16-1.25,1.74-1.67.58-.43,1.13-.76,1.67-1,.54-.24,1.06-.4,1.56-.48.5-.08.95-.12,1.37-.12.14,0,.27,0,.39.01.12,0,.26.02.41.04v2.06Z"/>
    <path d="M444.38,222.01c-.7.62-1.39,1.13-2.06,1.53-.67.4-1.33.72-1.97.95-.64.23-1.29.39-1.92.48-.63.09-1.28.13-1.93.13-.88,0-1.69-.13-2.45-.4-.76-.27-1.41-.64-1.96-1.13-.55-.49-.98-1.08-1.3-1.78-.32-.69-.48-1.46-.48-2.3,0-2.28.97-4.06,2.92-5.33,1.95-1.27,4.87-1.91,8.77-1.91h2.37c0-.88-.05-1.68-.15-2.42-.1-.74-.34-1.38-.72-1.92-.38-.54-.94-.97-1.67-1.28-.74-.31-1.74-.46-3.01-.46-1.87,0-3.27.29-4.21.88-.94.58-1.49,1.47-1.66,2.65h-2.03c.21-1.89.94-3.29,2.21-4.21,1.27-.92,3.16-1.38,5.67-1.38,1.39,0,2.57.17,3.54.52.97.34,1.76.84,2.37,1.48.61.64,1.05,1.43,1.33,2.34.27.92.41,1.95.41,3.1v13.03h-2.06v-2.58ZM444.38,214.31h-3.12c-2.99,0-5.21.43-6.68,1.29-1.47.86-2.2,2.09-2.2,3.68,0,1.18.46,2.11,1.39,2.77.93.66,2.2.99,3.81.99.7,0,1.39-.11,2.05-.32.66-.21,1.28-.49,1.87-.84.58-.34,1.12-.73,1.61-1.15.49-.42.91-.83,1.27-1.22v-5.2Z"/>
    <path d="M501.28,206.22c-.19-.03-.4-.05-.62-.05h-.75c-.58,0-1.15.12-1.7.36-.55.24-1.07.55-1.57.94-.5.39-.96.82-1.39,1.31-.43.49-.8.99-1.11,1.51v14.29h-2.06v-19.96h2.06v2.76c.58-.69,1.16-1.25,1.74-1.67.57-.43,1.13-.76,1.67-1,.54-.24,1.06-.4,1.56-.48.5-.08.95-.12,1.37-.12.14,0,.27,0,.39.01.12,0,.26.02.41.04v2.06Z"/>
    <path d="M521.09,225.1c-1.39,0-2.65-.24-3.79-.71-1.13-.47-2.11-1.16-2.92-2.06-.82-.9-1.45-2-1.89-3.31-.45-1.31-.67-2.79-.67-4.46s.21-3.07.64-4.37c.43-1.3,1.04-2.4,1.83-3.3.79-.9,1.73-1.59,2.81-2.07,1.08-.48,2.28-.72,3.61-.72s2.58.24,3.68.72c1.1.48,2.03,1.17,2.81,2.07.77.9,1.37,2,1.78,3.3.41,1.3.62,2.76.62,4.39v.46h-15.71c.1,1.36.35,2.53.75,3.53.39,1,.91,1.83,1.55,2.49.63.66,1.37,1.16,2.2,1.48.83.33,1.74.49,2.72.49.69,0,1.37-.08,2.06-.24.69-.16,1.31-.41,1.87-.73.56-.33,1.03-.73,1.4-1.21.38-.48.6-1.03.67-1.65h2.03c-.19.94-.52,1.78-1,2.51-.48.73-1.07,1.35-1.78,1.86-.7.51-1.5.89-2.4,1.15-.89.26-1.84.39-2.86.39M527.5,213c-.34-2.28-1.12-3.99-2.33-5.12-1.21-1.13-2.7-1.7-4.47-1.7-.88,0-1.69.14-2.45.41-.76.28-1.43.7-2.02,1.26-.59.57-1.09,1.28-1.49,2.14-.4.86-.69,1.86-.86,3.01h13.63Z"/>
    <path d="M544.79,207.59c.67-.79,1.33-1.42,1.97-1.88.64-.46,1.27-.81,1.88-1.06.61-.24,1.19-.39,1.74-.45.55-.06,1.06-.09,1.55-.09,4.1,0,6.16,2.42,6.16,7.26v13.21h-2.06v-13.03c0-.93-.08-1.73-.24-2.41-.16-.68-.43-1.24-.8-1.67-.37-.44-.85-.76-1.44-.98-.59-.21-1.32-.32-2.18-.32-1.13,0-2.24.34-3.33,1-1.09.67-2.17,1.61-3.23,2.83v14.58h-2.06v-19.96h2.06v2.96Z"/>
    <path d="M580.2,204.11c1.36,0,2.58.24,3.68.71,1.1.47,2.03,1.16,2.81,2.06.77.9,1.37,2,1.78,3.3.41,1.3.62,2.76.62,4.39s-.21,3.15-.63,4.46c-.42,1.31-1.02,2.41-1.79,3.31-.77.9-1.71,1.59-2.81,2.06-1.1.47-2.32.71-3.66.71s-2.55-.23-3.64-.7c-1.09-.46-2.02-1.15-2.79-2.05-.77-.9-1.37-2-1.8-3.31-.43-1.31-.64-2.8-.64-4.48s.21-3.12.63-4.42c.42-1.3,1.02-2.39,1.79-3.28.77-.89,1.71-1.58,2.81-2.05,1.1-.47,2.32-.71,3.66-.71M580.2,223.04c1.01,0,1.94-.18,2.77-.53.83-.35,1.55-.88,2.15-1.6.6-.71,1.07-1.6,1.4-2.65.33-1.06.5-2.29.5-3.7s-.17-2.61-.5-3.67c-.34-1.06-.8-1.93-1.4-2.63-.6-.69-1.32-1.22-2.15-1.57-.83-.35-1.76-.53-2.77-.53s-1.96.18-2.79.53c-.83.35-1.55.88-2.15,1.57-.6.7-1.07,1.57-1.39,2.63-.33,1.06-.49,2.28-.49,3.67s.16,2.64.49,3.7c.33,1.06.79,1.94,1.39,2.65.6.71,1.32,1.25,2.15,1.6.83.35,1.76.53,2.79.53"/>
    <polygon points="617.35 204.63 609.77 224.59 607.92 224.59 600.35 204.63 602.43 204.63 608.85 221.75 615.29 204.63 617.35 204.63"/>
    <path d="M642.92,222.01c-.7.62-1.39,1.13-2.06,1.53-.67.4-1.33.72-1.97.95-.64.23-1.28.39-1.92.48-.63.09-1.28.13-1.93.13-.88,0-1.69-.13-2.45-.4-.76-.27-1.41-.64-1.96-1.13-.55-.49-.98-1.08-1.3-1.78-.32-.69-.48-1.46-.48-2.3,0-2.28.97-4.06,2.92-5.33,1.95-1.27,4.87-1.91,8.77-1.91h2.37c0-.88-.05-1.68-.15-2.42-.1-.74-.34-1.38-.72-1.92-.38-.54-.94-.97-1.67-1.28-.74-.31-1.74-.46-3.01-.46-1.87,0-3.27.29-4.21.88-.94.58-1.49,1.47-1.66,2.65h-2.03c.21-1.89.94-3.29,2.21-4.21,1.27-.92,3.16-1.38,5.67-1.38,1.39,0,2.57.17,3.54.52.97.34,1.76.84,2.37,1.48.61.64,1.05,1.43,1.33,2.34.28.92.41,1.95.41,3.1v13.03h-2.06v-2.58ZM642.92,214.31h-3.12c-2.99,0-5.21.43-6.68,1.29-1.47.86-2.2,2.09-2.2,3.68,0,1.18.46,2.11,1.39,2.77.93.66,2.2.99,3.81.99.7,0,1.39-.11,2.05-.32.66-.21,1.28-.49,1.87-.84.58-.34,1.12-.73,1.61-1.15.49-.42.91-.83,1.27-1.22v-5.2Z"/>
    <path d="M668.79,206.22c-.19-.03-.4-.05-.62-.05h-.75c-.58,0-1.15.12-1.7.36-.55.24-1.07.55-1.57.94-.5.39-.96.82-1.39,1.31-.43.49-.8.99-1.11,1.51v14.29h-2.06v-19.96h2.06v2.76c.58-.69,1.16-1.25,1.74-1.67.58-.43,1.13-.76,1.67-1,.54-.24,1.06-.4,1.56-.48.5-.08.95-.12,1.37-.12.14,0,.27,0,.39.01.12,0,.26.02.41.04v2.06Z"/>
  </g>
  <path class="cls-2" d="M674.25,179.98c0-2.14-123.54-3.88-275.93-3.88s-275.93,1.74-275.93,3.88,123.54,3.88,275.93,3.88,275.93-1.74,275.93-3.88"/>
</svg>