<?xml version="1.0" encoding="UTF-8"?>
<svg id="Layer_1" data-name="Layer 1" xmlns="http://www.w3.org/2000/svg" viewBox="0 0 32 32">
  <defs>
    <style>
      .cls-1 {
        fill: #44684b;
      }

      .cls-2 {
        fill: #f5f4ec;
      }
    </style>
  </defs>
  <rect class="cls-1" width="32" height="32" rx="7" ry="7"/>
  <g>
    <path class="cls-2" d="M12.32,4.65v1.14c-1.48.22-1.71.5-1.71,1.51v.84h-.58c-1.44,0-2.63,1.17-2.63,2.63v1.13c0,1.12.71,2.09,1.71,2.45v6.89h-5.09v-1.14c1.48-.22,1.71-.5,1.71-1.51V7.3c0-1.02-.24-1.29-1.71-1.51v-1.14h8.3Z"/>
    <path class="cls-2" d="M17.97,10.77h-7.93v1.13c.22.04.41.07.58.12.96.21,1.13.54,1.13,1.4v11.28c0,1.01-.22,1.29-1.71,1.51v1.14h8.18c5.41,0,9.75-3.35,9.75-8.55s-3.98-8.03-10-8.03ZM17.44,26l-.83.04v-13.98l.83.04h0c3.23.09,5.17,2.73,5.17,6.96s-2.01,6.84-5.17,6.94Z"/>
  </g>
</svg>