<?xml version="1.0" encoding="UTF-8"?>
<svg id="Layer_1" data-name="Layer 1" xmlns="http://www.w3.org/2000/svg" viewBox="0 0 100 32">
  <defs>
    <style>
      .cls-1 {
        fill: #f5f4ec;
      }
    </style>
  </defs>
  <g>
    <path class="cls-1" d="M9.96,14.49v.87H3.65v-.87c1.13-.17,1.3-.38,1.3-1.15V4.74c0-.78-.18-.98-1.3-1.15v-.87h6.32v.87c-1.13.17-1.3.38-1.3,1.15v8.59c0,.78.18.98,1.3,1.15Z"/>
    <path class="cls-1" d="M21.43,6.37l-3.25.23c-.64-.27-1.55-.42-2.51-.42-2.71,0-4.56,1.24-4.56,3.03,0,1.47,1.32,2.38,2.88,2.62-1.77.26-2.85,1.08-2.85,2.25,0,.31.08.58.24.82,1.55.18,2.88.61,3.98,1.26h1.03c1.11,0,1.61.39,1.61,1.03,0,.35-.18.66-.5.87.29.39.53.81.72,1.26,1.77-.53,2.85-1.63,2.85-3.03,0-1.76-1.37-2.83-4.03-2.83h-1.76c-.85,0-1.27-.26-1.27-.69,0-.35.27-.61.72-.74.37.05.69.06,1.05.06,2.62,0,4.59-1.01,4.59-2.82,0-.79-.48-1.55-1.19-1.85l2.24.21v-1.26ZM15.8,11.03c-.76,0-1.29-.72-1.29-1.95,0-1.11.43-1.85,1.22-1.85s1.3.71,1.3,1.93c0,1.13-.47,1.87-1.24,1.87Z"/>
    <path class="cls-1" d="M22.11,10.92c0-2.81,2.2-4.74,5.28-4.74s5.21,1.83,5.21,4.64-2.2,4.74-5.28,4.74-5.2-1.84-5.2-4.64ZM29.01,10.93c0-2.28-.66-3.64-1.7-3.64s-1.6,1.28-1.6,3.49.66,3.65,1.7,3.65,1.6-1.28,1.6-3.5Z"/>
    <path class="cls-1" d="M38.22,8.93c.8-1.92,1.61-2.72,2.61-2.72.93,0,1.36.77,1.36,1.73,0,.46-.1.93-.23,1.19-.31-.12-.89-.22-1.47-.22-.92,0-1.85.24-2.22.57v3.97c0,.71.18.89,1.24,1.03v.87h-5.8v-.87c.93-.12,1.09-.3,1.09-.93v-4.93c0-.56-.09-.71-.56-.86l-.53-.16v-.81l4.53-.57-.02,2.7Z"/>
  </g>
  <g>
    <path class="cls-1" d="M9.88,29.06H3.65v-.87c1.13-.17,1.3-.38,1.3-1.15v-8.59c0-.78-.18-.98-1.3-1.16v-.86h6.04c4.59,0,7.62,2.16,7.62,6.12s-3.31,6.51-7.43,6.51ZM9.29,17.44l-.63-.03v10.65l.63-.03c2.41-.08,3.94-2.07,3.94-5.29s-1.48-5.23-3.94-5.31Z"/>
    <path class="cls-1" d="M18.52,27.05c0-1.35.99-2.34,3.87-2.93l1.83-.38v-.64c0-1.47-.72-2.05-1.99-2.05-.28,0-.55.03-.8.09.3.25.49.62.49,1.05,0,.8-.65,1.42-1.53,1.42s-1.5-.54-1.5-1.34c0-1.31,1.65-2.39,4.36-2.39s4.37,1,4.37,3.3v3.74c0,.7.37.99.82.99.14,0,.27,0,.37-.04v.82c-.42.3-1.15.53-2.02.53-1.16,0-2.22-.55-2.46-1.5-.45.92-1.62,1.54-3.13,1.54-1.64,0-2.67-.93-2.67-2.21ZM23.02,27.72c.55,0,.99-.25,1.2-.63v-2.4l-.53.12c-1.31.3-1.8.84-1.8,1.69,0,.79.5,1.22,1.14,1.22Z"/>
    <path class="cls-1" d="M34.1,27.27c0,.63.18.8,1.1.93v.87h-5.66v-.87c.93-.13,1.09-.3,1.09-.93v-9.01c0-.56-.08-.7-.56-.86l-.53-.16v-.81l4.56-.57v11.41Z"/>
    <path class="cls-1" d="M40.6,21.57c.5-1.01,1.68-1.69,3.21-1.69,1.44,0,2.45.59,2.8,1.77.47-1.09,1.64-1.77,3.2-1.77,1.85,0,3.04,1.02,3.04,2.95v4.44c0,.63.18.8,1.09.93v.87h-5.42v-.87c.74-.11.87-.26.87-.86v-4.18c0-1.05-.52-1.58-1.36-1.58-.59,0-1.03.2-1.31.6.03.17.03.33.03.51v4.66c0,.6.12.75.87.86v.87h-5.21v-.87c.75-.11.88-.26.88-.86v-4.18c0-1.05-.53-1.58-1.35-1.58-.58,0-1.02.22-1.3.65v5.12c0,.6.12.75.88.86v.87h-5.43v-.87c.93-.13,1.09-.3,1.09-.93v-4.94c0-.56-.08-.71-.56-.86l-.53-.16v-.81l4.51-.57v1.64Z"/>
    <path class="cls-1" d="M54.91,24.63c0-2.81,2.2-4.74,5.28-4.74s5.21,1.83,5.21,4.64-2.2,4.74-5.28,4.74-5.2-1.84-5.2-4.64ZM61.81,24.64c0-2.28-.66-3.64-1.7-3.64s-1.6,1.28-1.6,3.49.66,3.65,1.7,3.65,1.6-1.28,1.6-3.5Z"/>
    <path class="cls-1" d="M71.07,27.27c0,.63.17.8,1.1.93v.87h-5.66v-.87c.93-.13,1.09-.3,1.09-.93v-9.01c0-.56-.08-.7-.56-.86l-.53-.16v-.81l4.56-.57v11.41Z"/>
    <path class="cls-1" d="M77.61,27.27c0,.63.17.8,1.1.93v.87h-5.66v-.87c.93-.13,1.09-.3,1.09-.93v-4.94c0-.56-.08-.71-.56-.86l-.53-.16v-.81l4.56-.57v7.33ZM73.9,17.22c0-.97.79-1.66,1.77-1.66s1.77.69,1.77,1.66-.8,1.67-1.77,1.67-1.77-.7-1.77-1.67Z"/>
    <path class="cls-1" d="M84.1,21.6c.45-.96,1.59-1.71,3.24-1.71,1.87,0,3.11,1.02,3.11,2.92v4.46c0,.63.16.8,1.09.93v.87h-5.43v-.87c.74-.11.87-.26.87-.86v-4.22c0-1.01-.53-1.55-1.46-1.55-.64,0-1.16.28-1.37.67v5.1c0,.6.12.75.87.86v.87h-5.43v-.87c.93-.13,1.09-.3,1.09-.93v-4.94c0-.56-.08-.71-.56-.86l-.53-.16v-.81l4.51-.57v1.66Z"/>
    <path class="cls-1" d="M92.64,27.42c0-1.01.83-1.85,1.86-1.85s1.86.84,1.86,1.85-.83,1.86-1.86,1.86-1.86-.85-1.86-1.86Z"/>
  </g>
</svg>